<svg width="852" height="119" viewBox="0 0 852 119" fill="none" xmlns="http://www.w3.org/2000/svg">
<g filter="url(#filter0_d_11_165)">
<path d="M8.6068 94.58C6.18013 91.5933 4.9668 88.9333 4.9668 86.6C4.9668 84.1733 6.97346 81 10.9868 77.08C13.3201 74.84 15.7935 73.72 18.4068 73.72C21.0201 73.72 24.6601 76.0533 29.3268 80.72C30.6335 82.3067 32.5001 83.8467 34.9268 85.34C37.3535 86.74 39.5935 87.44 41.6468 87.44C50.3268 87.44 54.6668 83.8933 54.6668 76.8C54.6668 74.6533 53.4535 72.88 51.0268 71.48C48.6935 69.9867 45.7535 68.9133 42.2068 68.26C38.6601 67.6067 34.8335 66.58 30.7268 65.18C26.6201 63.6867 22.7935 61.96 19.2468 60C15.7001 58.04 12.7135 54.96 10.2868 50.76C7.95346 46.4667 6.7868 41.3333 6.7868 35.36C6.7868 27.1467 9.82013 20.0067 15.8868 13.94C22.0468 7.77999 30.4001 4.69999 40.9468 4.69999C46.5468 4.69999 51.6335 5.44666 56.2068 6.94C60.8735 8.33999 64.0935 9.78666 65.8668 11.28L69.3668 13.94C72.2601 16.6467 73.7068 18.9333 73.7068 20.8C73.7068 22.6667 72.5868 25.2333 70.3468 28.5C67.1735 33.1667 63.9068 35.5 60.5468 35.5C58.5868 35.5 56.1601 34.5667 53.2668 32.7C52.9868 32.5133 52.4268 32.0467 51.5868 31.3C50.8401 30.5533 50.1401 29.9467 49.4868 29.48C47.5268 28.2667 45.0068 27.66 41.9268 27.66C38.9401 27.66 36.4201 28.4067 34.3668 29.9C32.4068 31.3 31.4268 33.3067 31.4268 35.92C31.4268 38.44 32.5935 40.4933 34.9268 42.08C37.3535 43.6667 40.3401 44.74 43.8868 45.3C47.4335 45.86 51.3068 46.7467 55.5068 47.96C59.7068 49.08 63.5801 50.48 67.1268 52.16C70.6735 53.84 73.6135 56.78 75.9468 60.98C78.3735 65.0867 79.5868 70.1733 79.5868 76.24C79.5868 82.3067 78.3735 87.6733 75.9468 92.34C73.5201 96.9133 70.3468 100.46 66.4268 102.98C58.8668 107.927 50.7935 110.4 42.2068 110.4C37.8201 110.4 33.6668 109.887 29.7468 108.86C25.8268 107.74 22.6535 106.387 20.2268 104.8C15.2801 101.813 11.8268 98.92 9.8668 96.12L8.6068 94.58ZM136.568 43.06C137.128 37.8333 140.815 35.22 147.628 35.22C151.268 35.22 153.975 35.5 155.748 36.06C157.521 36.62 158.735 37.6 159.388 39C160.135 40.4 160.555 41.66 160.648 42.78C160.835 43.8067 160.928 45.3933 160.928 47.54V96.54C160.928 98.6867 160.835 100.32 160.648 101.44C160.555 102.467 160.181 103.68 159.528 105.08C158.221 107.507 155.001 108.72 149.868 108.72C144.828 108.72 141.421 108.113 139.648 106.9C137.968 105.593 136.988 103.727 136.708 101.3C133.255 106.247 127.468 108.72 119.348 108.72C111.321 108.72 103.855 105.033 96.9479 97.66C90.0412 90.2867 86.5879 81.7467 86.5879 72.04C86.5879 62.24 90.0412 53.7 96.9479 46.42C103.948 39.0467 111.601 35.36 119.908 35.36C123.081 35.36 125.975 35.92 128.588 37.04C131.201 38.16 133.021 39.2333 134.048 40.26C135.075 41.1933 135.915 42.1267 136.568 43.06ZM111.088 72.18C111.088 75.26 112.301 78.06 114.728 80.58C117.155 83.0067 120.095 84.22 123.548 84.22C127.001 84.22 129.848 82.96 132.088 80.44C134.421 77.92 135.588 75.1667 135.588 72.18C135.588 69.1 134.468 66.2533 132.228 63.64C130.081 61.0267 127.141 59.72 123.408 59.72C119.768 59.72 116.781 61.0267 114.448 63.64C112.208 66.2533 111.088 69.1 111.088 72.18ZM172.086 12.82C172.086 10.6733 172.133 9.08666 172.226 8.06C172.413 6.94 172.833 5.68 173.486 4.28C174.793 1.76 178.433 0.499995 184.406 0.499995C190.1 0.499995 193.646 1.76 195.046 4.28C195.793 5.68 196.213 6.94 196.306 8.06C196.493 9.17999 196.586 10.8133 196.586 12.96V77.78C196.586 81.14 196.866 83.2867 197.426 84.22C197.986 85.06 199.2 85.48 201.066 85.48C203.026 85.48 204.333 85.5733 204.986 85.76C205.64 85.8533 206.433 86.2267 207.366 86.88C209.233 88.0933 210.166 91.4067 210.166 96.82C210.166 102.7 209.233 106.293 207.366 107.6C204.94 109.28 199.153 109.56 190.006 108.44C182.82 107.507 178.153 105.127 176.006 101.3C173.393 96.7267 172.086 89.4467 172.086 79.46V12.82ZM287.64 63.36C287.64 69.0533 286.193 73.3 283.3 76.1C280.5 78.8067 277.373 80.16 273.92 80.16H240.74C240.74 82.7733 242.28 84.9667 245.36 86.74C248.44 88.5133 251.52 89.4 254.6 89.4C260.013 89.4 264.26 88.84 267.34 87.72L268.88 87.16C271.12 86.1333 272.987 85.62 274.48 85.62C277.467 85.62 280.033 87.72 282.18 91.92C283.393 94.44 284 96.5867 284 98.36C284 106.667 274.06 110.82 254.18 110.82C247.273 110.82 241.113 109.653 235.7 107.32C230.38 104.893 226.227 101.72 223.24 97.8C217.36 90.24 214.42 81.7933 214.42 72.46C214.42 60.7 218.2 51.32 225.76 44.32C233.413 37.2267 242.933 33.68 254.32 33.68C267.293 33.68 276.813 38.2533 282.88 47.4C286.053 52.2533 287.64 57.5733 287.64 63.36ZM258.1 67.42C261.647 67.42 263.42 65.9267 263.42 62.94C263.42 60.7933 262.58 59.0667 260.9 57.76C259.313 56.4533 256.98 55.8 253.9 55.8C250.913 55.8 247.927 57.06 244.94 59.58C241.953 62.0067 240.46 64.62 240.46 67.42H258.1ZM297.334 102.42C295.56 101.3 294.674 99.5267 294.674 97.1C294.674 94.6733 296.447 90.9867 299.994 86.04C301.02 84.4533 302.654 83.66 304.894 83.66C307.227 83.66 310.354 84.8267 314.274 87.16C318.194 89.4 321.74 90.52 324.914 90.52C330.607 90.52 333.454 89.4 333.454 87.16C333.454 85.3867 330.327 84.08 324.074 83.24C318.194 82.4 312.36 80.2067 306.574 76.66C303.867 74.98 301.627 72.3667 299.854 68.82C298.08 65.18 297.194 60.8867 297.194 55.94C297.194 41.1933 307.32 33.82 327.574 33.82C334.2 33.82 341.014 35.4067 348.014 38.58C351.28 40.0733 352.914 41.94 352.914 44.18C352.914 46.42 351.887 49.1733 349.834 52.44C347.78 55.7067 345.68 57.34 343.534 57.34C342.414 57.34 340.314 56.64 337.234 55.24C334.247 53.84 330.98 53.14 327.434 53.14C321.927 53.14 319.174 54.1667 319.174 56.22C319.174 59.02 322.347 60.84 328.694 61.68C334.854 62.3333 340.827 64.1067 346.614 67C349.32 68.3067 351.56 70.5933 353.334 73.86C355.2 77.0333 356.134 81.0467 356.134 85.9C356.134 90.7533 355.2 94.9067 353.334 98.36C351.56 101.72 349.04 104.24 345.774 105.92C339.8 108.813 332.287 110.26 323.234 110.26C314.274 110.26 305.64 107.647 297.334 102.42ZM479.22 91.64C480.62 95 481.32 97.4267 481.32 98.92C481.32 102.467 478.427 105.453 472.64 107.88C469.653 109.187 467.227 109.84 465.36 109.84C463.587 109.84 462.093 109.42 460.88 108.58C459.76 107.647 458.92 106.713 458.36 105.78C457.427 104.007 453.787 95.56 447.44 80.44L443.1 80.72H425.46V96.54C425.46 98.6867 425.367 100.32 425.18 101.44C425.087 102.467 424.667 103.68 423.92 105.08C422.613 107.6 418.973 108.86 413 108.86C406.467 108.86 402.64 107.133 401.52 103.68C400.96 102.093 400.68 99.6667 400.68 96.4V18.7C400.68 16.5533 400.727 14.9667 400.82 13.94C401.007 12.82 401.473 11.56 402.22 10.16C403.527 7.63999 407.167 6.37999 413.14 6.37999H443.38C451.593 6.37999 459.573 9.36666 467.32 15.34C471.053 18.2333 474.133 22.1533 476.56 27.1C478.987 32.0467 480.2 37.5533 480.2 43.62C480.2 54.1667 476.7 62.8467 469.7 69.66C471.753 74.6067 474.927 81.9333 479.22 91.64ZM425.46 55.94H443.38C446.087 55.94 448.793 54.9133 451.5 52.86C454.207 50.8067 455.56 47.7267 455.56 43.62C455.56 39.5133 454.207 36.4333 451.5 34.38C448.793 32.2333 445.993 31.16 443.1 31.16H425.46V55.94ZM484.166 72.18C484.166 60.98 488.086 51.74 495.926 44.46C503.766 37.18 512.726 33.54 522.806 33.54C532.886 33.54 541.799 37.18 549.546 44.46C557.293 51.6467 561.166 60.84 561.166 72.04C561.166 79.7867 559.159 86.6933 555.146 92.76C551.133 98.7333 546.233 103.167 540.446 106.06C534.753 108.86 528.826 110.26 522.666 110.26C516.506 110.26 510.533 108.767 504.746 105.78C498.959 102.7 494.059 98.22 490.046 92.34C486.126 86.3667 484.166 79.6467 484.166 72.18ZM513.426 82.26C516.413 84.5 519.446 85.62 522.526 85.62C525.606 85.62 528.686 84.4533 531.766 82.12C534.846 79.7867 536.386 76.3333 536.386 71.76C536.386 67.1867 534.939 63.78 532.046 61.54C529.153 59.3 526.026 58.18 522.666 58.18C519.306 58.18 516.179 59.3467 513.286 61.68C510.393 64.0133 508.946 67.4667 508.946 72.04C508.946 76.52 510.439 79.9267 513.426 82.26ZM593.311 72.18C593.311 76.1 594.618 79.18 597.231 81.42C599.845 83.5667 602.598 84.64 605.491 84.64C608.478 84.64 611.231 83.8 613.751 82.12C616.365 80.3467 618.465 79.46 620.051 79.46C622.851 79.46 626.258 81.9333 630.271 86.88C632.418 89.5867 633.491 92.0133 633.491 94.16C633.491 97.7067 630.925 101.02 625.791 104.1C620.471 107.833 613.938 109.7 606.191 109.7C597.511 109.7 589.158 106.573 581.131 100.32C577.305 97.3333 574.178 93.3667 571.751 88.42C569.325 83.38 568.111 77.8733 568.111 71.9C568.111 65.8333 569.325 60.3733 571.751 55.52C574.178 50.5733 577.305 46.6067 581.131 43.62C588.878 37.46 597.138 34.38 605.911 34.38C609.458 34.38 612.911 34.8933 616.271 35.92C619.631 36.8533 622.105 37.7867 623.691 38.72L625.931 40.12C627.611 41.24 628.918 42.1267 629.851 42.78C632.278 44.6467 633.491 46.7933 633.491 49.22C633.491 51.5533 632.511 54.2133 630.551 57.2C627.191 62.3333 623.971 64.9 620.891 64.9C619.118 64.9 616.598 63.8733 613.331 61.82C611.651 60.2333 609.225 59.44 606.051 59.44C602.971 59.44 600.078 60.56 597.371 62.8C594.665 65.04 593.311 68.1667 593.311 72.18ZM685.936 72.04L704.556 87.44C706.889 89.4 708.336 90.8933 708.896 91.92C709.549 92.9467 709.876 93.9267 709.876 94.86C709.876 97.1 708.429 100.133 705.536 103.96C702.362 107.88 699.562 109.84 697.136 109.84C695.082 109.84 692.236 108.487 688.596 105.78L687.196 104.8C685.049 103.027 681.736 99.9467 677.256 95.56C672.776 91.08 669.369 87.9067 667.036 86.04V96.82C667.036 98.9667 666.942 100.6 666.756 101.72C666.662 102.747 666.242 103.96 665.496 105.36C664.282 107.787 660.689 109 654.716 109C648.836 109 645.242 107.74 643.936 105.22C643.282 103.82 642.862 102.607 642.676 101.58C642.582 100.46 642.536 98.8267 642.536 96.68V12.82C642.536 10.6733 642.582 9.08666 642.676 8.06C642.862 6.94 643.282 5.68 643.936 4.28C645.242 1.76 648.882 0.499995 654.856 0.499995C659.336 0.499995 662.509 1.29333 664.376 2.88C665.962 4.18666 666.802 6.24 666.896 9.03999C666.989 9.87999 667.036 11.1867 667.036 12.96V57.34C668.716 55.94 671.236 53.56 674.596 50.2C678.049 46.84 680.616 44.46 682.296 43.06L683.976 41.94C687.242 39.42 690.042 38.16 692.376 38.16C694.709 38.16 697.369 40.0733 700.356 43.9C703.436 47.6333 704.976 50.5733 704.976 52.72C704.976 54.8667 703.249 57.3867 699.796 60.28L685.936 72.04ZM784.476 63.36C784.476 69.0533 783.029 73.3 780.136 76.1C777.336 78.8067 774.209 80.16 770.756 80.16H737.576C737.576 82.7733 739.116 84.9667 742.196 86.74C745.276 88.5133 748.356 89.4 751.436 89.4C756.849 89.4 761.096 88.84 764.176 87.72L765.716 87.16C767.956 86.1333 769.823 85.62 771.316 85.62C774.303 85.62 776.869 87.72 779.016 91.92C780.229 94.44 780.836 96.5867 780.836 98.36C780.836 106.667 770.896 110.82 751.016 110.82C744.109 110.82 737.949 109.653 732.536 107.32C727.216 104.893 723.063 101.72 720.076 97.8C714.196 90.24 711.256 81.7933 711.256 72.46C711.256 60.7 715.036 51.32 722.596 44.32C730.249 37.2267 739.769 33.68 751.156 33.68C764.129 33.68 773.649 38.2533 779.716 47.4C782.889 52.2533 784.476 57.5733 784.476 63.36ZM754.936 67.42C758.483 67.42 760.256 65.9267 760.256 62.94C760.256 60.7933 759.416 59.0667 757.736 57.76C756.149 56.4533 753.816 55.8 750.736 55.8C747.749 55.8 744.763 57.06 741.776 59.58C738.789 62.0067 737.296 64.62 737.296 67.42H754.936ZM835.083 60L825.983 59.44V78.76C825.983 81.28 826.356 83.1 827.103 84.22C827.943 85.34 829.436 85.9 831.583 85.9C833.823 85.9 835.503 85.9933 836.623 86.18C837.836 86.2733 839.096 86.6933 840.403 87.44C842.549 88.6533 843.623 91.78 843.623 96.82C843.623 102.7 842.316 106.293 839.703 107.6C838.303 108.253 837.043 108.673 835.923 108.86C834.896 108.953 833.356 109 831.303 109C821.596 109 814.223 106.807 809.183 102.42C804.143 98.0333 801.623 90.6133 801.623 80.16V59.44C799.849 59.72 797.936 59.86 795.883 59.86C793.829 59.86 792.103 59.0667 790.703 57.48C789.396 55.8933 788.743 53.1867 788.743 49.36C788.743 45.5333 788.976 42.78 789.443 41.1C789.909 39.3267 790.563 38.0667 791.403 37.32C792.896 36.1067 794.763 35.5 797.003 35.5L801.623 36.06V21.64C801.623 19.4933 801.669 17.9067 801.763 16.88C801.949 15.8533 802.416 14.7333 803.163 13.52C804.376 11.1867 807.969 10.02 813.943 10.02C820.289 10.02 824.069 11.7467 825.283 15.2C825.749 16.6933 825.983 19.0733 825.983 22.34V36.06C830.089 35.6867 833.169 35.5 835.223 35.5C837.369 35.5 838.956 35.5933 839.983 35.78C841.103 35.8733 842.363 36.2933 843.763 37.04C846.189 38.2533 847.403 41.8467 847.403 47.82C847.403 53.7 846.143 57.2933 843.623 58.6C842.223 59.2533 840.963 59.6733 839.843 59.86C838.816 59.9533 837.229 60 835.083 60Z" fill="white"/>
<path d="M8.6068 94.58L7.83068 95.2106L7.83284 95.2132L8.6068 94.58ZM10.9868 77.08L10.2942 76.3586L10.2881 76.3646L10.9868 77.08ZM29.3268 80.72L30.0987 80.0843L30.068 80.047L30.0339 80.0129L29.3268 80.72ZM34.9268 85.34L34.4027 86.1917L34.4148 86.1991L34.4271 86.2062L34.9268 85.34ZM51.0268 71.48L50.4877 72.3223L50.5071 72.3347L50.5271 72.3462L51.0268 71.48ZM42.2068 68.26L42.0256 69.2435L42.2068 68.26ZM30.7268 65.18L30.3851 66.1198L30.3946 66.1232L30.4041 66.1265L30.7268 65.18ZM10.2868 50.76L9.40817 51.2375L9.4144 51.249L9.42093 51.2603L10.2868 50.76ZM15.8868 13.94L16.5939 14.6471L15.8868 13.94ZM56.2068 6.93999L55.8964 7.8906L55.9079 7.89435L55.9195 7.89782L56.2068 6.93999ZM65.8668 11.28L65.2227 12.0449L65.2418 12.061L65.2617 12.0762L65.8668 11.28ZM69.3668 13.94L70.05 13.2097L70.0126 13.1748L69.9719 13.1438L69.3668 13.94ZM70.3468 28.5L69.5221 27.9345L69.5199 27.9377L70.3468 28.5ZM53.2668 32.7L52.7121 33.532L52.7183 33.5362L52.7247 33.5403L53.2668 32.7ZM51.5868 31.3L50.8797 32.0071L50.9005 32.0279L50.9224 32.0474L51.5868 31.3ZM49.4868 29.48L50.068 28.6663L50.0412 28.6471L50.0132 28.6297L49.4868 29.48ZM34.3668 29.9L34.9481 30.7138L34.955 30.7087L34.3668 29.9ZM34.9268 42.08L34.3645 42.9069L34.372 42.912L34.3795 42.917L34.9268 42.08ZM43.8868 45.3L43.7308 46.2878L43.8868 45.3ZM55.5068 47.96L55.2293 48.9207L55.2392 48.9236L55.2491 48.9262L55.5068 47.96ZM67.1268 52.16L66.6987 53.0637L67.1268 52.16ZM75.9468 60.98L75.0726 61.4656L75.0791 61.4773L75.0859 61.4887L75.9468 60.98ZM75.9468 92.34L76.8302 92.8087L76.834 92.8014L75.9468 92.34ZM66.4268 102.98L65.886 102.139L65.8793 102.143L66.4268 102.98ZM29.7468 108.86L29.4721 109.822L29.4827 109.825L29.4934 109.827L29.7468 108.86ZM20.2268 104.8L20.774 103.963L20.759 103.953L20.7437 103.944L20.2268 104.8ZM9.8668 96.12L10.686 95.5465L10.6645 95.5158L10.6408 95.4868L9.8668 96.12ZM9.38291 93.9494C7.01428 91.0342 5.9668 88.596 5.9668 86.6H3.9668C3.9668 89.2706 5.34598 92.1525 7.83068 95.2106L9.38291 93.9494ZM5.9668 86.6C5.9668 85.6528 6.36376 84.4419 7.31699 82.9345C8.26371 81.4373 9.71006 79.7249 11.6855 77.7954L10.2881 76.3646C8.2502 78.3551 6.68655 80.1893 5.6266 81.8655C4.57316 83.5314 3.9668 85.1205 3.9668 86.6H5.9668ZM11.6793 77.8014C13.873 75.6954 16.1097 74.72 18.4068 74.72V72.72C15.4772 72.72 12.7672 73.9846 10.2943 76.3586L11.6793 77.8014ZM18.4068 74.72C19.4344 74.72 20.8035 75.1878 22.5571 76.3119C24.2939 77.4252 26.3136 79.121 28.6197 81.4271L30.0339 80.0129C27.6733 77.6523 25.5397 75.8482 23.6365 74.6281C21.7501 73.4189 19.9926 72.72 18.4068 72.72V74.72ZM28.5549 81.3557C29.953 83.0534 31.9156 84.6611 34.4027 86.1917L35.4509 84.4883C33.0846 83.0322 31.314 81.5599 30.0987 80.0843L28.5549 81.3557ZM34.4271 86.2062C36.9526 87.6632 39.3655 88.44 41.6468 88.44V86.44C39.8214 86.44 37.7543 85.8168 35.4265 84.4738L34.4271 86.2062ZM41.6468 88.44C46.0974 88.44 49.6211 87.5348 52.0446 85.5543C54.5067 83.5423 55.6668 80.5601 55.6668 76.8H53.6668C53.6668 80.1332 52.6569 82.4711 50.779 84.0057C48.8625 85.5719 45.8762 86.44 41.6468 86.44V88.44ZM55.6668 76.8C55.6668 74.1863 54.1544 72.1299 51.5265 70.6138L50.5271 72.3462C52.7526 73.6301 53.6668 75.1203 53.6668 76.8H55.6668ZM51.5659 70.6377C49.096 69.057 46.0254 67.9466 42.388 67.2765L42.0256 69.2435C45.4816 69.8801 48.2909 70.9163 50.4877 72.3223L51.5659 70.6377ZM42.388 67.2765C38.8978 66.6336 35.1189 65.6208 31.0495 64.2335L30.4041 66.1265C34.548 67.5392 38.4225 68.5797 42.0256 69.2435L42.388 67.2765ZM31.0685 64.2402C27.007 62.7633 23.2282 61.0577 19.7305 59.1248L18.7631 60.8752C22.3587 62.8623 26.2332 64.61 30.3851 66.1198L31.0685 64.2402ZM19.7305 59.1248C16.3717 57.2686 13.5064 54.3335 11.1527 50.2597L9.42093 51.2603C11.9205 55.5865 15.0285 58.8114 18.7631 60.8752L19.7305 59.1248ZM11.1654 50.2825C8.92761 46.1649 7.7868 41.2033 7.7868 35.36H5.7868C5.7868 41.4634 6.97932 46.7684 9.40817 51.2375L11.1654 50.2825ZM7.7868 35.36C7.7868 27.4248 10.7055 20.5356 16.5939 14.6471L15.1797 13.2329C8.93481 19.4778 5.7868 26.8686 5.7868 35.36H7.7868ZM16.5939 14.6471C22.528 8.71297 30.6057 5.69999 40.9468 5.69999V3.69999C30.1945 3.69999 21.5656 6.84702 15.1797 13.2329L16.5939 14.6471ZM40.9468 5.69999C46.4583 5.69999 51.4382 6.43485 55.8964 7.8906L56.5172 5.98939C51.8288 4.45847 46.6353 3.69999 40.9468 3.69999V5.69999ZM55.9195 7.89782C60.5679 9.29235 63.6167 10.6925 65.2227 12.0449L66.5109 10.5151C64.5702 8.88082 61.179 7.38763 56.4941 5.98217L55.9195 7.89782ZM65.2617 12.0762L68.7617 14.7362L69.9719 13.1438L66.4719 10.4838L65.2617 12.0762ZM68.6836 14.6703C70.0941 15.9898 71.1145 17.1729 71.7767 18.2196C72.4419 19.271 72.7068 20.1229 72.7068 20.8H74.7068C74.7068 19.6104 74.2484 18.3856 73.4669 17.1504C72.6824 15.9104 71.5328 14.5969 70.05 13.2097L68.6836 14.6703ZM72.7068 20.8C72.7068 22.3379 71.7509 24.684 69.5221 27.9345L71.1715 29.0655C73.4227 25.7826 74.7068 22.9954 74.7068 20.8H72.7068ZM69.5199 27.9377C66.4056 32.5175 63.4003 34.5 60.5468 34.5V36.5C64.4133 36.5 67.9413 33.8158 71.1737 29.0623L69.5199 27.9377ZM60.5468 34.5C58.8758 34.5 56.6477 33.6912 53.8089 31.8597L52.7247 33.5403C55.6726 35.4422 58.2978 36.5 60.5468 36.5V34.5ZM53.8215 31.868C53.6104 31.7272 53.104 31.3107 52.2512 30.5526L50.9224 32.0474C51.7496 32.7826 52.3632 33.2995 52.7121 33.532L53.8215 31.868ZM52.2939 30.5929C51.5197 29.8187 50.7776 29.1731 50.068 28.6663L48.9056 30.2937C49.5026 30.7202 50.1606 31.288 50.8797 32.0071L52.2939 30.5929ZM50.0132 28.6297C47.8503 27.2908 45.132 26.66 41.9268 26.66V28.66C44.8816 28.66 47.2033 29.2425 48.9604 30.3303L50.0132 28.6297ZM41.9268 26.66C38.7672 26.66 36.0315 27.4528 33.7786 29.0913L34.955 30.7087C36.8087 29.3605 39.113 28.66 41.9268 28.66V26.66ZM33.7856 29.0863C31.5377 30.6919 30.4268 33.0158 30.4268 35.92H32.4268C32.4268 33.5975 33.2759 31.9081 34.948 30.7137L33.7856 29.0863ZM30.4268 35.92C30.4268 38.8149 31.7957 41.1601 34.3645 42.9069L35.4891 41.2531C33.3912 39.8265 32.4268 38.0651 32.4268 35.92H30.4268ZM34.3795 42.917C36.9492 44.5971 40.0769 45.7108 43.7308 46.2878L44.0428 44.3122C40.6033 43.7692 37.7577 42.7362 35.474 41.243L34.3795 42.917ZM43.7308 46.2878C47.2288 46.8401 51.0609 47.7165 55.2293 48.9207L55.7843 46.9993C51.5527 45.7768 47.6382 44.8799 44.0428 44.3122L43.7308 46.2878ZM55.2491 48.9262C59.3967 50.0323 63.2123 51.4123 66.6987 53.0637L67.5549 51.2563C63.9479 49.5477 60.0169 48.1277 55.7645 46.9938L55.2491 48.9262ZM66.6987 53.0637C70.0178 54.6359 72.8176 57.4065 75.0726 61.4656L76.821 60.4944C74.4093 56.1534 71.3291 53.0441 67.5549 51.2563L66.6987 53.0637ZM75.0859 61.4887C77.3999 65.4047 78.5868 70.3044 78.5868 76.24H80.5868C80.5868 70.0423 79.3471 64.7686 76.8077 60.4713L75.0859 61.4887ZM78.5868 76.24C78.5868 82.1708 77.4015 87.3749 75.0596 91.8786L76.834 92.8014C79.3454 87.9717 80.5868 82.4425 80.5868 76.24H78.5868ZM75.0634 91.8713C72.708 96.3103 69.6463 99.7215 65.886 102.139L66.9676 103.821C71.0473 101.198 74.3322 97.5163 76.8301 92.8087L75.0634 91.8713ZM65.8793 102.143C58.4731 106.989 50.5886 109.4 42.2068 109.4V111.4C50.9984 111.4 59.2605 108.864 66.9743 103.817L65.8793 102.143ZM42.2068 109.4C37.8986 109.4 33.8309 108.896 30.0002 107.893L29.4934 109.827C33.5027 110.877 37.7416 111.4 42.2068 111.4V109.4ZM30.0215 107.898C26.1622 106.796 23.0902 105.477 20.774 103.963L19.6795 105.637C22.2167 107.296 25.4914 108.684 29.4721 109.822L30.0215 107.898ZM20.7437 103.944C15.845 100.986 12.5291 98.1795 10.686 95.5465L9.04757 96.6935C11.1245 99.6605 14.7152 102.64 19.7099 105.656L20.7437 103.944ZM10.6408 95.4868L9.38075 93.9468L7.83284 95.2132L9.09284 96.7532L10.6408 95.4868ZM136.568 43.06L135.749 43.6335L137.278 45.8184L137.562 43.1665L136.568 43.06ZM155.748 36.06L156.049 35.1064L155.748 36.06ZM159.388 39L158.482 39.4229L158.493 39.4471L158.506 39.4706L159.388 39ZM160.648 42.78L159.651 42.863L159.655 42.9113L159.664 42.9589L160.648 42.78ZM160.648 101.44L159.661 101.276L159.655 101.312L159.652 101.349L160.648 101.44ZM159.528 105.08L160.408 105.554L160.422 105.529L160.434 105.503L159.528 105.08ZM139.648 106.9L139.034 107.689L139.058 107.708L139.083 107.725L139.648 106.9ZM136.708 101.3L137.701 101.185L137.399 98.5634L135.888 100.728L136.708 101.3ZM96.9479 97.66L96.2181 98.3436L96.9479 97.66ZM96.9479 46.42L96.2227 45.7315L96.2224 45.7317L96.9479 46.42ZM128.588 37.04L128.194 37.9591H128.194L128.588 37.04ZM134.048 40.26L133.341 40.9671L133.358 40.9839L133.375 40.9999L134.048 40.26ZM114.728 80.58L114.008 81.2736L114.014 81.2804L114.021 81.2871L114.728 80.58ZM132.088 80.44L131.354 79.7606L131.347 79.768L131.34 79.7756L132.088 80.44ZM132.228 63.64L131.455 64.2747L131.462 64.2828L131.469 64.2908L132.228 63.64ZM114.448 63.64L113.702 62.974L113.695 62.9815L113.689 62.9892L114.448 63.64ZM137.562 43.1665C137.817 40.787 138.761 39.109 140.331 37.9958C141.939 36.8558 144.329 36.22 147.628 36.22V34.22C144.113 34.22 141.253 34.8909 139.175 36.3642C137.058 37.8644 135.879 40.1063 135.574 42.9535L137.562 43.1665ZM147.628 36.22C151.244 36.22 153.825 36.5013 155.447 37.0136L156.049 35.1064C154.125 34.4987 151.292 34.22 147.628 34.22V36.22ZM155.447 37.0136C157.012 37.5079 157.971 38.3278 158.482 39.4229L160.294 38.5771C159.498 36.8722 158.03 35.7321 156.049 35.1064L155.447 37.0136ZM158.506 39.4706C159.213 40.7964 159.573 41.9223 159.651 42.863L161.644 42.697C161.536 41.3977 161.056 40.0036 160.27 38.5294L158.506 39.4706ZM159.664 42.9589C159.834 43.8926 159.928 45.4044 159.928 47.54H161.928C161.928 45.3823 161.835 43.7208 161.632 42.6011L159.664 42.9589ZM159.928 47.54V96.54H161.928V47.54H159.928ZM159.928 96.54C159.928 98.6709 159.834 100.238 159.661 101.276L161.634 101.604C161.835 100.402 161.928 98.7024 161.928 96.54H159.928ZM159.652 101.349C159.573 102.219 159.248 103.315 158.622 104.657L160.434 105.503C161.114 104.045 161.536 102.715 161.644 101.531L159.652 101.349ZM158.647 104.606C157.626 106.503 154.95 107.72 149.868 107.72V109.72C155.053 109.72 158.816 108.511 160.408 105.554L158.647 104.606ZM149.868 107.72C147.383 107.72 145.334 107.57 143.708 107.28C142.069 106.989 140.932 106.567 140.213 106.075L139.083 107.725C140.137 108.446 141.59 108.935 143.358 109.25C145.138 109.567 147.313 109.72 149.868 109.72V107.72ZM140.262 106.111C138.826 104.994 137.955 103.388 137.701 101.185L135.714 101.415C136.02 104.065 137.11 106.193 139.034 107.689L140.262 106.111ZM135.888 100.728C132.683 105.319 127.265 107.72 119.348 107.72V109.72C127.671 109.72 133.826 107.175 137.528 101.872L135.888 100.728ZM119.348 107.72C111.666 107.72 104.447 104.203 97.6777 96.9764L96.2181 98.3436C103.262 105.863 110.977 109.72 119.348 109.72V107.72ZM97.6777 96.9764C90.9368 89.78 87.5879 81.4815 87.5879 72.04H85.5879C85.5879 82.0118 89.1456 90.7933 96.2181 98.3436L97.6777 96.9764ZM87.5879 72.04C87.5879 62.5029 90.9383 54.2074 97.6734 47.1083L96.2224 45.7317C89.1442 53.1926 85.5879 61.9771 85.5879 72.04H87.5879ZM97.6731 47.1085C104.53 39.8863 111.935 36.36 119.908 36.36V34.36C111.267 34.36 103.366 38.207 96.2227 45.7315L97.6731 47.1085ZM119.908 36.36C122.962 36.36 125.719 36.8984 128.194 37.9591L128.982 36.1209C126.23 34.9416 123.201 34.36 119.908 34.36V36.36ZM128.194 37.9591C130.781 39.0677 132.454 40.0805 133.341 40.9671L134.755 39.5529C133.588 38.3862 131.622 37.2523 128.982 36.1209L128.194 37.9591ZM133.375 40.9999C134.358 41.8938 135.146 42.7723 135.749 43.6335L137.387 42.4865C136.683 41.481 135.791 40.4929 134.721 39.5201L133.375 40.9999ZM110.088 72.18C110.088 75.5544 111.428 78.5947 114.008 81.2736L115.448 79.8864C113.175 77.5253 112.088 74.9656 112.088 72.18H110.088ZM114.021 81.2871C116.636 83.9026 119.831 85.22 123.548 85.22V83.22C120.358 83.22 117.673 82.1107 115.435 79.8729L114.021 81.2871ZM123.548 85.22C127.279 85.22 130.4 83.8437 132.835 81.1044L131.34 79.7756C129.295 82.0763 126.723 83.22 123.548 83.22V85.22ZM132.822 81.1194C135.299 78.4443 136.588 75.4563 136.588 72.18H134.588C134.588 74.877 133.544 77.3957 131.354 79.7606L132.822 81.1194ZM136.588 72.18C136.588 68.8329 135.363 65.761 132.987 62.9892L131.469 64.2908C133.573 66.7457 134.588 69.3671 134.588 72.18H136.588ZM133.001 63.0053C130.643 60.1348 127.405 58.72 123.408 58.72V60.72C126.877 60.72 129.52 61.9186 131.455 64.2747L133.001 63.0053ZM123.408 58.72C119.496 58.72 116.233 60.1389 113.702 62.974L115.194 64.306C117.329 61.9144 120.04 60.72 123.408 60.72V58.72ZM113.689 62.9892C111.313 65.761 110.088 68.8329 110.088 72.18H112.088C112.088 69.3671 113.103 66.7457 115.207 64.2908L113.689 62.9892ZM172.226 8.06L171.24 7.8956L171.234 7.93235L171.23 7.96946L172.226 8.06ZM173.486 4.28L172.599 3.81968L172.589 3.8382L172.58 3.85711L173.486 4.28ZM195.046 4.28L195.929 3.80941L195.925 3.80185L195.92 3.79435L195.046 4.28ZM196.306 8.06L195.31 8.14304L195.313 8.18393L195.32 8.2244L196.306 8.06ZM197.426 84.22L196.569 84.7345L196.581 84.7549L196.594 84.7747L197.426 84.22ZM204.986 85.76L204.712 86.7215L204.777 86.7403L204.845 86.7499L204.986 85.76ZM207.366 86.88L206.793 87.6992L206.807 87.7091L206.821 87.7184L207.366 86.88ZM207.366 107.6L207.936 108.422L207.94 108.419L207.366 107.6ZM190.006 108.44L189.878 109.432L189.885 109.433L190.006 108.44ZM176.006 101.3L176.878 100.811L176.875 100.804L176.006 101.3ZM173.086 12.82C173.086 10.6786 173.133 9.12964 173.222 8.15053L171.23 7.96946C171.133 9.04368 171.086 10.6681 171.086 12.82H173.086ZM173.213 8.2244C173.38 7.21937 173.765 6.04813 174.393 4.70288L172.58 3.85711C171.901 5.31186 171.446 6.66062 171.24 7.8956L173.213 8.2244ZM174.374 4.74031C174.873 3.77876 175.857 2.96666 177.523 2.38998C179.197 1.81072 181.477 1.49999 184.406 1.49999V-0.500006C181.363 -0.500006 178.836 -0.180729 176.869 0.50001C174.895 1.18334 173.407 2.26124 172.599 3.81968L174.374 4.74031ZM184.406 1.49999C187.191 1.49999 189.376 1.80977 191.002 2.3873C192.617 2.96125 193.623 3.77662 194.172 4.76564L195.92 3.79435C195.07 2.26337 193.602 1.18875 191.671 0.502693C189.75 -0.179785 187.315 -0.500006 184.406 -0.500006V1.49999ZM194.164 4.75059C194.871 6.0764 195.231 7.20232 195.31 8.14304L197.303 7.97695C197.195 6.67767 196.715 5.28359 195.929 3.80941L194.164 4.75059ZM195.32 8.2244C195.493 9.2616 195.586 10.8291 195.586 12.96H197.586C197.586 10.7976 197.493 9.09838 197.293 7.8956L195.32 8.2244ZM195.586 12.96V77.78H197.586V12.96H195.586ZM195.586 77.78C195.586 79.4825 195.657 80.9065 195.805 82.0393C195.948 83.1407 196.178 84.083 196.569 84.7345L198.284 83.7055C198.115 83.4237 197.924 82.826 197.788 81.7807C197.656 80.7668 197.586 79.4375 197.586 77.78H195.586ZM196.594 84.7747C197.452 86.0617 199.139 86.48 201.066 86.48V84.48C199.261 84.48 198.52 84.0583 198.258 83.6653L196.594 84.7747ZM201.066 86.48C203.047 86.48 204.214 86.5794 204.712 86.7215L205.261 84.7985C204.452 84.5673 203.006 84.48 201.066 84.48V86.48ZM204.845 86.7499C205.268 86.8104 205.907 87.0794 206.793 87.6992L207.94 86.0608C206.959 85.374 206.011 84.8963 205.128 84.7701L204.845 86.7499ZM206.821 87.7184C207.465 88.1371 208.068 89.0008 208.504 90.5461C208.936 92.0792 209.166 94.159 209.166 96.82H211.166C211.166 94.0676 210.93 91.7842 210.429 90.0039C209.931 88.2358 209.134 86.8362 207.911 86.0416L206.821 87.7184ZM209.166 96.82C209.166 99.7183 208.935 101.992 208.498 103.674C208.056 105.375 207.441 106.327 206.793 106.781L207.94 108.419C209.158 107.567 209.943 106.068 210.434 104.176C210.931 102.264 211.166 99.8017 211.166 96.82H209.166ZM206.797 106.778C205.826 107.45 204.014 107.933 201.158 108.071C198.344 108.207 194.674 108.004 190.128 107.447L189.885 109.433C194.486 109.996 198.282 110.213 201.255 110.069C204.186 109.927 206.48 109.43 207.936 108.422L206.797 106.778ZM190.135 107.448C183.058 106.529 178.792 104.222 176.878 100.811L175.134 101.789C177.514 106.031 182.581 108.484 189.878 109.432L190.135 107.448ZM176.875 100.804C174.395 96.4646 173.086 89.403 173.086 79.46H171.086C171.086 89.4903 172.391 96.9888 175.138 101.796L176.875 100.804ZM173.086 79.46V12.82H171.086V79.46H173.086ZM283.3 76.1L283.995 76.819L283.995 76.8186L283.3 76.1ZM240.74 80.16V79.16H239.74V80.16H240.74ZM245.36 86.74L245.859 85.8734L245.36 86.74ZM267.34 87.72L266.998 86.7802L267.34 87.72ZM268.88 87.16L269.222 88.0998L269.26 88.0859L269.297 88.0691L268.88 87.16ZM282.18 91.92L283.081 91.4862L283.076 91.4755L283.07 91.4649L282.18 91.92ZM235.7 107.32L235.285 108.23L235.294 108.234L235.304 108.238L235.7 107.32ZM223.24 97.8L224.035 97.1939L224.029 97.1861L223.24 97.8ZM225.76 44.32L226.439 45.0538L226.44 45.0534L225.76 44.32ZM282.88 47.4L283.717 46.8527L283.713 46.8473L282.88 47.4ZM260.9 57.76L260.264 58.5319L260.275 58.5408L260.286 58.5493L260.9 57.76ZM244.94 59.58L245.571 60.3561L245.578 60.3503L245.585 60.3443L244.94 59.58ZM240.46 67.42H239.46V68.42H240.46V67.42ZM286.64 63.36C286.64 68.8964 285.234 72.8365 282.604 75.3814L283.995 76.8186C287.152 73.7635 288.64 69.2103 288.64 63.36H286.64ZM282.605 75.381C279.966 77.9324 277.08 79.16 273.92 79.16V81.16C277.666 81.16 281.034 79.6809 283.995 76.819L282.605 75.381ZM273.92 79.16H240.74V81.16H273.92V79.16ZM239.74 80.16C239.74 83.256 241.597 85.7275 244.861 87.6066L245.859 85.8734C242.963 84.2059 241.74 82.2906 241.74 80.16H239.74ZM244.861 87.6066C248.069 89.4537 251.319 90.4 254.6 90.4V88.4C251.72 88.4 248.811 87.5729 245.859 85.8734L244.861 87.6066ZM254.6 90.4C260.064 90.4 264.444 89.8372 267.682 88.6598L266.998 86.7802C264.076 87.8428 259.962 88.4 254.6 88.4V90.4ZM267.682 88.6598L269.222 88.0998L268.538 86.2202L266.998 86.7802L267.682 88.6598ZM269.297 88.0691C271.48 87.0682 273.194 86.62 274.48 86.62V84.62C272.779 84.62 270.76 85.1985 268.463 86.2509L269.297 88.0691ZM274.48 86.62C276.902 86.62 279.206 88.2989 281.289 92.3751L283.07 91.4649C280.86 87.1412 278.031 84.62 274.48 84.62V86.62ZM281.279 92.3538C282.461 94.8084 283 96.7989 283 98.36H285C285 96.3745 284.326 94.0716 283.081 91.4862L281.279 92.3538ZM283 98.36C283 100.22 282.449 101.815 281.354 103.188C280.247 104.576 278.542 105.787 276.159 106.782C271.375 108.781 264.08 109.82 254.18 109.82V111.82C264.159 111.82 271.775 110.782 276.93 108.628C279.518 107.546 281.54 106.162 282.918 104.435C284.308 102.692 285 100.653 285 98.36H283ZM254.18 109.82C247.386 109.82 241.365 108.673 236.096 106.402L235.304 108.238C240.862 110.634 247.16 111.82 254.18 111.82V109.82ZM236.115 106.41C230.917 104.039 226.905 100.961 224.035 97.194L222.444 98.406C225.548 102.479 229.843 105.748 235.285 108.23L236.115 106.41ZM224.029 97.1861C218.282 89.7966 215.42 81.5648 215.42 72.46H213.42C213.42 82.0219 216.438 90.6834 222.451 98.4139L224.029 97.1861ZM215.42 72.46C215.42 60.9352 219.114 51.8369 226.439 45.0538L225.081 43.5862C217.286 50.8031 213.42 60.4648 213.42 72.46H215.42ZM226.44 45.0534C233.891 38.1477 243.16 34.68 254.32 34.68V32.68C242.706 32.68 232.936 36.3056 225.08 43.5866L226.44 45.0534ZM254.32 34.68C267.029 34.68 276.201 39.1394 282.047 47.9527L283.713 46.8473C277.426 37.3672 267.558 32.68 254.32 32.68V34.68ZM282.043 47.9472C285.11 52.6382 286.64 57.7682 286.64 63.36H288.64C288.64 57.3785 286.996 51.8684 283.717 46.8527L282.043 47.9472ZM258.1 68.42C259.989 68.42 261.593 68.0258 262.734 67.0649C263.908 66.0763 264.42 64.6368 264.42 62.94H262.42C262.42 64.2298 262.045 65.0304 261.446 65.5351C260.814 66.0675 259.757 66.42 258.1 66.42V68.42ZM264.42 62.94C264.42 60.4879 263.44 58.4687 261.514 56.9706L260.286 58.5493C261.72 59.6646 262.42 61.0988 262.42 62.94H264.42ZM261.536 56.9881C259.7 55.4761 257.101 54.8 253.9 54.8V56.8C256.859 56.8 258.927 57.4306 260.264 58.5319L261.536 56.9881ZM253.9 54.8C250.613 54.8 247.406 56.1911 244.295 58.8157L245.585 60.3443C248.448 57.9289 251.214 56.8 253.9 56.8V54.8ZM244.309 58.8039C241.181 61.3453 239.46 64.2171 239.46 67.42H241.46C241.46 65.0229 242.725 62.6681 245.571 60.3561L244.309 58.8039ZM240.46 68.42H258.1V66.42H240.46V68.42ZM297.334 102.42L296.8 103.265L296.801 103.266L297.334 102.42ZM299.994 86.04L300.807 86.6227L300.82 86.6033L300.833 86.5833L299.994 86.04ZM314.274 87.16L313.762 88.0193L313.77 88.0238L313.778 88.0282L314.274 87.16ZM324.074 83.24L323.932 84.23L323.941 84.2311L324.074 83.24ZM306.574 76.66L306.046 77.5097L306.051 77.5126L306.574 76.66ZM299.854 68.82L298.955 69.258L298.959 69.2672L299.854 68.82ZM348.014 38.58L348.43 37.6705L348.427 37.6692L348.014 38.58ZM349.834 52.44L350.68 52.9722L349.834 52.44ZM337.234 55.24L336.809 56.1455L336.82 56.1504L337.234 55.24ZM328.694 61.68L328.563 62.6713L328.575 62.673L328.588 62.6744L328.694 61.68ZM346.614 67L346.167 67.8945L346.179 67.9006L346.614 67ZM353.334 73.86L352.455 74.3371L352.463 74.3522L352.472 74.367L353.334 73.86ZM353.334 98.36L352.454 97.8845L352.449 97.8932L353.334 98.36ZM345.774 105.92L346.21 106.82L346.221 106.815L346.231 106.809L345.774 105.92ZM297.868 101.575C296.434 100.669 295.674 99.2468 295.674 97.1H293.674C293.674 99.8065 294.687 101.931 296.8 103.265L297.868 101.575ZM295.674 97.1C295.674 96.1061 296.045 94.7373 296.905 92.9485C297.758 91.1759 299.052 89.0693 300.807 86.6227L299.181 85.4573C297.389 87.9573 296.023 90.1674 295.103 92.0815C294.19 93.9793 293.674 95.6672 293.674 97.1H295.674ZM300.833 86.5833C301.639 85.3376 302.92 84.66 304.894 84.66V82.66C302.388 82.66 300.402 83.5691 299.154 85.4967L300.833 86.5833ZM304.894 84.66C306.944 84.66 309.875 85.7053 313.762 88.0193L314.785 86.3007C310.833 83.948 307.51 82.66 304.894 82.66V84.66ZM313.778 88.0282C317.789 90.3201 321.508 91.52 324.914 91.52V89.52C321.973 89.52 318.599 88.4799 314.77 86.2918L313.778 88.0282ZM324.914 91.52C327.797 91.52 330.084 91.2405 331.685 90.6106C332.494 90.2924 333.187 89.8619 333.683 89.2764C334.195 88.6724 334.454 87.9522 334.454 87.16H332.454C332.454 87.4878 332.357 87.7476 332.157 87.9836C331.941 88.2381 331.567 88.5076 330.953 88.7494C329.707 89.2395 327.724 89.52 324.914 89.52V91.52ZM334.454 87.16C334.454 86.3881 334.103 85.7306 333.569 85.2051C333.052 84.6953 332.337 84.2793 331.494 83.9273C329.808 83.2227 327.36 82.6724 324.207 82.2489L323.941 84.2311C327.041 84.6476 329.283 85.1706 330.723 85.7727C331.444 86.074 331.902 86.3697 332.166 86.6299C332.414 86.8744 332.454 87.0452 332.454 87.16H334.454ZM324.215 82.25C318.488 81.4319 312.783 79.2929 307.096 75.8074L306.051 77.5126C311.938 81.1205 317.899 83.3681 323.932 84.2299L324.215 82.25ZM307.101 75.8104C304.586 74.2493 302.459 71.7942 300.748 68.3728L298.959 69.2672C300.795 72.9391 303.148 75.7107 306.046 77.5096L307.101 75.8104ZM300.753 68.382C299.059 64.9054 298.194 60.768 298.194 55.94H296.194C296.194 61.0054 297.102 65.4546 298.955 69.258L300.753 68.382ZM298.194 55.94C298.194 48.822 300.621 43.6219 305.377 40.1584C310.193 36.652 317.539 34.82 327.574 34.82V32.82C317.356 32.82 309.511 34.6747 304.2 38.5416C298.83 42.4514 296.194 48.3114 296.194 55.94H298.194ZM327.574 34.82C334.037 34.82 340.71 36.3669 347.601 39.4908L348.427 37.6692C341.318 34.4464 334.364 32.82 327.574 32.82V34.82ZM347.598 39.4895C350.746 40.9283 351.914 42.5379 351.914 44.18H353.914C353.914 41.3421 351.815 39.2183 348.43 37.6705L347.598 39.4895ZM351.914 44.18C351.914 46.1399 351.004 48.6991 348.987 51.9078L350.68 52.9722C352.77 49.6475 353.914 46.7001 353.914 44.18H351.914ZM348.987 51.9078C346.973 55.1124 345.133 56.34 343.534 56.34V58.34C346.228 58.34 348.588 56.3009 350.68 52.9722L348.987 51.9078ZM343.534 56.34C343.141 56.34 342.462 56.2088 341.435 55.8663C340.431 55.5315 339.171 55.0219 337.648 54.3296L336.82 56.1504C338.377 56.8581 339.707 57.3985 340.803 57.7637C341.875 58.1212 342.806 58.34 343.534 58.34V56.34ZM337.658 54.3345C334.529 52.8677 331.116 52.14 327.434 52.14V54.14C330.845 54.14 333.965 54.8123 336.809 56.1455L337.658 54.3345ZM327.434 52.14C324.647 52.14 322.437 52.396 320.889 52.973C320.109 53.2639 319.433 53.6598 318.945 54.206C318.438 54.7731 318.174 55.4592 318.174 56.22H320.174C320.174 55.9542 320.254 55.7419 320.436 55.539C320.636 55.3152 320.992 55.0694 321.588 54.847C322.794 54.3973 324.714 54.14 327.434 54.14V52.14ZM318.174 56.22C318.174 58.0887 319.268 59.5269 321.056 60.5525C322.811 61.5585 325.342 62.2452 328.563 62.6713L328.825 60.6886C325.699 60.2748 323.47 59.6315 322.051 58.8175C320.666 58.0231 320.174 57.1513 320.174 56.22H318.174ZM328.588 62.6744C334.624 63.3146 340.482 65.0522 346.167 67.8944L347.061 66.1056C341.172 63.1611 335.084 61.3521 328.799 60.6856L328.588 62.6744ZM346.179 67.9006C348.656 69.0964 350.758 71.2104 352.455 74.3371L354.213 73.3829C352.363 69.9762 349.985 67.5169 347.049 66.0994L346.179 67.9006ZM352.472 74.367C354.224 77.3452 355.134 81.1698 355.134 85.9H357.134C357.134 80.9235 356.177 76.7214 354.196 73.353L352.472 74.367ZM355.134 85.9C355.134 90.626 354.225 94.6078 352.454 97.8845L354.214 98.8355C356.176 95.2055 357.134 90.8807 357.134 85.9H355.134ZM352.449 97.8932C350.768 101.079 348.394 103.448 345.316 105.031L346.231 106.809C349.687 105.032 352.353 102.361 354.218 98.8268L352.449 97.8932ZM345.338 105.02C339.541 107.828 332.188 109.26 323.234 109.26V111.26C332.386 111.26 340.06 109.799 346.21 106.82L345.338 105.02ZM323.234 109.26C314.48 109.26 306.029 106.71 297.866 101.574L296.801 103.266C305.252 108.583 314.068 111.26 323.234 111.26V109.26ZM479.22 91.64L480.143 91.2554L480.139 91.2454L480.135 91.2355L479.22 91.64ZM472.64 107.88L472.253 106.958L472.246 106.961L472.239 106.964L472.64 107.88ZM460.88 108.58L460.24 109.348L460.274 109.377L460.311 109.402L460.88 108.58ZM458.36 105.78L457.475 106.246L457.488 106.271L457.503 106.294L458.36 105.78ZM447.44 80.44L448.362 80.053L448.086 79.3962L447.376 79.4421L447.44 80.44ZM443.1 80.72V81.72H443.132L443.164 81.7179L443.1 80.72ZM425.46 80.72V79.72H424.46V80.72H425.46ZM425.18 101.44L424.194 101.276L424.188 101.312L424.184 101.349L425.18 101.44ZM423.92 105.08L423.038 104.609L423.032 104.62L423.92 105.08ZM401.52 103.68L402.471 103.371L402.467 103.359L402.463 103.347L401.52 103.68ZM400.82 13.94L399.834 13.7756L399.828 13.8124L399.824 13.8495L400.82 13.94ZM402.22 10.16L403.102 10.6306L403.108 10.6203L402.22 10.16ZM467.32 15.34L467.933 14.5496L467.931 14.5481L467.32 15.34ZM476.56 27.1L475.662 27.5404L476.56 27.1ZM469.7 69.66L469.003 68.9434L468.516 69.4167L468.776 70.0434L469.7 69.66ZM425.46 55.94H424.46V56.94H425.46V55.94ZM451.5 52.86L450.896 52.0633L451.5 52.86ZM451.5 34.38L450.879 35.1635L450.887 35.1702L450.896 35.1767L451.5 34.38ZM425.46 31.16V30.16H424.46V31.16H425.46ZM478.297 92.0246C479.699 95.3892 480.32 97.6484 480.32 98.92H482.32C482.32 97.205 481.541 94.6108 480.143 91.2554L478.297 92.0246ZM480.32 98.92C480.32 101.813 477.974 104.559 472.253 106.958L473.027 108.802C478.88 106.348 482.32 103.12 482.32 98.92H480.32ZM472.239 106.964C469.299 108.25 467.022 108.84 465.36 108.84V110.84C467.432 110.84 470.008 110.123 473.041 108.796L472.239 106.964ZM465.36 108.84C463.748 108.84 462.464 108.46 461.449 107.758L460.311 109.402C461.723 110.38 463.425 110.84 465.36 110.84V108.84ZM461.52 107.812C460.459 106.927 459.704 106.076 459.218 105.266L457.503 106.294C458.136 107.35 459.061 108.366 460.24 109.348L461.52 107.812ZM459.245 105.314C458.338 103.591 454.722 95.2045 448.362 80.053L446.518 80.827C452.851 95.9155 456.515 104.422 457.475 106.246L459.245 105.314ZM447.376 79.4421L443.036 79.7221L443.164 81.7179L447.504 81.4379L447.376 79.4421ZM443.1 79.72H425.46V81.72H443.1V79.72ZM424.46 80.72V96.54H426.46V80.72H424.46ZM424.46 96.54C424.46 98.6709 424.367 100.238 424.194 101.276L426.166 101.604C426.367 100.402 426.46 98.7024 426.46 96.54H424.46ZM424.184 101.349C424.108 102.191 423.752 103.27 423.038 104.609L424.802 105.551C425.582 104.09 426.066 102.742 426.176 101.531L424.184 101.349ZM423.032 104.62C422.534 105.581 421.549 106.393 419.883 106.97C418.21 107.549 415.93 107.86 413 107.86V109.86C416.044 109.86 418.571 109.541 420.537 108.86C422.511 108.177 424 107.099 424.808 105.54L423.032 104.62ZM413 107.86C406.518 107.86 403.369 106.139 402.471 103.371L400.569 103.989C401.911 108.128 406.416 109.86 413 109.86V107.86ZM402.463 103.347C401.962 101.926 401.68 99.6392 401.68 96.4H399.68C399.68 99.6941 399.959 102.261 400.577 104.013L402.463 103.347ZM401.68 96.4V18.7H399.68V96.4H401.68ZM401.68 18.7C401.68 16.5586 401.727 15.0096 401.816 14.0305L399.824 13.8495C399.727 14.9237 399.68 16.5481 399.68 18.7H401.68ZM401.806 14.1044C401.97 13.1246 402.388 11.9699 403.102 10.6306L401.338 9.68941C400.559 11.1501 400.044 12.5154 399.834 13.7756L401.806 14.1044ZM403.108 10.6203C403.606 9.65876 404.591 8.84666 406.257 8.26998C407.931 7.69072 410.21 7.37999 413.14 7.37999V5.37999C410.096 5.37999 407.57 5.69927 405.603 6.38001C403.629 7.06334 402.14 8.14124 401.332 9.69968L403.108 10.6203ZM413.14 7.37999H443.38V5.37999H413.14V7.37999ZM443.38 7.37999C451.332 7.37999 459.103 10.2668 466.709 16.1319L467.931 14.5481C460.044 8.46649 451.854 5.37999 443.38 5.37999V7.37999ZM466.708 16.1304C470.302 18.916 473.292 22.7079 475.662 27.5404L477.458 26.6596C474.975 21.5987 471.805 17.5507 467.933 14.5496L466.708 16.1304ZM475.662 27.5404C478.015 32.3366 479.2 37.6904 479.2 43.62H481.2C481.2 37.4163 479.958 31.7567 477.458 26.6596L475.662 27.5404ZM479.2 43.62C479.2 53.9206 475.793 62.3343 469.003 68.9434L470.398 70.3766C477.607 63.359 481.2 54.4127 481.2 43.62H479.2ZM468.776 70.0434C470.834 75.001 474.011 82.3362 478.306 92.0445L480.135 91.2355C475.842 81.5305 472.672 74.2123 470.624 69.2766L468.776 70.0434ZM425.46 56.94H443.38V54.94H425.46V56.94ZM443.38 56.94C446.355 56.94 449.269 55.8078 452.104 53.6567L450.896 52.0633C448.318 54.0189 445.818 54.94 443.38 54.94V56.94ZM452.104 53.6567C455.113 51.3741 456.56 47.9664 456.56 43.62H454.56C454.56 47.4869 453.3 50.2392 450.896 52.0633L452.104 53.6567ZM456.56 43.62C456.56 39.2736 455.113 35.8659 452.104 33.5833L450.896 35.1767C453.3 37.0008 454.56 39.7531 454.56 43.62H456.56ZM452.121 33.5965C449.274 31.3378 446.261 30.16 443.1 30.16V32.16C445.726 32.16 448.313 33.1288 450.879 35.1635L452.121 33.5965ZM443.1 30.16H425.46V32.16H443.1V30.16ZM424.46 31.16V55.94H426.46V31.16H424.46ZM495.926 44.46L496.606 45.1928L495.926 44.46ZM549.546 44.46L548.861 45.1887L548.866 45.1931L549.546 44.46ZM555.146 92.76L555.976 93.3177L555.98 93.3117L555.146 92.76ZM540.446 106.06L540.887 106.957L540.893 106.954L540.446 106.06ZM504.746 105.78L504.276 106.663L504.287 106.669L504.746 105.78ZM490.046 92.34L489.21 92.8887L489.215 92.8962L489.22 92.9037L490.046 92.34ZM513.426 82.26L512.81 83.048L512.818 83.0541L512.826 83.06L513.426 82.26ZM531.766 82.12L531.162 81.3229L531.766 82.12ZM532.046 61.54L531.434 62.3307L532.046 61.54ZM513.286 61.68L512.658 60.9016L513.286 61.68ZM485.166 72.18C485.166 61.2434 488.981 52.2738 496.606 45.1928L495.246 43.7272C487.191 51.2062 483.166 60.7166 483.166 72.18H485.166ZM496.606 45.1928C504.274 38.073 512.995 34.54 522.806 34.54V32.54C512.457 32.54 503.258 36.287 495.246 43.7272L496.606 45.1928ZM522.806 34.54C532.617 34.54 541.289 38.0725 548.861 45.1887L550.231 43.7313C542.31 36.2875 533.155 32.54 522.806 32.54V34.54ZM548.866 45.1931C556.395 52.1782 560.166 61.0995 560.166 72.04H562.166C562.166 60.5805 558.19 51.1152 550.226 43.7269L548.866 45.1931ZM560.166 72.04C560.166 79.6038 558.21 86.3161 554.312 92.2083L555.98 93.3117C560.109 87.0706 562.166 79.9695 562.166 72.04H560.166ZM554.316 92.2023C550.388 98.0487 545.614 102.358 539.999 105.166L540.893 106.954C546.851 103.975 551.877 99.418 555.976 93.3177L554.316 92.2023ZM540.005 105.163C534.444 107.897 528.668 109.26 522.666 109.26V111.26C528.984 111.26 535.061 109.823 540.887 106.957L540.005 105.163ZM522.666 109.26C516.675 109.26 510.858 107.809 505.205 104.891L504.287 106.669C510.208 109.724 516.337 111.26 522.666 111.26V109.26ZM505.216 104.897C499.584 101.9 494.802 97.5344 490.872 91.7763L489.22 92.9037C493.317 98.9056 498.335 103.5 504.276 106.663L505.216 104.897ZM490.882 91.7913C487.074 85.9886 485.166 79.461 485.166 72.18H483.166C483.166 79.8324 485.178 86.7448 489.21 92.8887L490.882 91.7913ZM512.826 83.06C515.948 85.4016 519.187 86.62 522.526 86.62V84.62C519.705 84.62 516.877 83.5984 514.026 81.46L512.826 83.06ZM522.526 86.62C525.874 86.62 529.161 85.3481 532.37 82.9171L531.162 81.3229C528.211 83.5586 525.338 84.62 522.526 84.62V86.62ZM532.37 82.9171C535.747 80.3588 537.386 76.5816 537.386 71.76H535.386C535.386 76.085 533.945 79.2146 531.162 81.3229L532.37 82.9171ZM537.386 71.76C537.386 66.9625 535.857 63.2254 532.658 60.7493L531.434 62.3307C534.022 64.3346 535.386 67.4108 535.386 71.76H537.386ZM532.658 60.7493C529.606 58.3864 526.268 57.18 522.666 57.18V59.18C525.784 59.18 528.699 60.2136 531.434 62.3307L532.658 60.7493ZM522.666 57.18C519.053 57.18 515.709 58.4411 512.658 60.9016L513.914 62.4584C516.649 60.2523 519.559 59.18 522.666 59.18V57.18ZM512.658 60.9016C509.476 63.4682 507.946 67.2409 507.946 72.04H509.946C509.946 67.6924 511.31 64.5585 513.914 62.4584L512.658 60.9016ZM507.946 72.04C507.946 76.765 509.536 80.4896 512.81 83.048L514.042 81.472C511.343 79.3637 509.946 76.275 509.946 72.04H507.946ZM597.231 81.42L596.581 82.1793L596.589 82.1861L596.597 82.1927L597.231 81.42ZM613.751 82.12L614.306 82.9521L614.313 82.9475L613.751 82.12ZM630.271 86.88L631.055 86.2586L631.048 86.25L630.271 86.88ZM625.791 104.1L625.277 103.243L625.246 103.261L625.217 103.281L625.791 104.1ZM581.131 100.32L580.516 101.108L580.517 101.109L581.131 100.32ZM571.751 88.42L570.85 88.8538L570.854 88.8604L571.751 88.42ZM571.751 55.52L572.646 55.9672L572.649 55.9604L571.751 55.52ZM581.131 43.62L581.747 44.4083L581.754 44.4027L581.131 43.62ZM616.271 35.92L615.979 36.8764L615.991 36.8801L616.004 36.8835L616.271 35.92ZM623.691 38.72L624.221 37.872L624.21 37.8649L624.198 37.8581L623.691 38.72ZM625.931 40.12L626.486 39.2879L626.474 39.2798L626.461 39.272L625.931 40.12ZM629.851 42.78L630.461 41.9874L630.443 41.9737L630.425 41.9608L629.851 42.78ZM630.551 57.2L629.715 56.6513L629.715 56.6523L630.551 57.2ZM613.331 61.82L612.645 62.547L612.716 62.6144L612.799 62.6666L613.331 61.82ZM592.311 72.18C592.311 76.3467 593.713 79.7217 596.581 82.1793L597.882 80.6607C595.523 78.6383 594.311 75.8533 594.311 72.18H592.311ZM596.597 82.1927C599.357 84.4603 602.329 85.64 605.491 85.64V83.64C602.867 83.64 600.332 82.673 597.866 80.6473L596.597 82.1927ZM605.491 85.64C608.678 85.64 611.624 84.7399 614.306 82.952L613.197 81.2879C610.838 82.8601 608.278 83.64 605.491 83.64V85.64ZM614.313 82.9475C616.897 81.1942 618.783 80.46 620.051 80.46V78.46C618.147 78.46 615.833 79.4992 613.19 81.2925L614.313 82.9475ZM620.051 80.46C621.158 80.46 622.505 80.9525 624.119 82.1242C625.725 83.2906 627.518 85.0736 629.495 87.51L631.048 86.25C629.011 83.7398 627.094 81.8127 625.294 80.5058C623.501 79.2042 621.745 78.46 620.051 78.46V80.46ZM629.488 87.5014C631.574 90.1314 632.491 92.3401 632.491 94.16H634.491C634.491 91.6866 633.262 89.0419 631.055 86.2586L629.488 87.5014ZM632.491 94.16C632.491 97.1636 630.321 100.216 625.277 103.243L626.306 104.957C631.528 101.824 634.491 98.2497 634.491 94.16H632.491ZM625.217 103.281C620.095 106.875 613.773 108.7 606.191 108.7V110.7C614.103 110.7 620.847 108.791 626.366 104.919L625.217 103.281ZM606.191 108.7C597.771 108.7 589.628 105.672 581.746 99.5311L580.517 101.109C588.688 107.475 597.252 110.7 606.191 110.7V108.7ZM581.747 99.5317C578.054 96.65 575.018 92.8088 572.649 87.9796L570.854 88.8604C573.338 93.9245 576.555 98.0167 580.516 101.108L581.747 99.5317ZM572.652 87.9862C570.295 83.0906 569.111 77.7335 569.111 71.9H567.111C567.111 78.0131 568.354 83.6694 570.85 88.8538L572.652 87.9862ZM569.111 71.9C569.111 65.9701 570.296 60.666 572.646 55.9672L570.857 55.0728C568.353 60.0806 567.111 65.6966 567.111 71.9H569.111ZM572.649 55.9604C575.018 51.1312 578.054 47.29 581.747 44.4083L580.516 42.8317C576.555 45.9233 573.338 50.0155 570.854 55.0796L572.649 55.9604ZM581.754 44.4027C589.347 38.3644 597.393 35.38 605.911 35.38V33.38C596.883 33.38 588.409 36.5556 580.509 42.8373L581.754 44.4027ZM605.911 35.38C609.36 35.38 612.715 35.8789 615.979 36.8764L616.564 34.9636C613.108 33.9078 609.556 33.38 605.911 33.38V35.38ZM616.004 36.8835C619.34 37.8104 621.712 38.7161 623.184 39.5819L624.198 37.8581C622.497 36.8573 619.922 35.8963 616.539 34.9565L616.004 36.8835ZM623.161 39.568L625.401 40.968L626.461 39.272L624.221 37.872L623.161 39.568ZM625.377 40.952C627.054 42.0705 628.354 42.9523 629.278 43.5992L630.425 41.9608C629.482 41.301 628.168 40.4095 626.486 39.2879L625.377 40.952ZM629.242 43.5726C631.493 45.3045 632.491 47.1834 632.491 49.22H634.491C634.491 46.4032 633.063 43.9888 630.461 41.9874L629.242 43.5726ZM632.491 49.22C632.491 51.2804 631.621 53.7472 629.715 56.6513L631.387 57.7487C633.402 54.6794 634.491 51.8262 634.491 49.22H632.491ZM629.715 56.6523C628.067 59.1692 626.49 60.9999 624.993 62.193C623.5 63.3827 622.139 63.9 620.891 63.9V65.9C622.724 65.9 624.512 65.1339 626.24 63.757C627.963 62.3834 629.675 60.3641 631.388 57.7477L629.715 56.6523ZM620.891 63.9C619.426 63.9 617.118 63.0193 613.864 60.9734L612.799 62.6666C616.078 64.7274 618.81 65.9 620.891 65.9V63.9ZM614.018 61.093C612.092 59.2744 609.383 58.44 606.051 58.44V60.44C609.066 60.44 611.21 61.1923 612.645 62.547L614.018 61.093ZM606.051 58.44C602.706 58.44 599.593 59.6633 596.734 62.0296L598.009 63.5704C600.563 61.4567 603.237 60.44 606.051 60.44V58.44ZM596.734 62.0296C593.763 64.4879 592.311 67.9163 592.311 72.18H594.311C594.311 68.4171 595.566 65.592 598.009 63.5704L596.734 62.0296ZM685.936 72.04L685.289 71.2775L684.378 72.0498L685.298 72.8106L685.936 72.04ZM704.556 87.44L705.199 86.6743L705.193 86.6694L704.556 87.44ZM708.896 91.92L708.018 92.3988L708.034 92.4284L708.052 92.4569L708.896 91.92ZM705.536 103.96L706.313 104.589L706.323 104.576L706.333 104.563L705.536 103.96ZM688.596 105.78L689.192 104.978L689.181 104.969L689.169 104.961L688.596 105.78ZM687.196 104.8L686.559 105.571L686.589 105.596L686.622 105.619L687.196 104.8ZM677.256 95.56L676.548 96.2671L676.556 96.2745L677.256 95.56ZM667.036 86.04L667.66 85.2591L666.036 83.9594V86.04H667.036ZM666.756 101.72L665.769 101.556L665.763 101.592L665.76 101.629L666.756 101.72ZM665.496 105.36L664.613 104.889L664.607 104.901L664.601 104.913L665.496 105.36ZM643.936 105.22L643.029 105.643L643.038 105.662L643.048 105.68L643.936 105.22ZM642.676 101.58L641.679 101.663L641.683 101.711L641.692 101.759L642.676 101.58ZM642.676 8.06L641.689 7.8956L641.683 7.93235L641.68 7.96946L642.676 8.06ZM643.936 4.28L643.048 3.81968L643.038 3.8382L643.029 3.85711L643.936 4.28ZM664.376 2.88L663.728 3.64194L663.734 3.64698L663.74 3.65193L664.376 2.88ZM666.896 9.03999L665.896 9.07331L665.897 9.11197L665.902 9.15042L666.896 9.03999ZM667.036 57.34H666.036V59.475L667.676 58.1082L667.036 57.34ZM674.596 50.2L673.898 49.4832L673.888 49.4929L674.596 50.2ZM682.296 43.06L681.741 42.228L681.696 42.2576L681.655 42.2918L682.296 43.06ZM683.976 41.94L684.53 42.772L684.559 42.7529L684.586 42.7318L683.976 41.94ZM700.356 43.9L699.567 44.5153L699.576 44.5259L699.584 44.5364L700.356 43.9ZM699.796 60.28L699.153 59.5135L699.149 59.5175L699.796 60.28ZM685.298 72.8106L703.918 88.2106L705.193 86.6694L686.573 71.2694L685.298 72.8106ZM703.912 88.2057C706.257 90.1748 707.56 91.5591 708.018 92.3988L709.773 91.4411C709.111 90.2275 707.521 88.6252 705.199 86.6743L703.912 88.2057ZM708.052 92.4569C708.634 93.371 708.876 94.1666 708.876 94.86H710.876C710.876 93.6867 710.464 92.5223 709.739 91.3831L708.052 92.4569ZM708.876 94.86C708.876 95.7754 708.576 96.9409 707.888 98.3845C707.203 99.8205 706.16 101.477 704.738 103.357L706.333 104.563C707.805 102.617 708.931 100.843 709.693 99.2455C710.451 97.6557 710.876 96.1846 710.876 94.86H708.876ZM704.758 103.331C703.205 105.249 701.779 106.643 700.482 107.551C699.184 108.46 698.075 108.84 697.136 108.84V110.84C698.622 110.84 700.127 110.24 701.629 109.189C703.132 108.137 704.693 106.591 706.313 104.589L704.758 103.331ZM697.136 108.84C696.316 108.84 695.244 108.566 693.89 107.922C692.545 107.282 690.981 106.307 689.192 104.978L687.999 106.582C689.851 107.959 691.529 109.014 693.031 109.728C694.524 110.438 695.902 110.84 697.136 110.84V108.84ZM689.169 104.961L687.769 103.981L686.622 105.619L688.022 106.599L689.169 104.961ZM687.832 104.029C685.721 102.285 682.434 99.2306 677.955 94.8455L676.556 96.2745C681.038 100.663 684.377 103.769 686.559 105.571L687.832 104.029ZM677.963 94.8529C673.479 90.3689 670.039 87.1625 667.66 85.2591L666.411 86.8209C668.698 88.6509 672.072 91.7911 676.548 96.2671L677.963 94.8529ZM666.036 86.04V96.82H668.036V86.04H666.036ZM666.036 96.82C666.036 98.9509 665.942 100.518 665.769 101.556L667.742 101.884C667.942 100.682 668.036 98.9824 668.036 96.82H666.036ZM665.76 101.629C665.683 102.471 665.327 103.55 664.613 104.889L666.378 105.831C667.157 104.37 667.641 103.022 667.751 101.811L665.76 101.629ZM664.601 104.913C664.153 105.809 663.218 106.586 661.571 107.143C659.919 107.7 657.648 108 654.716 108V110C657.756 110 660.269 109.693 662.21 109.037C664.156 108.38 665.625 107.337 666.39 105.807L664.601 104.913ZM654.716 108C651.834 108 649.59 107.689 647.941 107.111C646.301 106.536 645.324 105.725 644.823 104.76L643.048 105.68C643.854 107.235 645.326 108.314 647.28 108.999C649.224 109.68 651.717 110 654.716 110V108ZM644.842 104.797C644.209 103.441 643.825 102.314 643.659 101.401L641.692 101.759C641.899 102.9 642.355 104.199 643.029 105.643L644.842 104.797ZM643.672 101.497C643.582 100.419 643.536 98.819 643.536 96.68H641.536C641.536 98.8343 641.582 100.501 641.679 101.663L643.672 101.497ZM643.536 96.68V12.82H641.536V96.68H643.536ZM643.536 12.82C643.536 10.6786 643.582 9.12964 643.671 8.15053L641.68 7.96946C641.582 9.04368 641.536 10.6681 641.536 12.82H643.536ZM643.662 8.2244C643.829 7.21937 644.214 6.04813 644.842 4.70288L643.029 3.85711C642.35 5.31186 641.895 6.66062 641.689 7.8956L643.662 8.2244ZM644.823 4.74031C645.322 3.77876 646.307 2.96666 647.973 2.38998C649.646 1.81072 651.926 1.49999 654.856 1.49999V-0.500006C651.812 -0.500006 649.285 -0.180729 647.318 0.50001C645.344 1.18334 643.856 2.26124 643.048 3.81968L644.823 4.74031ZM654.856 1.49999C659.273 1.49999 662.141 2.29306 663.728 3.64194L665.023 2.11806C662.877 0.293596 659.399 -0.500006 654.856 -0.500006V1.49999ZM663.74 3.65193C665.033 4.71659 665.809 6.45134 665.896 9.07331L667.895 9.00668C667.796 6.02865 666.892 3.65673 665.011 2.10807L663.74 3.65193ZM665.902 9.15042C665.989 9.93232 666.036 11.1927 666.036 12.96H668.036C668.036 11.1806 667.989 9.82767 667.889 8.92956L665.902 9.15042ZM666.036 12.96V57.34H668.036V12.96H666.036ZM667.676 58.1082C669.393 56.6772 671.94 54.2697 675.303 50.9071L673.888 49.4929C670.531 52.8503 668.038 55.2028 666.395 56.5718L667.676 58.1082ZM675.293 50.9167C678.744 47.5586 681.287 45.2018 682.936 43.8282L681.655 42.2918C679.944 43.7182 677.354 46.1214 673.898 49.4833L675.293 50.9167ZM682.85 43.8921L684.53 42.772L683.421 41.1079L681.741 42.228L682.85 43.8921ZM684.586 42.7318C687.798 40.2545 690.378 39.16 692.376 39.16V37.16C689.707 37.16 686.687 38.5855 683.365 41.1482L684.586 42.7318ZM692.376 39.16C693.263 39.16 694.31 39.5245 695.537 40.4068C696.762 41.2883 698.107 42.6445 699.567 44.5153L701.144 43.2847C699.617 41.3289 698.139 39.8151 696.704 38.7832C695.271 37.7521 693.821 37.16 692.376 37.16V39.16ZM699.584 44.5364C701.098 46.3716 702.208 47.9811 702.935 49.369C703.667 50.7668 703.976 51.8729 703.976 52.72H705.976C705.976 51.4204 705.514 49.9832 704.706 48.441C703.893 46.8889 702.693 45.1617 701.127 43.2636L699.584 44.5364ZM703.976 52.72C703.976 53.5228 703.651 54.4936 702.856 55.6548C702.062 56.8133 700.84 58.1004 699.153 59.5135L700.438 61.0465C702.204 59.5663 703.573 58.1467 704.505 56.7852C705.437 55.4264 705.976 54.0639 705.976 52.72H703.976ZM699.149 59.5175L685.289 71.2775L686.583 72.8025L700.443 61.0425L699.149 59.5175ZM780.136 76.1L780.831 76.819L780.831 76.8186L780.136 76.1ZM737.576 80.16V79.16H736.576V80.16H737.576ZM742.196 86.74L742.695 85.8734L742.196 86.74ZM764.176 87.72L763.834 86.7802L764.176 87.72ZM765.716 87.16L766.058 88.0998L766.096 88.0859L766.133 88.0691L765.716 87.16ZM779.016 91.92L779.917 91.4862L779.912 91.4755L779.906 91.4649L779.016 91.92ZM732.536 107.32L732.121 108.23L732.13 108.234L732.14 108.238L732.536 107.32ZM720.076 97.8L720.871 97.1939L720.865 97.1861L720.076 97.8ZM722.596 44.32L723.275 45.0538L723.276 45.0534L722.596 44.32ZM779.716 47.4L780.553 46.8527L780.549 46.8473L779.716 47.4ZM757.736 57.76L757.1 58.5319L757.111 58.5408L757.122 58.5493L757.736 57.76ZM741.776 59.58L742.406 60.3561L742.414 60.3503L742.421 60.3443L741.776 59.58ZM737.296 67.42H736.296V68.42H737.296V67.42ZM783.476 63.36C783.476 68.8964 782.07 72.8365 779.44 75.3814L780.831 76.8186C783.988 73.7635 785.476 69.2103 785.476 63.36H783.476ZM779.441 75.381C776.801 77.9324 773.916 79.16 770.756 79.16V81.16C774.502 81.16 777.87 79.6809 780.831 76.819L779.441 75.381ZM770.756 79.16H737.576V81.16H770.756V79.16ZM736.576 80.16C736.576 83.256 738.433 85.7275 741.697 87.6066L742.695 85.8734C739.799 84.2059 738.576 82.2906 738.576 80.16H736.576ZM741.697 87.6066C744.905 89.4537 748.155 90.4 751.436 90.4V88.4C748.556 88.4 745.647 87.5729 742.695 85.8734L741.697 87.6066ZM751.436 90.4C756.9 90.4 761.28 89.8372 764.518 88.6598L763.834 86.7802C760.912 87.8428 756.798 88.4 751.436 88.4V90.4ZM764.518 88.6598L766.058 88.0998L765.374 86.2202L763.834 86.7802L764.518 88.6598ZM766.133 88.0691C768.316 87.0682 770.03 86.62 771.316 86.62V84.62C769.615 84.62 767.595 85.1985 765.299 86.2509L766.133 88.0691ZM771.316 86.62C773.738 86.62 776.042 88.2989 778.125 92.3751L779.906 91.4649C777.696 87.1412 774.867 84.62 771.316 84.62V86.62ZM778.115 92.3538C779.297 94.8084 779.836 96.7989 779.836 98.36H781.836C781.836 96.3745 781.162 94.0716 779.917 91.4862L778.115 92.3538ZM779.836 98.36C779.836 100.22 779.285 101.815 778.19 103.188C777.083 104.576 775.378 105.787 772.995 106.782C768.211 108.781 760.916 109.82 751.016 109.82V111.82C760.995 111.82 768.611 110.782 773.766 108.628C776.354 107.546 778.376 106.162 779.754 104.435C781.144 102.692 781.836 100.653 781.836 98.36H779.836ZM751.016 109.82C744.222 109.82 738.2 108.673 732.932 106.402L732.14 108.238C737.698 110.634 743.996 111.82 751.016 111.82V109.82ZM732.951 106.41C727.753 104.039 723.741 100.961 720.871 97.194L719.28 98.406C722.384 102.479 726.679 105.748 732.121 108.23L732.951 106.41ZM720.865 97.1861C715.118 89.7966 712.256 81.5648 712.256 72.46H710.256C710.256 82.0219 713.274 90.6834 719.286 98.4139L720.865 97.1861ZM712.256 72.46C712.256 60.9352 715.949 51.8369 723.275 45.0538L721.916 43.5862C714.122 50.8031 710.256 60.4648 710.256 72.46H712.256ZM723.276 45.0534C730.727 38.1477 739.996 34.68 751.156 34.68V32.68C739.542 32.68 729.772 36.3056 721.916 43.5866L723.276 45.0534ZM751.156 34.68C763.865 34.68 773.037 39.1394 778.883 47.9527L780.549 46.8473C774.261 37.3672 764.394 32.68 751.156 32.68V34.68ZM778.879 47.9472C781.946 52.6382 783.476 57.7682 783.476 63.36H785.476C785.476 57.3785 783.832 51.8684 780.553 46.8527L778.879 47.9472ZM754.936 68.42C756.825 68.42 758.429 68.0258 759.57 67.0649C760.744 66.0763 761.256 64.6368 761.256 62.94H759.256C759.256 64.2298 758.881 65.0304 758.282 65.5351C757.649 66.0675 756.593 66.42 754.936 66.42V68.42ZM761.256 62.94C761.256 60.4879 760.276 58.4687 758.35 56.9706L757.122 58.5493C758.556 59.6646 759.256 61.0988 759.256 62.94H761.256ZM758.372 56.9881C756.536 55.4761 753.937 54.8 750.736 54.8V56.8C753.695 56.8 755.763 57.4306 757.1 58.5319L758.372 56.9881ZM750.736 54.8C747.449 54.8 744.242 56.1911 741.131 58.8157L742.421 60.3443C745.283 57.9289 748.05 56.8 750.736 56.8V54.8ZM741.145 58.8039C738.017 61.3453 736.296 64.2171 736.296 67.42H738.296C738.296 65.0229 739.561 62.6681 742.406 60.3561L741.145 58.8039ZM737.296 68.42H754.936V66.42H737.296V68.42ZM835.083 60L835.021 60.9981L835.052 61H835.083V60ZM825.983 59.44L826.044 58.4419L824.983 58.3766V59.44H825.983ZM827.103 84.22L826.271 84.7747L826.286 84.7978L826.303 84.82L827.103 84.22ZM836.623 86.18L836.458 87.1664L836.502 87.1737L836.546 87.1771L836.623 86.18ZM840.403 87.44L839.906 88.3083L839.911 88.3106L840.403 87.44ZM839.703 107.6L840.125 108.506L840.138 108.5L840.15 108.494L839.703 107.6ZM835.923 108.86L836.013 109.856L836.05 109.853L836.087 109.846L835.923 108.86ZM809.183 102.42L809.839 101.666L809.183 102.42ZM801.623 59.44H802.623V58.2697L801.467 58.4522L801.623 59.44ZM790.703 57.48L789.931 58.1157L789.941 58.1288L789.953 58.1416L790.703 57.48ZM789.443 41.1L790.406 41.3677L790.41 41.3545L789.443 41.1ZM791.403 37.32L790.772 36.5439L790.755 36.5579L790.738 36.5726L791.403 37.32ZM797.003 35.5L797.123 34.5073L797.063 34.5H797.003V35.5ZM801.623 36.06L801.502 37.0527L802.623 37.1885V36.06H801.623ZM801.763 16.88L800.779 16.7011L800.771 16.745L800.767 16.7895L801.763 16.88ZM803.163 13.52L804.014 14.0441L804.033 14.0134L804.05 13.9813L803.163 13.52ZM825.283 15.2L826.237 14.9017L826.232 14.885L826.226 14.8685L825.283 15.2ZM825.983 36.06H824.983V37.155L826.073 37.0559L825.983 36.06ZM839.983 35.78L839.804 36.7639L839.851 36.7725L839.9 36.7765L839.983 35.78ZM843.763 37.04L843.292 37.9224L843.304 37.9285L843.315 37.9344L843.763 37.04ZM843.623 58.6L844.045 59.5062L844.064 59.4974L844.083 59.4878L843.623 58.6ZM839.843 59.86L839.933 60.8559L839.97 60.8525L840.007 60.8464L839.843 59.86ZM835.144 59.0019L826.044 58.4419L825.921 60.4381L835.021 60.9981L835.144 59.0019ZM824.983 59.44V78.76H826.983V59.44H824.983ZM824.983 78.76C824.983 81.3306 825.354 83.4004 826.271 84.7747L827.935 83.6653C827.357 82.7996 826.983 81.2294 826.983 78.76H824.983ZM826.303 84.82C827.415 86.3035 829.294 86.9 831.583 86.9V84.9C829.578 84.9 828.47 84.3765 827.903 83.62L826.303 84.82ZM831.583 86.9C833.81 86.9 835.422 86.9938 836.458 87.1664L836.787 85.1936C835.583 84.9929 833.836 84.9 831.583 84.9V86.9ZM836.546 87.1771C837.581 87.2567 838.699 87.618 839.906 88.3082L840.899 86.5718C839.493 85.7686 838.091 85.29 836.699 85.1829L836.546 87.1771ZM839.911 88.3106C840.707 88.761 841.387 89.6079 841.872 91.0197C842.359 92.4388 842.623 94.3588 842.623 96.82H844.623C844.623 94.2412 844.35 92.0778 843.763 90.3703C843.175 88.6555 842.244 87.3323 840.895 86.5694L839.911 88.3106ZM842.623 96.82C842.623 99.6993 842.301 101.939 841.703 103.583C841.109 105.216 840.269 106.199 839.255 106.706L840.15 108.494C841.749 107.695 842.869 106.227 843.582 104.267C844.291 102.318 844.623 99.8207 844.623 96.82H842.623ZM839.28 106.694C837.934 107.322 836.763 107.706 835.758 107.874L836.087 109.846C837.322 109.641 838.671 109.185 840.125 108.506L839.28 106.694ZM835.832 107.864C834.852 107.953 833.349 108 831.303 108V110C833.363 110 834.94 109.953 836.013 109.856L835.832 107.864ZM831.303 108C821.73 108 814.63 105.835 809.839 101.666L808.526 103.174C813.815 107.778 821.462 110 831.303 110V108ZM809.839 101.666C805.115 97.5543 802.623 90.4862 802.623 80.16H800.623C800.623 90.7405 803.17 98.5123 808.526 103.174L809.839 101.666ZM802.623 80.16V59.44H800.623V80.16H802.623ZM801.467 58.4522C799.752 58.723 797.891 58.86 795.883 58.86V60.86C797.981 60.86 799.947 60.717 801.779 60.4278L801.467 58.4522ZM795.883 58.86C794.126 58.86 792.669 58.1974 791.452 56.8184L789.953 58.1416C791.536 59.9359 793.532 60.86 795.883 60.86V58.86ZM791.474 56.8443C790.397 55.5365 789.743 53.1297 789.743 49.36H787.743C787.743 53.2436 788.394 56.2502 789.931 58.1157L791.474 56.8443ZM789.743 49.36C789.743 45.5425 789.979 42.9068 790.406 41.3676L788.479 40.8324C787.973 42.6532 787.743 45.5242 787.743 49.36H789.743ZM790.41 41.3545C790.855 39.6626 791.44 38.6243 792.067 38.0674L790.738 36.5726C789.685 37.5091 788.964 38.9907 788.476 40.8455L790.41 41.3545ZM792.033 38.0961C793.32 37.0507 794.953 36.5 797.003 36.5V34.5C794.572 34.5 792.472 35.1626 790.772 36.5439L792.033 38.0961ZM796.882 36.4927L801.502 37.0527L801.743 35.0673L797.123 34.5073L796.882 36.4927ZM802.623 36.06V21.64H800.623V36.06H802.623ZM802.623 21.64C802.623 19.4986 802.669 17.9496 802.758 16.9705L800.767 16.7895C800.669 17.8637 800.623 19.4881 800.623 21.64H802.623ZM802.746 17.0589C802.904 16.1903 803.31 15.1877 804.014 14.0441L802.311 12.9959C801.521 14.2789 800.994 15.5164 800.779 16.7011L802.746 17.0589ZM804.05 13.9813C804.491 13.1327 805.42 12.3839 807.076 11.8461C808.733 11.3083 811.007 11.02 813.943 11.02V9.02C810.905 9.02 808.396 9.31498 806.459 9.94387C804.522 10.5728 803.047 11.574 802.275 13.0586L804.05 13.9813ZM813.943 11.02C820.211 11.02 823.354 12.7284 824.339 15.5315L826.226 14.8685C824.784 10.7649 820.368 9.02 813.943 9.02V11.02ZM824.328 15.4983C824.747 16.8381 824.983 19.0893 824.983 22.34H826.983C826.983 19.0573 826.752 16.5486 826.237 14.9017L824.328 15.4983ZM824.983 22.34V36.06H826.983V22.34H824.983ZM826.073 37.0559C830.173 36.6831 833.216 36.5 835.223 36.5V34.5C833.122 34.5 830.005 34.6902 825.892 35.0641L826.073 37.0559ZM835.223 36.5C837.358 36.5 838.87 36.5941 839.804 36.7639L840.161 34.7961C839.042 34.5926 837.38 34.5 835.223 34.5V36.5ZM839.9 36.7765C840.84 36.8549 841.966 37.2152 843.292 37.9224L844.233 36.1576C842.759 35.3714 841.365 34.8917 840.066 34.7835L839.9 36.7765ZM843.315 37.9344C844.212 38.3828 844.989 39.3174 845.545 40.9649C846.103 42.6168 846.403 44.8871 846.403 47.82H848.403C848.403 44.7796 848.096 42.2665 847.44 40.3251C846.783 38.3793 845.74 36.9106 844.21 36.1456L843.315 37.9344ZM846.403 47.82C846.403 50.7018 846.092 52.9453 845.514 54.5941C844.939 56.2342 844.128 57.2115 843.162 57.7122L844.083 59.4878C845.637 58.6818 846.716 57.2091 847.401 55.2559C848.083 53.3114 848.403 50.8182 848.403 47.82H846.403ZM843.2 57.6938C841.854 58.3216 840.683 58.7061 839.678 58.8736L840.007 60.8464C841.242 60.6406 842.591 60.1851 844.045 59.5062L843.2 57.6938ZM839.752 58.8641C838.773 58.9531 837.224 59 835.083 59V61C837.234 61 838.859 60.9535 839.933 60.8559L839.752 58.8641Z" fill="black"/>
</g>
<defs>
<filter id="filter0_d_11_165" x="0.966797" y="0.5" width="850.436" height="118.32" filterUnits="userSpaceOnUse" color-interpolation-filters="sRGB">
<feFlood flood-opacity="0" result="BackgroundImageFix"/>
<feColorMatrix in="SourceAlpha" type="matrix" values="0 0 0 0 0 0 0 0 0 0 0 0 0 0 0 0 0 0 127 0" result="hardAlpha"/>
<feOffset dy="4"/>
<feGaussianBlur stdDeviation="2"/>
<feComposite in2="hardAlpha" operator="out"/>
<feColorMatrix type="matrix" values="0 0 0 0 0 0 0 0 0 0 0 0 0 0 0 0 0 0 0.25 0"/>
<feBlend mode="normal" in2="BackgroundImageFix" result="effect1_dropShadow_11_165"/>
<feBlend mode="normal" in="SourceGraphic" in2="effect1_dropShadow_11_165" result="shape"/>
</filter>
</defs>
</svg>
