<svg width="76" height="24" viewBox="0 0 76 24" fill="none" xmlns="http://www.w3.org/2000/svg">
<g filter="url(#filter0_d_63_7)">
<path d="M4.96 6.192C4.96 3.78133 5.73867 2.08 7.296 1.088C8.11733 0.554666 9.12533 0.287999 10.32 0.287999C11.504 0.287999 12.6187 0.479999 13.664 0.863999C13.8027 0.917333 13.8773 0.943999 13.888 0.943999L13.424 2.352C13.4133 2.352 13.3387 2.336 13.2 2.304C13.072 2.26133 12.9387 2.224 12.8 2.192C12.672 2.14933 12.5013 2.10667 12.288 2.064C12.0747 2.02133 11.872 1.984 11.68 1.952C11.2533 1.86667 10.8 1.824 10.32 1.824C9.12533 1.824 8.25067 2.16 7.696 2.832C7.152 3.504 6.88 4.63467 6.88 6.224C6.88 8.02667 7.19467 9.232 7.824 9.84C8.144 10.1493 8.496 10.3627 8.88 10.48C9.264 10.5973 9.728 10.656 10.272 10.656C11.264 10.656 12.3147 10.4587 13.424 10.064L13.888 11.52L13.472 11.648C12.32 12.0107 11.136 12.192 9.92 12.192C8.33067 12.192 7.104 11.6853 6.24 10.672C5.38667 9.65867 4.96 8.16533 4.96 6.192ZM18.9913 3.264C20.0366 3.264 20.9006 3.632 21.5833 4.368C22.2659 5.09333 22.6073 6.16533 22.6073 7.584C22.6073 9.00267 22.2553 10.128 21.5513 10.96C20.8579 11.7813 19.8126 12.192 18.4153 12.192C17.3699 12.192 16.5059 11.824 15.8233 11.088C15.1406 10.3413 14.7993 9.25867 14.7993 7.84C14.7993 6.42133 15.1459 5.30667 15.8393 4.496C16.5433 3.67467 17.5939 3.264 18.9913 3.264ZM16.6233 7.856C16.6233 8.92267 16.7993 9.69067 17.1513 10.16C17.5139 10.6187 18.0526 10.848 18.7673 10.848C19.4819 10.848 19.9939 10.5707 20.3033 10.016C20.6233 9.46133 20.7833 8.65067 20.7833 7.584C20.7833 6.50667 20.6019 5.744 20.2393 5.296C19.8873 4.83733 19.3966 4.608 18.7673 4.608C17.9673 4.608 17.4073 4.88 17.0873 5.424C16.7779 5.968 16.6233 6.77867 16.6233 7.856ZM24.975 6.176C24.975 5.216 24.879 4.352 24.687 3.584L26.031 3.408L26.335 4.208C27.2417 3.57867 28.1697 3.264 29.119 3.264C30.079 3.264 30.783 3.57333 31.231 4.192C32.095 3.57333 33.0177 3.264 33.999 3.264C34.991 3.264 35.7057 3.52533 36.143 4.048C36.591 4.57067 36.815 5.35467 36.815 6.4V12H35.087V6.72C35.087 5.68533 34.8417 5.04 34.351 4.784C34.1377 4.66667 33.8657 4.608 33.535 4.608C32.9803 4.608 32.3617 4.848 31.679 5.328C31.743 5.65867 31.775 6.016 31.775 6.4V12H30.047V6.72C30.047 6.05867 29.9457 5.54133 29.743 5.168C29.5403 4.79467 29.1297 4.608 28.511 4.608C27.8923 4.608 27.2897 4.83733 26.703 5.296V12H24.975V6.176ZM45.2938 10.176L45.8858 11.264C45.7044 11.4347 45.3204 11.632 44.7338 11.856C44.1471 12.08 43.5178 12.192 42.8458 12.192C41.6511 12.192 40.6858 11.8293 39.9498 11.104C39.2244 10.3787 38.8618 9.29067 38.8618 7.84C38.8618 7.04 38.9898 6.336 39.2458 5.728C39.5018 5.10933 39.8324 4.62933 40.2378 4.288C41.0698 3.60533 41.9391 3.264 42.8458 3.264C43.7631 3.264 44.4884 3.49867 45.0218 3.968C45.5658 4.42667 45.8378 4.992 45.8378 5.664C45.8378 6.54933 45.4164 7.27467 44.5738 7.84C43.7311 8.39467 42.3818 8.672 40.5258 8.672C40.5258 9.16267 40.7284 9.648 41.1338 10.128C41.5498 10.608 42.1578 10.848 42.9578 10.848C43.7684 10.848 44.5471 10.624 45.2938 10.176ZM44.2858 5.808C44.2858 5.488 44.1631 5.21067 43.9178 4.976C43.6831 4.73067 43.3471 4.608 42.9098 4.608C42.2058 4.608 41.6244 4.87467 41.1658 5.408C40.7178 5.93067 40.4884 6.61867 40.4778 7.472C43.0164 7.472 44.2858 6.91733 44.2858 5.808ZM47.3461 7.824C47.3461 6.48 47.6981 5.38667 48.4021 4.544C49.1061 3.69067 50.0821 3.264 51.3301 3.264C52.3755 3.264 53.3355 3.488 54.2101 3.936L53.7301 5.104C53.0048 4.77333 52.3221 4.608 51.6821 4.608C50.8288 4.608 50.1941 4.89067 49.7781 5.456C49.3728 6.02133 49.1701 6.73067 49.1701 7.584C49.1701 9.76 50.0128 10.848 51.6981 10.848C52.3275 10.848 52.9835 10.6667 53.6661 10.304L54.2261 11.424C53.5755 11.84 52.7488 12.0907 51.7461 12.176L51.5861 12.896C52.2795 13.0133 52.6261 13.3653 52.6261 13.952C52.6261 14.304 52.5195 14.592 52.3061 14.816C51.9648 15.1787 51.5328 15.36 51.0101 15.36C50.4981 15.36 50.0501 15.2587 49.6661 15.056L49.9701 14.288C50.2155 14.384 50.4608 14.432 50.7061 14.432C51.1755 14.432 51.4101 14.272 51.4101 13.952C51.4101 13.6427 51.2341 13.488 50.8821 13.488C50.7435 13.488 50.6208 13.4987 50.5141 13.52C50.4181 13.5413 50.3541 13.552 50.3221 13.552L50.4981 12.128C49.4528 11.968 48.6635 11.488 48.1301 10.688C47.6075 9.888 47.3461 8.93333 47.3461 7.824ZM62.689 3.984V9.968C62.689 10.3413 62.7317 10.592 62.817 10.72C62.9023 10.8373 63.1103 10.896 63.441 10.896L63.505 11.904C63.2383 12 62.9557 12.048 62.657 12.048C61.825 12.048 61.329 11.6693 61.169 10.912C60.6037 11.7653 59.7663 12.192 58.657 12.192C57.5583 12.192 56.737 11.7813 56.193 10.96C55.6597 10.1387 55.393 9.08267 55.393 7.792C55.393 6.49067 55.761 5.41333 56.497 4.56C57.233 3.696 58.2197 3.264 59.457 3.264C59.9583 3.264 60.5397 3.344 61.201 3.504C61.873 3.65333 62.369 3.81333 62.689 3.984ZM57.217 7.92C57.217 8.95467 57.3717 9.70133 57.681 10.16C58.001 10.6187 58.4597 10.848 59.057 10.848C59.6543 10.848 60.1183 10.64 60.449 10.224C60.7903 9.79733 60.961 9.27467 60.961 8.656V4.816C60.545 4.67733 60.0703 4.608 59.537 4.608C58.7263 4.608 58.1343 4.90133 57.761 5.488C57.3983 6.07467 57.217 6.88533 57.217 7.92ZM65.8188 6.176C65.8188 5.216 65.7228 4.352 65.5308 3.584L66.8748 3.408L67.2748 4.448C67.9468 3.65867 68.7041 3.264 69.5468 3.264C70.1121 3.264 70.5494 3.39733 70.8588 3.664C71.1788 3.93067 71.3388 4.30933 71.3388 4.8C71.3388 5.29067 71.2588 5.72267 71.0988 6.096L69.7228 5.92C69.7228 5.44 69.6748 5.104 69.5788 4.912C69.4934 4.70933 69.3068 4.608 69.0188 4.608C68.7414 4.608 68.4641 4.72 68.1868 4.944C67.9201 5.168 67.7068 5.41867 67.5468 5.696V12H65.8188V6.176Z" fill="white"/>
</g>
<defs>
<filter id="filter0_d_63_7" x="0.960938" y="0.288086" width="74.377" height="23.0718" filterUnits="userSpaceOnUse" color-interpolation-filters="sRGB">
<feFlood flood-opacity="0" result="BackgroundImageFix"/>
<feColorMatrix in="SourceAlpha" type="matrix" values="0 0 0 0 0 0 0 0 0 0 0 0 0 0 0 0 0 0 127 0" result="hardAlpha"/>
<feOffset dy="4"/>
<feGaussianBlur stdDeviation="2"/>
<feComposite in2="hardAlpha" operator="out"/>
<feColorMatrix type="matrix" values="0 0 0 0 0 0 0 0 0 0 0 0 0 0 0 0 0 0 0.25 0"/>
<feBlend mode="normal" in2="BackgroundImageFix" result="effect1_dropShadow_63_7"/>
<feBlend mode="normal" in="SourceGraphic" in2="effect1_dropShadow_63_7" result="shape"/>
</filter>
</defs>
</svg>
