<svg xmlns="http://www.w3.org/2000/svg" version="1.0" width="4000.000000pt" height="4000.000000pt" viewBox="-3 -3 4006 4006" preserveAspectRatio="xMidYMid meet"><g id="deeditor_bgCarrier" stroke-width="0">
    <rect id="dee_c_e" x="-3" y="-3" width="4006" height="4006" rx="0" fill="#ffffff" strokewidth="0"/>
  </g>

<g transform="translate(0.000000,4000.000000) scale(0.100000,-0.100000)" fill="#000000" stroke="none">
<path d="M17135 34219 c-933 -72 -1839 -411 -2580 -969 -211 -159 -319 -253 -526 -460 -257 -257 -469 -514 -636 -771 -34 -54 -49 -69 -61 -64 -34 14 -289 18 -372 6 -267 -39 -506 -164 -693 -360 -74 -78 -161 -199 -205 -286 -47 -95 -86 -240 -196 -731 -125 -562 -141 -660 -126 -816 28 -292 141 -532 349 -738 138 -137 271 -220 449 -280 80 -27 87 -31 90 -57 2 -15 17 -109 34 -208 52 -311 152 -665 273 -970 59 -149 211 -465 294 -610 140 -246 370 -569 564 -794 l78 -90 -73 -37 c-40 -20 -132 -61 -204 -89 -467 -188 -822 -155 -1057 99 -49 52 -125 167 -156 233 l-24 51 46 74 c88 141 161 332 193 505 22 117 30 408 15 515 -62 434 -264 826 -611 1182 -162 166 -229 200 -384 195 l-71 -2 -12 159 c-55 736 -182 1255 -367 1500 -135 180 -329 244 -532 174 -174 -60 -302 -214 -368 -442 -72 -249 -83 -614 -32 -1034 l12 -102 -151 152 c-428 434 -773 647 -1044 646 -92 -1 -149 -13 -216 -46 -153 -78 -238 -216 -237 -389 1 -297 266 -715 791 -1247 91 -92 163 -169 160 -171 -100 -70 -167 -160 -194 -261 -26 -96 -17 -225 24 -335 l31 -85 -50 -100 c-60 -123 -80 -199 -80 -305 0 -134 54 -257 153 -348 30 -28 60 -74 99 -154 96 -196 254 -364 448 -479 86 -51 89 -54 94 -94 3 -23 12 -108 21 -191 59 -543 226 -1073 466 -1482 205 -347 489 -642 803 -834 96 -58 92 -48 76 -174 -20 -167 -40 -481 -50 -770 -29 -891 68 -1818 259 -2477 l19 -66 -46 -6 c-26 -3 -92 -8 -147 -11 -295 -18 -770 -91 -1050 -161 -87 -22 -577 -157 -2195 -604 -1401 -388 -1305 -356 -1415 -466 -105 -105 -165 -249 -165 -396 0 -86 68 -358 111 -448 64 -130 211 -247 356 -285 118 -31 178 -23 655 86 242 55 446 98 453 95 7 -2 32 -33 57 -68 57 -82 808 -1143 1401 -1981 l466 -658 -29 -67 c-26 -63 -51 -157 -65 -244 -4 -23 -10 -35 -18 -33 -7 3 -102 32 -212 66 -181 54 -209 60 -290 61 -137 0 -259 -46 -350 -132 l-30 -29 -55 36 c-213 138 -576 258 -900 298 -159 19 -476 20 -640 0 -814 -96 -1612 -481 -2450 -1184 -591 -496 -1182 -1143 -1829 -2001 -165 -219 -206 -325 -199 -504 9 -220 126 -405 317 -505 165 -85 656 -288 1016 -419 1542 -560 2836 -743 3835 -542 691 139 1221 460 1601 969 79 106 229 348 229 370 0 8 21 10 78 5 60 -4 94 -1 156 15 123 32 174 68 354 245 155 153 163 159 177 140 49 -71 105 -132 166 -182 63 -51 69 -59 64 -87 -3 -16 -34 -271 -70 -565 -36 -295 -103 -848 -150 -1230 -47 -382 -97 -789 -111 -905 -14 -115 -35 -291 -47 -390 l-22 -179 -370 -103 c-560 -154 -551 -151 -632 -205 -152 -102 -243 -274 -243 -459 0 -92 61 -351 104 -439 81 -169 238 -283 425 -310 108 -15 -123 -64 2001 420 1522 347 1573 358 1735 405 541 157 1115 406 1445 628 146 98 296 249 341 342 31 64 34 78 34 160 0 75 -4 98 -24 140 -55 111 -178 195 -353 240 -153 38 -274 49 -543 49 -322 -1 -611 -27 -984 -90 -79 -13 -145 -23 -146 -21 -1 1 211 387 472 857 260 470 474 859 476 864 1 5 108 1 242 -8 334 -23 706 -43 1070 -58 406 -16 1774 -16 2165 0 299 13 787 38 915 47 39 3 165 12 280 20 2337 167 4609 621 6875 1375 2866 952 5387 2303 7335 3930 664 555 1296 1186 1732 1730 619 774 951 1445 930 1885 -10 214 -102 380 -333 605 -594 577 -1856 1128 -3398 1486 -2303 533 -5021 607 -7811 213 -650 -92 -1366 -219 -1993 -354 l-203 -44 -66 56 c-273 231 -610 343 -1035 343 l-148 0 0 53 c-1 133 -64 299 -160 416 -28 35 -47 61 -42 57 5 -3 67 -15 138 -27 153 -25 433 -30 589 -10 550 69 1005 291 1395 681 347 346 626 821 818 1390 32 96 67 207 77 245 10 39 21 74 25 78 4 4 49 23 100 42 237 89 446 250 563 436 26 42 55 74 77 85 92 50 186 175 216 289 28 103 9 290 -41 408 -15 36 -15 39 9 70 35 47 82 144 101 212 27 91 18 212 -22 296 -17 37 -48 85 -68 108 -22 24 -34 45 -29 50 5 4 61 43 124 86 473 323 832 652 982 901 140 232 135 443 -14 600 -249 264 -683 180 -1343 -259 -66 -44 -146 -99 -177 -123 -32 -24 -58 -41 -58 -38 0 4 18 64 40 135 143 465 188 872 125 1121 -93 370 -459 540 -744 346 -110 -75 -237 -240 -341 -442 l-58 -111 -4 130 c-12 313 -122 566 -343 790 -150 152 -289 239 -475 298 -64 20 -70 24 -75 52 -76 506 -170 854 -348 1275 -326 777 -886 1493 -1572 2011 -744 562 -1651 899 -2610 969 -162 12 -530 11 -690 -1z m855 -353 c703 -88 1309 -295 1882 -642 544 -330 1044 -811 1413 -1359 96 -143 97 -147 15 -75 -476 424 -998 738 -1650 995 -653 257 -1350 416 -2160 492 -265 25 -963 25 -1210 0 -614 -62 -1144 -191 -1613 -392 -59 -25 -37 -2 95 96 708 528 1522 831 2423 903 120 9 685 -3 805 -18z m-490 -900 c978 -97 1814 -326 2545 -696 803 -407 1420 -972 1789 -1637 54 -99 73 -144 96 -235 31 -128 77 -373 85 -463 l6 -60 -39 110 c-289 817 -908 1458 -1867 1931 -341 168 -666 293 -1060 409 -898 264 -1962 395 -2800 345 -982 -59 -1764 -321 -2356 -791 -113 -90 -325 -296 -407 -397 -29 -35 -52 -60 -52 -57 0 13 146 265 215 371 80 123 107 151 260 278 475 391 1081 663 1803 811 155 31 441 71 607 85 72 5 148 12 170 14 111 11 850 -3 1005 -18z m771 -1257 c588 -99 1326 -402 1856 -761 313 -213 630 -503 756 -693 134 -203 221 -427 268 -690 21 -116 24 -160 24 -415 0 -217 -5 -315 -18 -410 -37 -263 -110 -573 -199 -850 -66 -204 -234 -617 -246 -605 -3 3 -13 85 -23 182 -64 630 -328 1735 -511 2143 -131 290 -267 511 -477 775 -111 140 -432 464 -576 584 -337 279 -682 506 -1037 682 -70 35 -124 67 -122 71 10 15 182 8 305 -13z m-5111 -85 c0 -4 -13 -30 -29 -58 -41 -73 -132 -273 -192 -423 -227 -565 -349 -1204 -349 -1824 0 -172 -3 -219 -13 -219 -7 0 -51 23 -97 52 -167 102 -296 266 -361 458 -45 131 -52 298 -20 452 78 371 217 973 238 1028 97 262 350 475 624 529 52 10 199 14 199 5z m1341 -1064 c237 -44 442 -311 490 -639 16 -110 6 -301 -20 -409 -54 -216 -187 -403 -341 -480 -317 -159 -665 94 -757 548 -21 102 -20 313 2 414 62 295 241 515 455 562 70 16 104 16 171 4z m-3627 -320 c47 -43 108 -151 144 -255 96 -273 168 -735 198 -1261 l6 -120 -88 -71 c-153 -122 -334 -323 -457 -506 -37 -56 -56 -75 -67 -71 -8 4 -51 17 -95 31 -173 52 -367 83 -526 83 l-85 0 -145 139 c-142 136 -336 343 -459 491 -297 354 -435 644 -351 734 55 58 149 52 296 -19 280 -135 655 -492 1123 -1069 41 -50 77 -83 100 -93 101 -42 222 37 222 146 0 16 -13 87 -29 157 -38 166 -85 448 -107 639 -25 210 -25 614 -1 742 32 173 88 281 167 321 67 34 102 30 154 -18z m11681 -765 c179 -127 310 -338 345 -557 23 -139 11 -226 -94 -688 -153 -678 -156 -690 -240 -820 -107 -165 -257 -280 -448 -344 -70 -24 -273 -54 -285 -43 -2 3 23 63 57 134 103 211 158 346 240 593 177 531 248 943 257 1507 l6 312 51 -26 c28 -14 78 -45 111 -68z m1439 -508 c42 -33 72 -93 92 -188 57 -266 -99 -929 -356 -1510 -39 -87 -50 -125 -50 -164 0 -59 25 -106 72 -135 89 -54 130 -39 298 105 573 492 1125 816 1390 815 64 -1 126 -31 146 -73 15 -31 15 -38 0 -90 -34 -116 -173 -285 -395 -479 -191 -167 -493 -391 -722 -535 l-95 -60 -90 18 c-126 26 -306 33 -459 20 -71 -7 -137 -14 -146 -17 -12 -3 -25 18 -53 83 -87 203 -243 457 -365 597 -34 38 -61 78 -61 88 0 27 84 347 139 531 116 382 243 684 361 856 39 57 118 139 155 160 31 18 101 7 139 -22z m-9018 -530 c210 -106 268 -415 112 -592 -87 -99 -217 -124 -336 -65 -99 50 -162 138 -188 261 -39 186 54 367 216 420 46 15 142 3 196 -24z m-3268 -70 c63 -60 196 -227 265 -332 130 -198 246 -479 282 -683 47 -268 21 -565 -75 -852 -55 -164 -155 -346 -271 -492 -22 -28 -38 -56 -36 -62 11 -33 97 -6 199 62 21 14 40 23 42 21 2 -2 11 -20 21 -39 65 -128 224 -300 357 -384 l77 -49 7 -56 c9 -71 -2 -578 -16 -736 -71 -815 -298 -1280 -657 -1347 -58 -11 -61 -10 -149 29 -590 260 -1024 836 -1230 1632 -38 148 -77 349 -94 486 -6 50 -13 105 -16 124 l-5 34 79 -7 c65 -6 81 -4 92 8 17 22 6 33 -88 91 -152 94 -328 250 -431 383 l-34 44 59 -9 c32 -4 145 -8 249 -7 161 1 202 4 270 23 180 48 316 145 377 269 32 64 33 72 34 187 0 112 2 125 33 197 26 62 37 77 59 83 31 7 134 59 174 86 34 25 35 24 43 -13 10 -47 67 -168 105 -223 49 -71 132 -149 200 -189 106 -62 132 -38 61 57 -161 217 -192 467 -89 715 33 79 34 122 3 169 -39 59 -128 80 -191 45 -17 -9 -57 -46 -89 -82 -146 -160 -259 -232 -375 -238 -150 -9 -191 69 -129 248 116 344 499 775 749 846 61 17 88 10 138 -39z m-1441 -656 c120 -26 208 -54 208 -67 -1 -5 -9 -44 -19 -88 -36 -152 -13 -308 60 -403 22 -29 23 -34 8 -40 -25 -9 -226 15 -353 43 -169 38 -401 121 -401 144 0 7 -18 42 -40 78 -49 84 -75 177 -60 218 16 41 38 63 90 88 39 20 68 29 155 50 46 11 256 -3 352 -23z m12701 -530 c216 -218 412 -628 429 -896 6 -105 -3 -137 -49 -165 -123 -75 -315 58 -472 327 -28 48 -46 66 -82 83 -72 35 -142 15 -185 -53 -22 -35 -22 -72 1 -197 24 -129 -9 -317 -75 -435 -37 -66 -109 -154 -167 -205 -37 -31 -48 -62 -28 -75 6 -4 34 1 63 11 162 53 296 166 387 327 l32 58 43 -40 c33 -31 99 -78 163 -117 2 -1 13 -44 24 -94 19 -89 19 -95 3 -155 -12 -42 -16 -88 -14 -141 5 -107 39 -176 133 -269 142 -141 364 -222 661 -242 l99 -6 -59 -55 c-118 -107 -317 -224 -497 -292 -67 -26 -88 -38 -88 -52 0 -22 26 -33 103 -42 31 -4 57 -12 57 -17 0 -22 -86 -273 -137 -399 -281 -695 -698 -1188 -1218 -1440 -136 -66 -226 -98 -372 -135 l-102 -25 -52 19 c-310 118 -459 543 -421 1200 18 302 68 660 132 937 l21 91 85 33 c123 48 253 137 366 250 l96 98 34 -35 c46 -48 146 -113 163 -106 23 8 18 31 -24 113 -21 41 -56 120 -76 175 -172 462 -120 1051 128 1436 l36 56 103 33 c248 78 471 239 608 439 30 44 58 80 63 81 4 0 42 -35 85 -79z m-13207 -115 c194 -85 560 -166 755 -166 27 0 128 -99 155 -151 28 -55 24 -82 -15 -117 -118 -104 -440 -115 -721 -25 -148 47 -276 128 -311 195 -28 53 -20 112 26 205 22 45 45 83 49 83 5 0 33 -11 62 -24z m11919 -376 c0 -6 -6 -23 -14 -38 -8 -15 -31 -74 -51 -132 -127 -364 -125 -783 5 -1093 l29 -70 -46 -59 c-162 -211 -358 -318 -583 -318 -209 0 -422 75 -678 239 -45 29 -82 56 -82 59 0 4 31 27 67 52 196 132 468 366 688 591 216 222 389 435 550 677 54 81 73 102 92 102 12 0 23 -5 23 -10z m-7570 -322 c893 -658 1985 -1090 3060 -1213 321 -36 801 -38 1166 -5 518 48 1134 188 1599 364 63 24 115 43 115 41 0 -4 -170 -114 -238 -154 -608 -358 -1255 -562 -1970 -622 -182 -15 -679 -6 -852 15 -623 78 -1158 246 -1675 525 -423 228 -820 536 -1149 889 -111 120 -276 315 -276 327 0 4 24 -13 53 -38 28 -24 104 -82 167 -129z m10125 -3 c94 -20 223 -84 269 -135 29 -32 36 -48 36 -80 0 -53 -44 -139 -110 -215 -59 -68 -76 -75 -245 -100 -158 -23 -317 -29 -455 -16 -68 7 -128 15 -133 18 -4 2 14 28 39 56 86 95 118 201 113 369 l-4 107 50 6 c28 3 66 7 85 9 65 8 284 -4 355 -19z m-10032 -673 c322 -299 793 -612 1207 -803 672 -309 1352 -459 2086 -459 353 0 642 27 959 91 470 94 968 274 1363 492 56 31 106 57 110 57 4 0 59 -34 122 -76 63 -42 181 -108 261 -148 252 -126 440 -181 652 -193 101 -5 117 -8 113 -22 -13 -44 -67 -343 -85 -471 -40 -285 -46 -364 -46 -665 0 -243 3 -321 18 -410 46 -281 122 -477 236 -613 l62 -72 -98 5 c-273 17 -468 69 -668 177 -121 66 -131 74 -145 121 -44 147 -166 303 -310 396 -61 40 -196 101 -223 101 -7 0 -44 25 -82 55 -38 30 -78 55 -88 55 -24 0 -67 -44 -67 -68 0 -22 -48 -23 -1967 -42 -744 -8 -957 -13 -1016 -24 -257 -49 -480 -237 -573 -482 -37 -98 -53 -200 -54 -340 l0 -121 -113 -12 c-787 -79 -1504 3 -2027 233 -94 42 -292 149 -338 184 l-23 18 20 139 c26 177 71 427 80 441 3 6 40 38 81 71 191 152 320 345 336 501 7 59 6 60 -23 76 -28 14 -33 13 -90 -13 -82 -39 -218 -127 -402 -258 -261 -188 -379 -249 -572 -297 -198 -49 -406 -60 -603 -29 l-109 16 29 21 c308 220 495 725 555 1496 6 80 11 261 12 403 2 189 5 256 14 253 6 -3 48 -10 94 -17 125 -18 365 -6 517 26 210 44 543 164 672 244 19 11 41 21 48 21 7 0 41 -26 75 -58z m10244 -102 c44 -129 23 -223 -63 -277 -225 -143 -747 -131 -957 23 -54 39 -83 89 -73 127 7 31 87 111 143 144 41 24 46 24 125 14 223 -28 449 -21 658 19 141 27 141 27 167 -50z m-12511 -2560 c323 -95 678 -115 970 -55 64 14 249 69 300 91 8 3 8 -16 -1 -68 -7 -40 -18 -112 -25 -160 l-12 -87 -55 -16 c-102 -30 -181 -99 -244 -213 -27 -49 -38 -60 -54 -57 -11 3 -186 37 -390 76 -310 59 -381 70 -440 66 -79 -6 -151 -28 -207 -63 -20 -13 -41 -24 -44 -24 -10 0 13 379 32 518 4 36 9 42 22 37 9 -4 76 -24 148 -45z m7258 -688 c6 -438 5 -574 -5 -594 -8 -19 -72 -66 -201 -149 -290 -186 -270 -137 -281 -694 -5 -242 -11 -441 -12 -443 -2 -2 -299 -4 -662 -5 l-658 -2 -66 32 c-123 61 -212 162 -250 285 -19 58 -21 118 -31 885 -12 896 -13 880 43 992 37 74 133 166 215 206 55 27 68 29 209 33 134 3 1095 16 1526 20 l166 2 7 -568z m569 547 c87 -28 184 -102 235 -179 74 -110 79 -141 86 -510 14 -774 17 -1306 6 -1360 -24 -123 -102 -239 -205 -305 -99 -63 -100 -63 -559 -69 l-418 -5 3 413 c4 388 5 415 23 435 10 11 93 69 185 127 189 122 212 141 249 204 l27 45 3 613 3 612 149 0 c124 0 160 -3 213 -21z m-2949 -66 c-44 -73 -72 -149 -90 -243 -12 -63 -14 -200 -9 -865 4 -434 11 -832 16 -884 12 -115 47 -223 102 -316 23 -38 44 -74 46 -79 2 -4 -50 -6 -115 -4 -104 3 -126 7 -178 31 -84 39 -150 92 -197 159 -58 83 -80 154 -86 273 l-6 100 55 23 c98 41 182 143 247 300 60 145 78 332 46 470 -38 162 -173 341 -322 429 l-43 25 0 97 c0 187 40 303 140 402 93 94 202 137 347 138 l82 1 -35 -57z m-3461 -403 c370 -244 789 -383 1377 -457 119 -15 219 -18 565 -18 418 0 559 8 801 46 88 14 123 0 190 -74 117 -130 148 -289 89 -456 -25 -73 -86 -179 -111 -196 -32 -21 -198 -33 -554 -41 -929 -21 -1789 134 -2355 424 -121 62 -200 141 -253 254 -49 102 -64 163 -64 266 0 92 25 181 72 251 61 94 102 94 243 1z m-953 -190 c201 -39 368 -70 371 -70 3 0 9 -33 12 -72 12 -142 60 -277 147 -408 l42 -65 -5 -260 c-7 -299 -26 -481 -68 -642 -41 -162 -110 -292 -182 -347 -39 -30 -126 -70 -134 -62 -3 3 4 29 15 58 29 72 49 151 69 282 23 141 23 704 2 886 l-14 115 -18 -165 c-65 -592 -209 -1053 -346 -1110 -27 -11 -35 -9 -81 16 -145 79 -274 394 -324 793 -42 324 -40 973 2 1045 24 41 77 76 116 76 17 0 195 -32 396 -70z m8102 -295 c93 -68 158 -194 158 -304 0 -62 -24 -153 -56 -206 -30 -52 -98 -116 -152 -144 l-39 -20 -6 112 c-4 62 -7 225 -7 364 l0 252 28 -10 c15 -5 48 -25 74 -44z m7282 -437 c3 -13 12 -90 21 -173 251 -2371 987 -5258 1900 -7448 31 -76 55 -144 52 -151 -7 -18 -933 -481 -1272 -635 -1503 -685 -3091 -1234 -4805 -1661 -2978 -742 -6355 -984 -9590 -690 -515 47 -969 105 -1079 136 -214 62 -407 203 -533 388 -89 129 -108 189 -257 781 -77 308 -142 571 -143 584 -3 22 4 25 127 58 383 101 915 307 1265 490 260 136 509 327 590 453 150 234 49 478 -238 573 -168 56 -298 71 -607 71 -154 0 -338 -5 -410 -12 -334 -32 -760 -100 -989 -158 -54 -14 -102 -21 -106 -17 -4 4 -72 265 -151 578 l-144 570 0 160 c0 124 5 176 19 230 48 178 143 341 273 466 186 179 1246 884 2048 1361 240 143 773 448 825 473 l35 16 85 -47 c113 -63 277 -140 430 -202 130 -52 157 -62 455 -167 452 -158 632 -233 763 -318 185 -120 308 -309 382 -591 42 -159 54 -232 100 -601 45 -360 80 -555 134 -740 200 -685 632 -1235 1179 -1501 l88 -43 92 -133 c326 -470 721 -840 1204 -1128 507 -303 1079 -484 1678 -531 201 -16 563 -6 764 21 1163 155 2165 805 2774 1800 280 459 454 952 532 1510 26 182 31 645 10 850 -76 752 -351 1429 -819 2020 -115 145 -429 462 -566 571 -243 194 -459 332 -725 464 -393 194 -785 313 -1225 372 -195 26 -747 26 -940 0 -448 -61 -856 -185 -1234 -374 -60 -30 -112 -51 -116 -46 -4 4 -32 42 -63 84 -195 263 -403 436 -696 581 l-123 61 148 54 c432 156 669 230 765 242 147 17 240 49 369 127 103 62 1020 320 1770 498 1072 254 2052 432 3085 560 888 110 1877 179 2647 184 l218 2 4 -22z m751 7 c1204 -23 2515 -183 3625 -440 1497 -348 2769 -913 3293 -1465 192 -202 216 -322 125 -619 l-32 -104 -12 85 c-22 146 -85 257 -239 417 -339 353 -1008 727 -1863 1042 l-134 50 -76 -30 c-92 -36 -194 -64 -317 -87 -126 -23 -528 -28 -685 -9 -340 43 -664 131 -950 257 -289 128 -487 257 -680 444 l-85 82 -290 36 c-417 51 -695 78 -1145 111 -151 11 -471 26 -688 34 -128 4 -237 12 -241 17 -5 5 -13 51 -16 101 l-8 93 74 -5 c41 -2 196 -7 344 -10z m-14850 -276 c283 -97 617 -171 960 -214 339 -42 479 -50 921 -50 l421 0 6 -115 c8 -172 51 -290 153 -427 103 -138 277 -252 441 -289 94 -22 94 -22 1163 -10 448 4 813 6 810 3 -3 -3 -72 -31 -155 -62 -132 -50 -156 -56 -200 -51 -252 29 -343 36 -490 36 -541 0 -1040 -142 -1457 -416 -85 -55 -98 -67 -98 -91 1 -67 24 -69 186 -17 450 146 822 208 1239 208 219 0 435 -17 508 -40 12 -4 -18 -18 -85 -40 -57 -19 -157 -61 -223 -94 -585 -288 -1011 -827 -1149 -1454 -39 -175 -50 -286 -49 -493 l1 -192 -57 38 c-143 97 -335 180 -795 342 -396 140 -552 202 -754 301 -163 80 -367 208 -471 295 -423 355 -781 1047 -961 1858 -40 179 -84 442 -104 620 -15 133 -36 384 -36 432 l0 23 53 -22 c28 -12 129 -48 222 -79z m7749 16 c94 -20 223 -63 290 -97 l48 -24 -108 -38 c-114 -40 -163 -54 -594 -166 -146 -38 -357 -96 -470 -129 -113 -32 -206 -58 -207 -56 -2 1 2 47 9 102 l12 101 61 17 c98 26 201 89 285 174 42 42 84 89 95 105 20 28 22 28 145 35 154 7 329 -2 434 -24z m-8224 -890 c94 -483 232 -904 426 -1292 50 -101 88 -183 85 -183 -3 0 -67 7 -141 15 -181 20 -338 49 -496 90 -182 47 -421 136 -412 153 51 96 63 132 66 202 12 241 -193 392 -581 431 -62 6 -119 14 -127 18 -8 4 -28 45 -43 92 -28 82 -99 360 -94 365 1 1 25 -25 53 -59 42 -52 66 -70 145 -109 311 -156 655 -122 864 86 86 86 144 173 188 283 17 46 33 79 34 75 1 -4 16 -79 33 -167z m5513 -846 c448 -196 773 -584 951 -1138 76 -234 110 -448 110 -686 0 -316 -38 -450 -218 -773 -95 -169 -180 -285 -291 -397 -299 -299 -632 -416 -995 -350 -59 10 85 -49 170 -71 114 -29 382 -27 505 4 120 30 269 91 389 159 l100 56 39 -44 c22 -24 76 -90 122 -146 306 -382 518 -763 607 -1093 30 -107 36 -340 13 -430 -27 -103 -80 -194 -172 -290 -184 -194 -433 -325 -743 -391 -90 -20 -135 -23 -315 -23 -231 0 -324 13 -510 75 -641 213 -1119 824 -1284 1644 -11 55 -39 246 -61 425 -22 179 -49 375 -60 435 -42 233 -108 438 -190 590 -67 124 -95 326 -87 634 6 231 27 357 92 557 176 538 611 987 1148 1188 176 66 318 93 495 95 107 1 118 -1 185 -30z m-6519 -73 c92 -17 177 -48 197 -72 28 -33 -77 -139 -254 -257 -279 -186 -923 -454 -1407 -586 -78 -21 -221 -54 -1265 -291 -1153 -263 -1029 -238 -1125 -229 -174 16 -314 55 -389 110 -59 42 -81 83 -81 149 0 47 6 64 36 110 45 70 82 109 164 174 156 124 145 120 625 252 242 67 712 197 1045 289 834 231 861 238 1165 289 135 23 525 70 665 80 134 9 537 -2 624 -18z m9596 -187 c663 -56 1337 -327 1875 -755 129 -103 365 -331 474 -459 307 -359 528 -754 674 -1210 60 -188 67 -231 17 -110 -291 708 -754 1275 -1383 1694 -730 487 -1641 695 -2512 575 -317 -44 -653 -136 -934 -256 -63 -26 -115 -47 -116 -46 0 2 -17 40 -37 84 l-36 82 156 75 c567 271 1177 380 1822 326z m-9308 -400 c240 -121 552 -212 903 -264 153 -23 385 -45 477 -45 l77 0 72 -87 c40 -49 121 -135 180 -193 l108 -106 -277 -159 c-347 -199 -756 -444 -1067 -640 -132 -83 -245 -154 -252 -158 -6 -4 -93 46 -200 114 -103 67 -384 248 -623 402 -239 155 -511 330 -605 390 -93 61 -187 121 -208 134 l-38 24 170 58 c454 157 933 379 1141 529 30 22 56 41 58 41 1 1 39 -17 84 -40z m9288 -589 c551 -71 1073 -325 1469 -713 422 -415 680 -957 742 -1556 15 -144 6 -469 -16 -611 -104 -661 -459 -1253 -987 -1646 -860 -640 -2009 -671 -2898 -78 -69 45 -140 96 -159 112 l-34 28 49 29 c27 15 94 61 149 101 271 197 420 433 456 718 56 459 -219 1091 -755 1736 -48 58 -90 110 -93 117 -2 7 9 29 25 50 16 21 35 54 41 74 6 19 52 109 101 200 50 90 104 199 120 241 72 186 113 449 106 672 l-5 127 42 26 c311 196 752 345 1132 382 112 11 401 6 515 -9z m-10287 -684 c481 -310 883 -568 893 -574 14 -8 2 -19 -74 -71 -50 -33 -94 -61 -97 -61 -3 0 -418 275 -923 612 l-917 611 95 23 c52 12 107 23 121 23 18 1 287 -167 902 -563z m-241 -3039 c75 -298 133 -545 130 -548 -12 -10 -823 -231 -829 -226 -3 3 -43 153 -89 334 -90 353 -96 396 -69 512 34 141 140 279 266 346 49 25 128 51 257 85 103 26 189 45 192 43 2 -2 66 -248 142 -546z m-1397 -280 l240 -74 23 -87 c13 -49 22 -90 20 -92 -2 -1 -100 27 -218 63 -189 59 -225 67 -295 67 -67 0 -90 -4 -140 -27 -33 -16 -72 -39 -86 -53 -31 -30 -33 -28 -48 48 -31 148 80 264 224 236 22 -4 148 -41 280 -81z m-1243 -152 c111 -16 235 -46 312 -76 l53 -19 81 -308 c45 -169 82 -314 82 -322 0 -11 -54 -30 -198 -69 -618 -169 -633 -175 -742 -283 -100 -99 -160 -245 -160 -390 0 -81 69 -368 107 -443 95 -187 284 -305 489 -305 67 0 150 15 456 85 205 47 378 85 384 85 7 0 17 -19 23 -42 6 -24 46 -182 90 -351 l79 -308 -41 -52 c-173 -220 -430 -403 -717 -510 -266 -99 -531 -140 -900 -139 -726 1 -1585 211 -2564 629 -265 113 -317 150 -352 256 -20 61 -15 166 11 217 10 19 72 107 138 195 619 824 1222 1406 1836 1774 332 199 712 339 1026 380 115 14 400 12 507 -4z m4965 -179 c101 -17 194 -49 213 -71 10 -12 7 -23 -16 -56 -67 -96 -273 -238 -538 -369 -159 -78 -387 -180 -402 -180 -4 0 29 25 72 56 106 75 219 188 249 248 78 156 -24 272 -281 325 -54 11 -124 23 -154 28 -51 8 -43 10 105 21 88 7 176 14 195 16 85 9 470 -3 557 -18z m-1695 -1893 c75 -302 135 -549 133 -551 -10 -10 -359 -92 -415 -97 -142 -14 -301 46 -410 155 -100 99 -117 140 -209 507 -45 177 -81 325 -81 330 0 4 35 16 78 26 95 23 755 175 762 176 3 1 67 -245 142 -546z m-1199 -170 l16 -68 -197 -198 c-108 -109 -208 -204 -222 -212 -96 -51 -216 -10 -261 90 -10 22 -19 45 -19 51 0 7 30 9 88 6 72 -3 97 0 147 18 54 20 79 42 240 201 99 98 183 179 186 179 3 0 13 -30 22 -67z m3334 -1443 c18 0 33 -5 33 -11 0 -13 -1008 -1840 -1024 -1855 -12 -12 -214 -69 -220 -63 -2 2 43 92 101 199 57 107 133 251 170 320 36 69 134 253 218 410 84 157 171 321 194 365 24 44 111 208 194 364 l151 284 74 -7 c41 -3 90 -6 109 -6z m956 -2005 c99 -18 189 -48 207 -70 9 -11 7 -22 -10 -50 -113 -183 -696 -485 -1360 -706 -265 -88 -336 -105 -1700 -414 -58 -13 -154 -35 -215 -49 -60 -14 -159 -36 -220 -50 -60 -13 -191 -43 -289 -66 -177 -41 -180 -41 -275 -30 -365 42 -514 161 -433 344 44 99 286 300 407 339 28 9 295 84 595 166 300 83 790 218 1089 300 671 186 874 228 1366 281 253 27 285 28 535 24 139 -2 246 -9 303 -19z" fill="#000000"/>
<path d="M17507 22269 c-133 -31 -267 -146 -335 -289 -57 -119 -76 -215 -70 -353 10 -245 130 -446 318 -536 l75 -36 243 -3 c264 -3 307 2 403 55 60 32 149 123 194 198 107 178 123 433 41 636 -67 163 -209 294 -357 328 -54 13 -459 12 -512 0z m500 -214 c120 -50 195 -178 210 -355 8 -90 0 -113 -48 -159 -73 -68 -120 -86 -229 -86 -86 0 -100 3 -147 29 -29 16 -78 56 -109 88 l-57 59 6 72 c11 123 61 243 128 303 67 61 169 81 246 49z" fill="#000000"/>
</g>
</svg>