<svg width="86" height="34" viewBox="0 0 86 34" fill="none" xmlns="http://www.w3.org/2000/svg">
<g filter="url(#filter0_d_64_22)">
<path d="M4.28 4.36C4.28 3.86933 4.29067 3.50667 4.312 3.272C4.35467 3.016 4.46133 2.728 4.632 2.408C4.93067 1.832 5.76267 1.544 7.128 1.544C8.62133 1.544 9.50667 1.93867 9.784 2.728C9.89067 3.09067 9.944 3.64533 9.944 4.392V22.184C9.944 22.696 9.92267 23.0693 9.88 23.304C9.85867 23.5387 9.76267 23.816 9.592 24.136C9.29333 24.712 8.46133 25 7.096 25C5.60267 25 4.728 24.5947 4.472 23.784C4.344 23.4427 4.28 22.8987 4.28 22.152V4.36ZM21.8748 8.136C24.0081 8.136 25.7788 8.95733 27.1868 10.6C28.6161 12.2213 29.3308 14.2053 29.3308 16.552V22.184C29.3308 22.6747 29.3094 23.048 29.2668 23.304C29.2454 23.5387 29.1601 23.8053 29.0108 24.104C28.7121 24.68 27.8801 24.968 26.5148 24.968C25.0001 24.968 24.1254 24.5733 23.8908 23.784C23.7628 23.4213 23.6988 22.8773 23.6988 22.152V16.52C23.6988 15.6453 23.4428 14.9627 22.9308 14.472C22.4401 13.9813 21.7681 13.736 20.9148 13.736C20.0828 13.736 19.4001 13.992 18.8668 14.504C18.3548 15.016 18.0988 15.688 18.0988 16.52V22.184C18.0988 22.6747 18.0774 23.048 18.0348 23.304C18.0134 23.5387 17.9174 23.8053 17.7468 24.104C17.4694 24.68 16.6481 24.968 15.2828 24.968C13.9388 24.968 13.1174 24.68 12.8188 24.104C12.6694 23.784 12.5734 23.5067 12.5308 23.272C12.5094 23.016 12.4988 22.6427 12.4988 22.152V10.824C12.4988 10.3547 12.5094 10.0027 12.5308 9.768C12.5734 9.512 12.6801 9.23467 12.8508 8.936C13.1494 8.40267 13.9708 8.136 15.3148 8.136C16.6161 8.136 17.4161 8.38133 17.7148 8.872C17.9281 9.23467 18.0348 9.672 18.0348 10.184C18.1201 10.0347 18.3121 9.82133 18.6108 9.544C18.9094 9.26667 19.1974 9.04267 19.4748 8.872C20.2001 8.38133 21.0001 8.136 21.8748 8.136ZM31.905 10.952C31.905 10.4613 31.9157 10.0987 31.937 9.864C31.9797 9.608 32.0757 9.32 32.225 9C32.5237 8.44533 33.3557 8.168 34.721 8.168C35.745 8.168 36.4703 8.34933 36.897 8.712C37.2597 9.01067 37.4517 9.46933 37.473 10.088C37.4943 10.3013 37.505 10.6107 37.505 11.016V22.216C37.505 22.7067 37.4837 23.08 37.441 23.336C37.4197 23.5707 37.3237 23.848 37.153 24.168C36.8757 24.7227 36.0543 25 34.689 25C33.345 25 32.5237 24.712 32.225 24.136C32.0757 23.816 31.9797 23.5387 31.937 23.304C31.9157 23.0693 31.905 22.696 31.905 22.184V10.952ZM37.153 5.032C37.0037 5.33067 36.7263 5.544 36.321 5.672C35.9157 5.8 35.3717 5.864 34.689 5.864C34.0277 5.864 33.4943 5.8 33.089 5.672C32.6837 5.544 32.3957 5.32 32.225 5C32.0757 4.68 31.9797 4.40267 31.937 4.168C31.9157 3.912 31.905 3.53867 31.905 3.048C31.905 2.55733 31.9157 2.19467 31.937 1.96C31.9797 1.704 32.0757 1.42666 32.225 1.128C32.5237 0.551998 33.3557 0.263998 34.721 0.263998C36.065 0.263998 36.8757 0.551998 37.153 1.128C37.3237 1.448 37.4197 1.736 37.441 1.992C37.4837 2.22667 37.505 2.58933 37.505 3.08C37.505 3.57066 37.4837 3.944 37.441 4.2C37.4197 4.43467 37.3237 4.712 37.153 5.032ZM45.3413 16.584C45.3413 17.48 45.6399 18.184 46.2373 18.696C46.8346 19.1867 47.4639 19.432 48.1253 19.432C48.8079 19.432 49.4373 19.24 50.0133 18.856C50.6106 18.4507 51.0906 18.248 51.4533 18.248C52.0933 18.248 52.8719 18.8133 53.7893 19.944C54.2799 20.5627 54.5253 21.1173 54.5253 21.608C54.5253 22.4187 53.9386 23.176 52.7653 23.88C51.5493 24.7333 50.0559 25.16 48.2853 25.16C46.3013 25.16 44.3919 24.4453 42.5573 23.016C41.6826 22.3333 40.9679 21.4267 40.4133 20.296C39.8586 19.144 39.5813 17.8853 39.5813 16.52C39.5813 15.1333 39.8586 13.8853 40.4133 12.776C40.9679 11.6453 41.6826 10.7387 42.5573 10.056C44.3279 8.648 46.2159 7.944 48.2213 7.944C49.0319 7.944 49.8213 8.06133 50.5893 8.296C51.3573 8.50933 51.9226 8.72267 52.2853 8.936L52.7973 9.256C53.1813 9.512 53.4799 9.71467 53.6933 9.864C54.2479 10.2907 54.5253 10.7813 54.5253 11.336C54.5253 11.8693 54.3013 12.4773 53.8533 13.16C53.0853 14.3333 52.3493 14.92 51.6453 14.92C51.2399 14.92 50.6639 14.6853 49.9173 14.216C49.5333 13.8533 48.9786 13.672 48.2533 13.672C47.5493 13.672 46.8879 13.928 46.2693 14.44C45.6506 14.952 45.3413 15.6667 45.3413 16.584ZM56.5925 10.952C56.5925 10.4613 56.6032 10.0987 56.6245 9.864C56.6672 9.608 56.7632 9.32 56.9125 9C57.2112 8.44533 58.0432 8.168 59.4085 8.168C60.4325 8.168 61.1578 8.34933 61.5845 8.712C61.9472 9.01067 62.1392 9.46933 62.1605 10.088C62.1818 10.3013 62.1925 10.6107 62.1925 11.016V22.216C62.1925 22.7067 62.1712 23.08 62.1285 23.336C62.1072 23.5707 62.0112 23.848 61.8405 24.168C61.5632 24.7227 60.7418 25 59.3765 25C58.0325 25 57.2112 24.712 56.9125 24.136C56.7632 23.816 56.6672 23.5387 56.6245 23.304C56.6032 23.0693 56.5925 22.696 56.5925 22.184V10.952ZM61.8405 5.032C61.6912 5.33067 61.4138 5.544 61.0085 5.672C60.6032 5.8 60.0592 5.864 59.3765 5.864C58.7152 5.864 58.1818 5.8 57.7765 5.672C57.3712 5.544 57.0832 5.32 56.9125 5C56.7632 4.68 56.6672 4.40267 56.6245 4.168C56.6032 3.912 56.5925 3.53867 56.5925 3.048C56.5925 2.55733 56.6032 2.19467 56.6245 1.96C56.6672 1.704 56.7632 1.42666 56.9125 1.128C57.2112 0.551998 58.0432 0.263998 59.4085 0.263998C60.7525 0.263998 61.5632 0.551998 61.8405 1.128C62.0112 1.448 62.1072 1.736 62.1285 1.992C62.1712 2.22667 62.1925 2.58933 62.1925 3.08C62.1925 3.57066 62.1712 3.944 62.1285 4.2C62.1072 4.43467 62.0112 4.712 61.8405 5.032ZM64.2688 16.584C64.2688 14.024 65.1648 11.912 66.9568 10.248C68.7488 8.584 70.7968 7.752 73.1008 7.752C75.4048 7.752 77.4421 8.584 79.2128 10.248C80.9834 11.8907 81.8688 13.992 81.8688 16.552C81.8688 18.3227 81.4101 19.9013 80.4928 21.288C79.5754 22.6533 78.4554 23.6667 77.1328 24.328C75.8314 24.968 74.4768 25.288 73.0688 25.288C71.6608 25.288 70.2954 24.9467 68.9728 24.264C67.6501 23.56 66.5301 22.536 65.6128 21.192C64.7168 19.8267 64.2688 18.2907 64.2688 16.584ZM70.9568 18.888C71.6394 19.4 72.3328 19.656 73.0368 19.656C73.7408 19.656 74.4448 19.3893 75.1488 18.856C75.8528 18.3227 76.2048 17.5333 76.2048 16.488C76.2048 15.4427 75.8741 14.664 75.2128 14.152C74.5514 13.64 73.8368 13.384 73.0688 13.384C72.3008 13.384 71.5861 13.6507 70.9248 14.184C70.2634 14.7173 69.9328 15.5067 69.9328 16.552C69.9328 17.576 70.2741 18.3547 70.9568 18.888Z" fill="white"/>
</g>
<defs>
<filter id="filter0_d_64_22" x="0.279297" y="0.263672" width="85.5898" height="33.0244" filterUnits="userSpaceOnUse" color-interpolation-filters="sRGB">
<feFlood flood-opacity="0" result="BackgroundImageFix"/>
<feColorMatrix in="SourceAlpha" type="matrix" values="0 0 0 0 0 0 0 0 0 0 0 0 0 0 0 0 0 0 127 0" result="hardAlpha"/>
<feOffset dy="4"/>
<feGaussianBlur stdDeviation="2"/>
<feComposite in2="hardAlpha" operator="out"/>
<feColorMatrix type="matrix" values="0 0 0 0 0 0 0 0 0 0 0 0 0 0 0 0 0 0 0.25 0"/>
<feBlend mode="normal" in2="BackgroundImageFix" result="effect1_dropShadow_64_22"/>
<feBlend mode="normal" in="SourceGraphic" in2="effect1_dropShadow_64_22" result="shape"/>
</filter>
</defs>
</svg>
