<svg width="51" height="46" viewBox="0 0 51 46" fill="none" xmlns="http://www.w3.org/2000/svg">
<path d="M50.0644 21.7032C50.0644 32.9546 39.0979 42.1095 25.6171 42.1095C12.1364 42.1095 1.16992 32.9546 1.16992 21.7032C1.16992 10.4517 12.1364 1.29688 25.6171 1.29688C39.0979 1.29688 50.0644 10.4517 50.0644 21.7032Z" fill="black"/>
<path d="M17.4494 15.2897C17.4494 15.2897 17.1817 15.6387 17.3423 15.918C17.717 16.5463 18.8947 16.8954 20.1257 16.5463C20.8216 16.3369 21.7851 15.3595 22.6415 14.4518C23.605 13.4744 24.5685 12.4272 25.532 12.0781C26.549 11.6591 27.1914 11.8686 27.6195 12.0083C28.1013 12.2177 28.6365 12.6366 29.5465 13.4744C31.2058 15.0802 37.9502 22.7601 39.1279 24.0866C40.0378 23.528 44.2129 21.2241 49.8868 19.5485C49.4051 15.6388 47.5851 12.0083 44.8017 9.07595C40.9478 11.1705 36.1838 12.2876 31.527 9.35523C31.527 9.35523 29.0113 7.81923 26.4955 7.88903C22.8021 8.02871 21.2499 10.0534 19.537 12.2876L17.4494 15.2897Z" fill="white"/>
<path d="M38.8608 24.9249C38.8072 24.8551 30.9388 15.9185 29.1724 14.1731C28.1554 13.1957 27.5665 12.9164 26.9777 12.7768C26.6566 12.707 26.2284 12.7768 25.9072 12.9165C25.1043 13.1957 23.9803 14.1731 23.0168 15.1505C21.9998 16.1978 21.0898 17.1753 20.2334 17.3848C19.1093 17.7339 17.7711 17.3149 17.1823 16.7563C16.9147 16.5469 16.7541 16.2677 16.647 15.9884C16.4329 15.2902 16.8612 14.7317 16.9147 14.6619L19.0558 11.5899L19.8052 10.6125C19.1093 10.7521 18.467 10.9616 17.8246 11.171C17.0217 11.4503 16.2724 11.7295 15.523 11.7295C15.2018 11.7295 13.489 11.3804 13.1678 11.2408C11.1873 10.5427 9.47441 9.84452 6.9051 8.30859C3.85406 11.3107 1.76653 15.011 1.17773 19.1302C1.60595 19.2698 2.3553 19.5491 2.62294 19.6189C9.58144 21.6436 11.7226 23.738 12.1508 24.1569C12.579 23.5286 13.1678 23.1795 13.8636 23.1795C14.613 23.1795 15.3088 23.6682 15.7371 24.4362C16.1117 24.0173 16.7006 23.6682 17.3964 23.6682C17.7176 23.6682 18.0387 23.738 18.4134 23.8776C19.2163 24.2267 19.5911 24.9249 19.8052 25.5533C20.0728 25.4137 20.3939 25.274 20.7686 25.274C21.1433 25.274 21.518 25.4137 21.9462 25.6231C23.2309 26.3212 23.445 27.9969 23.3379 29.2536H23.6056C25.1578 29.2536 26.3889 30.8594 26.3889 32.884C26.3889 33.5124 26.2819 34.071 26.0678 34.5596C26.496 34.8389 27.513 35.5371 28.4765 35.3974C29.2259 35.2578 29.4935 34.9785 29.6006 34.769C29.6541 34.6294 29.7611 34.4898 29.6541 34.3502L27.6736 31.4877C27.6736 31.4877 27.3524 31.0688 27.4595 30.9292C27.5665 30.7895 27.7807 30.999 27.9413 31.1386C28.9583 32.2557 30.1358 33.8615 30.1358 33.8615C30.1358 33.8615 30.2429 34.071 30.6711 34.2106C31.0458 34.2804 31.7416 34.2106 32.2234 33.7218C32.3305 33.5822 32.491 33.4426 32.5445 33.3029C33.0263 32.4652 32.491 31.6273 32.491 31.6273L30.1894 28.2762C30.1894 28.2762 29.8683 27.8572 29.9753 27.7176C30.0823 27.5779 30.2964 27.7874 30.457 27.9271C31.2064 28.6951 32.2234 30.0914 33.1869 31.3481C33.401 31.5576 34.2574 32.2557 35.3815 31.2782C36.0773 30.6499 36.2379 29.9517 36.1844 29.3932C36.1309 28.6951 35.7027 28.1365 35.7027 28.1365L32.5981 24.0173C32.5981 24.0173 32.277 23.6682 32.384 23.4588C32.4911 23.3192 32.7051 23.5286 32.8657 23.6682C33.8827 24.7854 36.5591 27.9969 36.5591 27.9969C36.6126 27.9969 37.5226 28.9045 38.7002 27.9271C39.1284 27.578 39.396 27.0893 39.396 26.4609C39.4495 25.5533 38.8608 24.9249 38.8608 24.9249Z" fill="white"/>
<path d="M23.7126 30.1604C23.2308 30.1604 22.6956 30.5095 22.642 30.5095C22.5885 30.5095 22.642 30.2303 22.6956 30.0906C22.7491 29.951 23.3914 27.4377 21.8391 26.53C20.6615 25.8319 19.9121 26.5998 19.6981 26.9489C19.6445 27.0187 19.5911 27.0187 19.5911 26.9489C19.5911 26.53 19.4304 25.2733 18.3599 24.8544C16.8611 24.226 15.9512 25.6225 15.6835 26.1111C15.5765 24.9941 14.8806 24.1562 13.9707 24.1562C13.0072 24.1562 12.2578 25.1336 12.2578 26.3903C12.2578 27.6471 13.0072 28.6245 13.9707 28.6245C14.4525 28.6245 14.8271 28.4151 15.1483 27.9961V28.0659C15.0947 28.6245 14.9341 30.6492 16.5399 31.4172C17.1823 31.7663 17.7176 31.487 18.1993 31.0681C18.3599 30.9285 18.3599 30.9983 18.3599 31.138C18.3063 31.6266 18.3599 32.7437 19.5911 33.372C20.501 33.8607 21.0362 33.372 21.3574 32.9532C21.5179 32.7437 21.5715 32.8136 21.5715 33.0928C21.625 34.559 22.5885 35.7458 23.7126 35.7458C24.8902 35.7458 25.8536 34.4891 25.8536 32.9532C25.8536 31.4172 24.8902 30.1604 23.7126 30.1604Z" fill="white"/>
<path d="M39.1844 23.8443C36.7738 21.1183 31.2025 14.7575 29.649 13.2896C28.7918 12.4509 28.2026 11.9616 27.6669 11.8218C27.4526 11.7519 27.1312 11.612 26.7026 11.612C26.3276 11.612 25.8991 11.682 25.4706 11.8917C24.5063 12.311 23.5421 13.2897 22.5778 14.2683L22.5242 14.3382C21.6671 15.2468 20.7564 16.1555 20.06 16.3652C19.7386 16.4351 19.4707 16.505 19.1493 16.505C18.3993 16.505 17.7029 16.2254 17.4351 15.806C17.3815 15.7361 17.435 15.5963 17.5422 15.4565L19.685 12.4509C21.3457 10.2841 22.8992 8.25694 26.5419 8.11719H26.7026C28.9526 8.11719 31.2025 9.44524 31.4703 9.58499C33.6132 10.913 35.7559 11.612 37.9523 11.612C40.2558 11.612 42.6129 10.8432 45.0771 9.37536C44.8092 9.09578 44.4879 8.74624 44.22 8.46665C42.0236 9.72482 39.9879 10.284 37.9523 10.284C35.9166 10.284 33.881 9.65495 31.8989 8.39677C31.7918 8.3269 29.3276 6.78906 26.7026 6.78906H26.4884C23.4349 6.85896 21.7207 8.25694 20.5957 9.51512C19.4708 9.51512 18.5065 9.93453 17.6494 10.2141C16.8994 10.4937 16.203 10.7035 15.5601 10.7035H14.7566C14.0066 10.7035 10.2567 9.51519 7.31037 7.97736C6.98893 8.25702 6.72112 8.53653 6.39968 8.81611C9.50676 10.4937 13.3102 11.7519 14.4887 11.8917C14.8102 11.8917 15.1851 11.9616 15.5601 11.9616C16.3637 11.9616 17.1137 11.682 17.9172 11.4024C18.3994 11.2627 18.8815 11.0529 19.3636 10.9131L18.935 11.4723L16.7922 14.5479C16.6315 14.7576 16.2565 15.3866 16.4708 16.0856C16.5779 16.3652 16.7922 16.6447 17.06 16.9243C17.5958 17.3437 18.5065 17.6933 19.3636 17.6933C19.685 17.6933 20.0064 17.6233 20.2743 17.5534C21.1849 17.2739 22.1492 16.2953 23.1135 15.2469C23.917 14.4081 25.0419 13.3595 25.8991 13.01C26.1669 12.9402 26.4348 12.8703 26.7026 12.8703H26.9169C27.5062 12.9402 28.0419 13.2198 29.0597 14.1983C30.8275 15.9458 38.7023 24.8928 38.7558 24.9627C38.7558 24.9627 39.2379 25.5219 39.2379 26.5005C39.2379 26.9898 38.9701 27.4791 38.5952 27.8286C38.2737 28.1082 37.8987 28.2479 37.5774 28.2479C37.0416 28.2479 36.6667 27.8985 36.6667 27.8985C36.6667 27.8985 33.9346 24.6831 32.9703 23.5647C32.8096 23.355 32.6489 23.2153 32.4882 23.2153C32.381 23.2153 32.3274 23.2852 32.2739 23.3551C32.1132 23.6347 32.2739 23.9841 32.4882 24.1938L35.6488 28.3178C35.6488 28.3178 36.0238 28.8071 36.0774 29.4362C36.0774 30.1352 35.8631 30.6944 35.3274 31.1138C34.9524 31.4633 34.5774 31.6031 34.2024 31.6031C33.7203 31.6031 33.3989 31.3235 33.2917 31.2536L32.8096 30.6944C32.0061 29.646 31.149 28.5275 30.5061 27.8985C30.3454 27.7587 30.1847 27.549 30.024 27.549C29.9704 27.549 29.8633 27.5489 29.8097 27.6888C29.7561 27.7587 29.7025 27.9684 29.8632 28.3178C29.9168 28.4577 30.024 28.5276 30.024 28.5276L32.3274 31.8826C32.3274 31.8826 32.8096 32.6515 32.3811 33.2806L32.2739 33.4205L32.0596 33.7C31.6846 34.1194 31.149 34.1894 30.9347 34.1894H30.6133C30.399 34.1195 30.2383 34.0495 30.1311 33.9098C30.024 33.7001 28.8455 32.2322 27.8812 31.1837C27.7741 31.0439 27.6133 30.904 27.4526 30.904C27.399 30.904 27.2919 30.974 27.2383 31.0439C27.0776 31.3235 27.3455 31.7429 27.4526 31.8826L29.4347 34.6786C29.4347 34.6786 29.4347 34.7485 29.3811 34.8883C29.3276 35.0281 29.0598 35.3077 28.3634 35.4474H28.0955C27.3455 35.4474 26.5955 34.9582 26.1669 34.6786C26.3276 34.1894 26.4348 33.6302 26.4348 33.071C26.4348 30.974 25.1491 29.2965 23.5421 29.2965H23.4349C23.4884 28.3179 23.3813 26.5006 21.935 25.7317C21.5064 25.522 21.1314 25.3821 20.7028 25.3821C20.3814 25.3821 20.1136 25.452 19.7922 25.5918C19.4708 24.8229 18.9886 24.2638 18.3457 23.9842C17.9708 23.8444 17.6493 23.7744 17.2743 23.7744C16.6851 23.7744 16.1494 23.9841 15.6672 24.4734C15.4345 24.0996 15.1404 23.7986 14.8066 23.5929C14.4728 23.3873 14.1079 23.2822 13.7388 23.2852C13.0959 23.2852 12.4531 23.6346 12.0245 24.1938C11.4353 23.5647 9.0246 21.6075 2.54264 19.6504C2.22122 19.5805 1.52484 19.301 1.09628 19.0913C1.04271 19.5107 0.989114 20 0.935547 20.4893C0.935547 20.4893 2.11412 20.8387 2.38197 20.9086C8.97109 22.7959 11.1674 24.8229 11.5424 25.1724C11.4353 25.5918 11.3817 26.0113 11.3817 26.4306C11.3817 28.248 12.5066 29.646 13.8459 29.646C14.0066 29.646 14.1673 29.646 14.328 29.5761C14.5423 30.9041 15.1851 31.8827 16.203 32.372C16.5244 32.5118 16.7922 32.5816 17.06 32.5816C17.2207 32.5816 17.4351 32.5816 17.6494 32.5118C17.8101 33.1409 18.2386 33.9097 19.2028 34.399C19.5243 34.6087 19.8457 34.6786 20.1671 34.6786C20.435 34.6786 20.7028 34.6088 20.9171 34.4689C21.3457 35.8669 22.4171 36.8454 23.5956 36.8454C24.3992 36.8454 25.1491 36.4261 25.6849 35.6572C26.167 36.0067 27.1312 36.6358 28.1491 36.6358H28.524C29.5419 36.496 29.9704 35.9368 30.1847 35.5874C30.2382 35.5174 30.2383 35.4475 30.2918 35.3776C30.5061 35.4475 30.774 35.5175 31.0954 35.5175C31.6311 35.5175 32.1668 35.3077 32.7025 34.7485C33.2382 34.2592 33.6132 33.5602 33.6132 32.9312C33.7739 33.0011 33.9881 33.0011 34.1488 33.0011C34.6846 33.0011 35.2738 32.7913 35.8095 32.3021C36.8273 31.4633 36.988 30.2751 36.988 29.5761C37.1488 29.646 37.3631 29.646 37.5238 29.646C38.0595 29.646 38.5952 29.4362 39.0773 29.0168C39.7202 28.4577 40.0951 27.6888 40.1487 26.7801C40.2023 26.151 40.0415 25.5219 39.8273 24.9627C41.5415 23.9841 45.3985 22.1667 50.0055 20.7688C50.0055 20.2795 49.952 19.8601 49.8448 19.3708C44.3271 20.9085 40.2023 23.2153 39.1844 23.8443ZM23.7027 35.5175C22.6313 35.5175 21.7743 34.399 21.7207 33.0011C21.7207 32.8612 21.7207 32.5816 21.5064 32.5816C21.3992 32.5816 21.3457 32.6516 21.2385 32.7215C21.0242 33.0011 20.7028 33.2806 20.2743 33.2806C20.06 33.2806 19.8457 33.2108 19.6314 33.071C18.5065 32.4419 18.4529 31.4633 18.5065 31.0439C18.5065 30.9041 18.5065 30.8342 18.4529 30.7643L18.3993 30.6944H18.3457C18.2922 30.6944 18.2386 30.6944 18.1314 30.8342C17.8101 31.1138 17.4887 31.2536 17.1672 31.2536C17.0065 31.2536 16.7922 31.1837 16.6316 31.1138C15.1316 30.3449 15.2387 28.5275 15.3459 27.9684C15.3459 27.8285 15.3459 27.7587 15.2923 27.6888L15.1851 27.549L15.078 27.6888C14.7566 28.0382 14.3816 28.2479 14.0066 28.2479C13.1495 28.2479 12.4531 27.3392 12.4531 26.2209C12.4531 25.1026 13.1495 24.1938 14.0066 24.1938C14.7566 24.1938 15.453 24.9627 15.5601 25.9413L15.6137 26.5005L15.828 26.0112C15.828 25.9412 16.4708 24.6831 17.6494 24.753C17.8636 24.753 18.0779 24.8229 18.3457 24.8928C19.2564 25.2423 19.4171 26.3607 19.4171 26.7801C19.4171 27.0597 19.5779 27.0597 19.5779 27.0597C19.6314 27.0597 19.7385 26.9898 19.7385 26.9199C19.8992 26.7102 20.2743 26.2908 20.8636 26.2908C21.1314 26.2908 21.3992 26.3607 21.7207 26.5704C23.167 27.4092 22.5242 29.7857 22.5242 29.8556C22.4171 30.275 22.3635 30.4148 22.5242 30.5546H22.6313C22.6849 30.5546 22.792 30.5546 22.8992 30.4847C23.1135 30.4148 23.3813 30.2751 23.6491 30.2751C24.7206 30.2751 25.6312 31.4633 25.6312 32.8613C25.6848 34.3991 24.7741 35.5175 23.7027 35.5175Z" fill="#2D3277"/>
</svg>
