<svg width="140" height="140" viewBox="0 0 140 140" fill="none" xmlns="http://www.w3.org/2000/svg">
<g clip-path="url(#clip0_64_15)">
<path d="M130.296 79.9191C133.332 76.8822 134.865 73.6078 134.849 70.1888C134.781 56.4676 109.395 45.5995 77.0425 45.4452C75.8668 45.4397 74.7033 45.5236 73.5451 45.6437C73.4447 45.4034 73.3113 45.1447 73.1379 44.8671C69.5441 39.0989 51.9844 26.612 30.2458 39.6037C29.6881 39.9363 29.4018 40.5826 29.5276 41.2218C29.5874 41.5328 29.74 41.8088 29.9542 42.023C30.1802 42.249 30.4755 42.406 30.8057 42.4593C41.0213 44.1159 47.5048 47.1568 51.0282 51.9475C50.2244 52.1776 49.429 52.3906 48.6465 52.5717C47.9462 52.7339 47.4537 53.3573 47.457 54.0761L47.4731 57.5029L41.0599 57.4712C40.6486 57.4689 40.255 57.631 39.9653 57.9207C39.6757 58.2103 39.5135 58.604 39.5159 59.0152L39.6174 80.4812C39.6197 80.9074 39.7928 81.2934 40.0736 81.5741C40.3543 81.8549 40.7404 82.0281 41.1667 82.0304L47.59 82.0606L47.6061 85.4971C47.6086 85.9189 47.7796 86.3073 48.0624 86.5901C48.2606 86.7883 48.5132 86.9343 48.7997 87.0035C49.531 87.179 50.2717 87.3797 51.0216 87.5984C47.5836 92.4646 41.0908 95.4977 30.7605 97.0778C30.1178 97.1764 29.6078 97.6671 29.4846 98.3043C29.3848 98.8178 29.553 99.3375 29.913 99.6974C30.0008 99.7853 30.1004 99.8635 30.2095 99.9301C52.0203 113.097 69.4833 100.802 73.046 95.0837C73.2632 94.7346 73.4 94.4254 73.5042 94.1342C74.749 94.2839 76.0003 94.3912 77.264 94.3972C100.574 94.5085 121.39 88.8242 130.296 79.9191ZM54.0909 50.9265C50.7072 45.7495 44.7567 42.293 35.6374 40.2419C45.9606 35.4128 54.5431 36.8374 60.1543 39.0774C64.3603 40.7577 67.3924 43.0827 69.1066 44.7969C69.5663 45.2566 69.9296 45.671 70.1977 46.018L54.0909 50.9265ZM42.7037 78.944L42.6171 60.5724L47.4867 60.5971L47.5632 76.4672L47.5754 78.9666L42.7037 78.944ZM60.2065 100.71C54.6026 102.92 46.0097 104.283 35.606 99.338C44.6949 97.3718 50.6091 93.9753 53.9482 88.8299L70.1114 93.8933C68.8688 95.5173 65.4755 98.6322 60.2065 100.71ZM58.9219 86.9781C56.0692 85.9718 53.3542 85.0117 50.6947 84.2985L50.5561 55.2926C52.6823 54.7404 54.8642 54.0134 57.1034 53.2479L69.9186 49.3431C72.2856 48.841 74.6653 48.5273 77.0478 48.5384C106.645 48.6789 131.695 58.589 131.756 70.1835C131.768 72.7513 130.538 75.2885 128.101 77.7249C119.875 85.9516 99.4414 91.4086 77.2587 91.3039C71.0807 91.2742 64.8993 89.0901 58.9219 86.9781Z" fill="white"/>
<path d="M102.643 60.8893C100.156 60.8752 97.8219 61.8314 96.0714 63.5819C94.3197 65.3336 93.3636 67.6678 93.3776 70.1543C93.3919 72.7177 94.4469 75.0485 96.1397 76.7412C97.8325 78.4341 100.163 79.4891 102.726 79.5023C105.212 79.5165 107.545 78.5591 109.297 76.8074C111.047 75.0569 112.005 72.7239 111.991 70.2373C111.964 65.1125 107.77 60.9179 102.643 60.8893ZM102.725 76.4091C99.2939 76.3899 96.49 73.586 96.4709 70.1553C96.4626 68.4986 97.0986 66.9432 98.2657 65.7762C99.4316 64.6102 100.987 63.9742 102.644 63.9825C104.359 63.992 105.917 64.6986 107.05 65.831C108.182 66.9636 108.888 68.5208 108.898 70.2363C108.906 71.8929 108.269 73.4472 107.103 74.6132C105.936 75.7802 104.381 76.4173 102.725 76.4091Z" fill="white"/>
<path d="M36.4391 69.4722C36.4387 68.6178 35.7444 67.9235 34.8899 67.9188L13.0618 67.8152C12.2083 67.8114 11.5163 68.4993 11.5178 69.3548C11.518 69.7831 11.6923 70.1704 11.974 70.4522C12.2537 70.7318 12.6409 70.906 13.0671 70.9084L34.8951 71.012C35.7486 71.0157 36.4408 70.3279 36.4391 69.4722Z" fill="white"/>
<path d="M19.393 62.9514C19.6726 63.2311 20.0598 63.4052 20.486 63.4077L34.8607 63.4756C35.7142 63.4792 36.4053 62.7903 36.4047 61.9357C36.4043 61.0813 35.7111 60.3859 34.8556 60.3822L20.4807 60.3144C19.6273 60.3106 18.9361 60.9997 18.9367 61.8542C18.937 62.2824 19.1112 62.6697 19.393 62.9514Z" fill="white"/>
<path d="M34.9258 75.4544L20.551 75.3866C19.6976 75.3829 19.0064 76.0719 19.007 76.9265C19.0073 77.3547 19.1814 77.7418 19.4633 78.0237C19.7428 78.3032 20.1301 78.4775 20.5562 78.4799L34.931 78.5478C35.7845 78.5514 36.4756 77.8625 36.475 77.008C36.4746 76.1536 35.7813 75.4581 34.9258 75.4544Z" fill="white"/>
</g>
<defs>
<clipPath id="clip0_64_15">
<rect width="99.3002" height="98.6897" fill="white" transform="translate(69.7832) rotate(45)"/>
</clipPath>
</defs>
</svg>
