<svg width="587" height="85" viewBox="0 0 587 85" fill="none" xmlns="http://www.w3.org/2000/svg">
<g filter="url(#filter0_d_63_6)">
<path d="M6.896 65.112C5.232 63.064 4.4 61.24 4.4 59.64C4.4 57.976 5.776 55.8 8.528 53.112C10.128 51.576 11.824 50.808 13.616 50.808C15.408 50.808 17.904 52.408 21.104 55.608C22 56.696 23.28 57.752 24.944 58.776C26.608 59.736 28.144 60.216 29.552 60.216C35.504 60.216 38.48 57.784 38.48 52.92C38.48 51.448 37.648 50.232 35.984 49.272C34.384 48.248 32.368 47.512 29.936 47.064C27.504 46.616 24.88 45.912 22.064 44.952C19.248 43.928 16.624 42.744 14.192 41.4C11.76 40.056 9.712 37.944 8.048 35.064C6.448 32.12 5.648 28.6 5.648 24.504C5.648 18.872 7.728 13.976 11.888 9.816C16.112 5.592 21.84 3.47999 29.072 3.47999C32.912 3.47999 36.4 3.99199 39.536 5.016C42.736 5.976 44.944 6.968 46.16 7.992L48.56 9.816C50.544 11.672 51.536 13.24 51.536 14.52C51.536 15.8 50.768 17.56 49.232 19.8C47.056 23 44.816 24.6 42.512 24.6C41.168 24.6 39.504 23.96 37.52 22.68C37.328 22.552 36.944 22.232 36.368 21.72C35.856 21.208 35.376 20.792 34.928 20.472C33.584 19.64 31.856 19.224 29.744 19.224C27.696 19.224 25.968 19.736 24.56 20.76C23.216 21.72 22.544 23.096 22.544 24.888C22.544 26.616 23.344 28.024 24.944 29.112C26.608 30.2 28.656 30.936 31.088 31.32C33.52 31.704 36.176 32.312 39.056 33.144C41.936 33.912 44.592 34.872 47.024 36.024C49.456 37.176 51.472 39.192 53.072 42.072C54.736 44.888 55.568 48.376 55.568 52.536C55.568 56.696 54.736 60.376 53.072 63.576C51.408 66.712 49.232 69.144 46.544 70.872C41.36 74.264 35.824 75.96 29.936 75.96C26.928 75.96 24.08 75.608 21.392 74.904C18.704 74.136 16.528 73.208 14.864 72.12C11.472 70.072 9.104 68.088 7.76 66.168L6.896 65.112ZM94.6408 29.784C95.0248 26.2 97.5528 24.408 102.225 24.408C104.721 24.408 106.577 24.6 107.793 24.984C109.009 25.368 109.841 26.04 110.289 27C110.801 27.96 111.089 28.824 111.153 29.592C111.281 30.296 111.345 31.384 111.345 32.856V66.456C111.345 67.928 111.281 69.048 111.153 69.816C111.089 70.52 110.833 71.352 110.385 72.312C109.489 73.976 107.281 74.808 103.761 74.808C100.305 74.808 97.9688 74.392 96.7528 73.56C95.6008 72.664 94.9288 71.384 94.7368 69.72C92.3688 73.112 88.4008 74.808 82.8328 74.808C77.3288 74.808 72.2088 72.28 67.4728 67.224C62.7368 62.168 60.3688 56.312 60.3688 49.656C60.3688 42.936 62.7368 37.08 67.4728 32.088C72.2728 27.032 77.5208 24.504 83.2168 24.504C85.3928 24.504 87.3768 24.888 89.1688 25.656C90.9608 26.424 92.2088 27.16 92.9128 27.864C93.6168 28.504 94.1928 29.144 94.6408 29.784ZM77.1688 49.752C77.1688 51.864 78.0008 53.784 79.6648 55.512C81.3288 57.176 83.3448 58.008 85.7128 58.008C88.0808 58.008 90.0328 57.144 91.5688 55.416C93.1688 53.688 93.9688 51.8 93.9688 49.752C93.9688 47.64 93.2008 45.688 91.6648 43.896C90.1928 42.104 88.1768 41.208 85.6168 41.208C83.1208 41.208 81.0728 42.104 79.4728 43.896C77.9368 45.688 77.1688 47.64 77.1688 49.752ZM118.996 9.048C118.996 7.576 119.028 6.488 119.092 5.784C119.22 5.016 119.508 4.152 119.956 3.192C120.852 1.464 123.348 0.599997 127.444 0.599997C131.348 0.599997 133.78 1.464 134.74 3.192C135.252 4.152 135.54 5.016 135.604 5.784C135.732 6.552 135.796 7.672 135.796 9.144V53.592C135.796 55.896 135.988 57.368 136.372 58.008C136.756 58.584 137.588 58.872 138.868 58.872C140.212 58.872 141.108 58.936 141.556 59.064C142.004 59.128 142.548 59.384 143.188 59.832C144.468 60.664 145.108 62.936 145.108 66.648C145.108 70.68 144.468 73.144 143.188 74.04C141.524 75.192 137.556 75.384 131.284 74.616C126.356 73.976 123.156 72.344 121.684 69.72C119.892 66.584 118.996 61.592 118.996 54.744V9.048ZM198.233 43.704C198.233 47.608 197.241 50.52 195.257 52.44C193.337 54.296 191.193 55.224 188.825 55.224H166.073C166.073 57.016 167.129 58.52 169.241 59.736C171.353 60.952 173.465 61.56 175.577 61.56C179.289 61.56 182.201 61.176 184.313 60.408L185.369 60.024C186.905 59.32 188.185 58.968 189.209 58.968C191.257 58.968 193.017 60.408 194.489 63.288C195.321 65.016 195.737 66.488 195.737 67.704C195.737 73.4 188.921 76.248 175.289 76.248C170.553 76.248 166.329 75.448 162.617 73.848C158.969 72.184 156.121 70.008 154.073 67.32C150.041 62.136 148.025 56.344 148.025 49.944C148.025 41.88 150.617 35.448 155.801 30.648C161.049 25.784 167.577 23.352 175.385 23.352C184.281 23.352 190.809 26.488 194.969 32.76C197.145 36.088 198.233 39.736 198.233 43.704ZM177.977 46.488C180.409 46.488 181.625 45.464 181.625 43.416C181.625 41.944 181.049 40.76 179.897 39.864C178.809 38.968 177.209 38.52 175.097 38.52C173.049 38.52 171.001 39.384 168.953 41.112C166.905 42.776 165.881 44.568 165.881 46.488H177.977ZM204.88 70.488C203.664 69.72 203.056 68.504 203.056 66.84C203.056 65.176 204.272 62.648 206.704 59.256C207.408 58.168 208.528 57.624 210.064 57.624C211.664 57.624 213.808 58.424 216.496 60.024C219.184 61.56 221.616 62.328 223.792 62.328C227.696 62.328 229.648 61.56 229.648 60.024C229.648 58.808 227.504 57.912 223.216 57.336C219.184 56.76 215.184 55.256 211.216 52.824C209.36 51.672 207.824 49.88 206.608 47.448C205.392 44.952 204.784 42.008 204.784 38.616C204.784 28.504 211.728 23.448 225.616 23.448C230.16 23.448 234.832 24.536 239.632 26.712C241.872 27.736 242.992 29.016 242.992 30.552C242.992 32.088 242.288 33.976 240.88 36.216C239.472 38.456 238.032 39.576 236.56 39.576C235.792 39.576 234.352 39.096 232.24 38.136C230.192 37.176 227.952 36.696 225.52 36.696C221.744 36.696 219.856 37.4 219.856 38.808C219.856 40.728 222.032 41.976 226.384 42.552C230.608 43 234.704 44.216 238.672 46.2C240.528 47.096 242.064 48.664 243.28 50.904C244.56 53.08 245.2 55.832 245.2 59.16C245.2 62.488 244.56 65.336 243.28 67.704C242.064 70.008 240.336 71.736 238.096 72.888C234 74.872 228.848 75.864 222.64 75.864C216.496 75.864 210.576 74.072 204.88 70.488ZM329.602 63.096C330.562 65.4 331.042 67.064 331.042 68.088C331.042 70.52 329.058 72.568 325.09 74.232C323.042 75.128 321.378 75.576 320.098 75.576C318.882 75.576 317.858 75.288 317.026 74.712C316.258 74.072 315.682 73.432 315.298 72.792C314.658 71.576 312.162 65.784 307.81 55.416L304.834 55.608H292.738V66.456C292.738 67.928 292.674 69.048 292.546 69.816C292.482 70.52 292.194 71.352 291.682 72.312C290.786 74.04 288.29 74.904 284.194 74.904C279.714 74.904 277.09 73.72 276.322 71.352C275.938 70.264 275.746 68.6 275.746 66.36V13.08C275.746 11.608 275.778 10.52 275.842 9.816C275.97 9.048 276.29 8.184 276.802 7.224C277.698 5.496 280.194 4.632 284.29 4.632H305.026C310.658 4.632 316.13 6.68 321.442 10.776C324.002 12.76 326.114 15.448 327.778 18.84C329.442 22.232 330.274 26.008 330.274 30.168C330.274 37.4 327.874 43.352 323.074 48.024C324.482 51.416 326.658 56.44 329.602 63.096ZM292.738 38.616H305.026C306.882 38.616 308.738 37.912 310.594 36.504C312.45 35.096 313.378 32.984 313.378 30.168C313.378 27.352 312.45 25.24 310.594 23.832C308.738 22.36 306.818 21.624 304.834 21.624H292.738V38.616ZM332.994 49.752C332.994 42.072 335.682 35.736 341.058 30.744C346.434 25.752 352.578 23.256 359.49 23.256C366.402 23.256 372.514 25.752 377.826 30.744C383.138 35.672 385.794 41.976 385.794 49.656C385.794 54.968 384.418 59.704 381.666 63.864C378.914 67.96 375.554 71 371.586 72.984C367.682 74.904 363.618 75.864 359.394 75.864C355.17 75.864 351.074 74.84 347.106 72.792C343.138 70.68 339.778 67.608 337.026 63.576C334.338 59.48 332.994 54.872 332.994 49.752ZM353.058 56.664C355.106 58.2 357.186 58.968 359.298 58.968C361.41 58.968 363.522 58.168 365.634 56.568C367.746 54.968 368.802 52.6 368.802 49.464C368.802 46.328 367.81 43.992 365.826 42.456C363.842 40.92 361.698 40.152 359.394 40.152C357.09 40.152 354.946 40.952 352.962 42.552C350.978 44.152 349.986 46.52 349.986 49.656C349.986 52.728 351.01 55.064 353.058 56.664ZM407.836 49.752C407.836 52.44 408.732 54.552 410.524 56.088C412.316 57.56 414.204 58.296 416.188 58.296C418.236 58.296 420.124 57.72 421.852 56.568C423.644 55.352 425.084 54.744 426.172 54.744C428.092 54.744 430.428 56.44 433.18 59.832C434.652 61.688 435.388 63.352 435.388 64.824C435.388 67.256 433.628 69.528 430.108 71.64C426.46 74.2 421.98 75.48 416.668 75.48C410.716 75.48 404.988 73.336 399.484 69.048C396.86 67 394.716 64.28 393.052 60.888C391.388 57.432 390.556 53.656 390.556 49.56C390.556 45.4 391.388 41.656 393.052 38.328C394.716 34.936 396.86 32.216 399.484 30.168C404.796 25.944 410.46 23.832 416.476 23.832C418.908 23.832 421.276 24.184 423.58 24.888C425.884 25.528 427.58 26.168 428.668 26.808L430.204 27.768C431.356 28.536 432.252 29.144 432.892 29.592C434.556 30.872 435.388 32.344 435.388 34.008C435.388 35.608 434.716 37.432 433.372 39.48C431.068 43 428.86 44.76 426.748 44.76C425.532 44.76 423.804 44.056 421.564 42.648C420.412 41.56 418.748 41.016 416.572 41.016C414.46 41.016 412.476 41.784 410.62 43.32C408.764 44.856 407.836 47 407.836 49.752ZM471.35 49.656L484.118 60.216C485.718 61.56 486.71 62.584 487.094 63.288C487.542 63.992 487.766 64.664 487.766 65.304C487.766 66.84 486.774 68.92 484.79 71.544C482.614 74.232 480.694 75.576 479.03 75.576C477.622 75.576 475.67 74.648 473.174 72.792L472.214 72.12C470.742 70.904 468.47 68.792 465.398 65.784C462.326 62.712 459.99 60.536 458.39 59.256V66.648C458.39 68.12 458.326 69.24 458.198 70.008C458.134 70.712 457.846 71.544 457.334 72.504C456.502 74.168 454.038 75 449.942 75C445.91 75 443.446 74.136 442.55 72.408C442.102 71.448 441.814 70.616 441.686 69.912C441.622 69.144 441.59 68.024 441.59 66.552V9.048C441.59 7.576 441.622 6.488 441.686 5.784C441.814 5.016 442.102 4.152 442.55 3.192C443.446 1.464 445.942 0.599997 450.038 0.599997C453.11 0.599997 455.286 1.144 456.566 2.232C457.654 3.128 458.23 4.536 458.294 6.456C458.358 7.032 458.39 7.928 458.39 9.144V39.576C459.542 38.616 461.27 36.984 463.574 34.68C465.942 32.376 467.702 30.744 468.854 29.784L470.006 29.016C472.246 27.288 474.166 26.424 475.766 26.424C477.366 26.424 479.19 27.736 481.238 30.36C483.35 32.92 484.406 34.936 484.406 36.408C484.406 37.88 483.222 39.608 480.854 41.592L471.35 49.656ZM538.921 43.704C538.921 47.608 537.929 50.52 535.945 52.44C534.025 54.296 531.881 55.224 529.513 55.224H506.761C506.761 57.016 507.817 58.52 509.929 59.736C512.041 60.952 514.153 61.56 516.265 61.56C519.977 61.56 522.889 61.176 525.001 60.408L526.057 60.024C527.593 59.32 528.873 58.968 529.897 58.968C531.945 58.968 533.705 60.408 535.177 63.288C536.009 65.016 536.425 66.488 536.425 67.704C536.425 73.4 529.609 76.248 515.977 76.248C511.241 76.248 507.017 75.448 503.305 73.848C499.657 72.184 496.809 70.008 494.761 67.32C490.729 62.136 488.713 56.344 488.713 49.944C488.713 41.88 491.305 35.448 496.489 30.648C501.737 25.784 508.265 23.352 516.073 23.352C524.969 23.352 531.497 26.488 535.656 32.76C537.833 36.088 538.921 39.736 538.921 43.704ZM518.665 46.488C521.097 46.488 522.313 45.464 522.313 43.416C522.313 41.944 521.737 40.76 520.585 39.864C519.497 38.968 517.897 38.52 515.785 38.52C513.737 38.52 511.689 39.384 509.641 41.112C507.593 42.776 506.569 44.568 506.569 46.488H518.665ZM573.622 41.4L567.382 41.016V54.264C567.382 55.992 567.638 57.24 568.15 58.008C568.726 58.776 569.75 59.16 571.222 59.16C572.758 59.16 573.91 59.224 574.678 59.352C575.51 59.416 576.374 59.704 577.27 60.216C578.742 61.048 579.478 63.192 579.478 66.648C579.478 70.68 578.582 73.144 576.79 74.04C575.83 74.488 574.966 74.776 574.198 74.904C573.494 74.968 572.438 75 571.03 75C564.374 75 559.318 73.496 555.862 70.488C552.406 67.48 550.678 62.392 550.678 55.224V41.016C549.462 41.208 548.15 41.304 546.742 41.304C545.334 41.304 544.15 40.76 543.19 39.672C542.294 38.584 541.846 36.728 541.846 34.104C541.846 31.48 542.006 29.592 542.326 28.44C542.646 27.224 543.094 26.36 543.67 25.848C544.694 25.016 545.974 24.6 547.51 24.6L550.678 24.984V15.096C550.678 13.624 550.71 12.536 550.774 11.832C550.902 11.128 551.222 10.36 551.734 9.528C552.566 7.928 555.03 7.128 559.126 7.128C563.478 7.128 566.07 8.312 566.902 10.68C567.222 11.704 567.382 13.336 567.382 15.576V24.984C570.198 24.728 572.31 24.6 573.718 24.6C575.19 24.6 576.278 24.664 576.982 24.792C577.75 24.856 578.614 25.144 579.574 25.656C581.238 26.488 582.07 28.952 582.07 33.048C582.07 37.08 581.206 39.544 579.478 40.44C578.518 40.888 577.654 41.176 576.886 41.304C576.182 41.368 575.094 41.4 573.622 41.4Z" fill="white"/>
</g>
<defs>
<filter id="filter0_d_63_6" x="0.400391" y="0.599609" width="585.67" height="83.6484" filterUnits="userSpaceOnUse" color-interpolation-filters="sRGB">
<feFlood flood-opacity="0" result="BackgroundImageFix"/>
<feColorMatrix in="SourceAlpha" type="matrix" values="0 0 0 0 0 0 0 0 0 0 0 0 0 0 0 0 0 0 127 0" result="hardAlpha"/>
<feOffset dy="4"/>
<feGaussianBlur stdDeviation="2"/>
<feComposite in2="hardAlpha" operator="out"/>
<feColorMatrix type="matrix" values="0 0 0 0 0 0 0 0 0 0 0 0 0 0 0 0 0 0 0.25 0"/>
<feBlend mode="normal" in2="BackgroundImageFix" result="effect1_dropShadow_63_6"/>
<feBlend mode="normal" in="SourceGraphic" in2="effect1_dropShadow_63_6" result="shape"/>
</filter>
</defs>
</svg>
