<svg width="96" height="34" viewBox="0 0 96 34" fill="none" xmlns="http://www.w3.org/2000/svg">
<g filter="url(#filter0_d_58_636)">
<path d="M5.632 21.704C5.07733 21.0213 4.8 20.4133 4.8 19.88C4.8 19.3253 5.25867 18.6 6.176 17.704C6.70933 17.192 7.27467 16.936 7.872 16.936C8.46933 16.936 9.30133 17.4693 10.368 18.536C10.6667 18.8987 11.0933 19.2507 11.648 19.592C12.2027 19.912 12.7147 20.072 13.184 20.072C15.168 20.072 16.16 19.2613 16.16 17.64C16.16 17.1493 15.8827 16.744 15.328 16.424C14.7947 16.0827 14.1227 15.8373 13.312 15.688C12.5013 15.5387 11.6267 15.304 10.688 14.984C9.74933 14.6427 8.87467 14.248 8.064 13.8C7.25333 13.352 6.57067 12.648 6.016 11.688C5.48267 10.7067 5.216 9.53333 5.216 8.168C5.216 6.29067 5.90933 4.65867 7.296 3.272C8.704 1.864 10.6133 1.16 13.024 1.16C14.304 1.16 15.4667 1.33066 16.512 1.672C17.5787 1.992 18.3147 2.32267 18.72 2.664L19.52 3.272C20.1813 3.89067 20.512 4.41333 20.512 4.84C20.512 5.26667 20.256 5.85333 19.744 6.6C19.0187 7.66667 18.272 8.2 17.504 8.2C17.056 8.2 16.5013 7.98667 15.84 7.56C15.776 7.51733 15.648 7.41067 15.456 7.24C15.2853 7.06933 15.1253 6.93067 14.976 6.824C14.528 6.54667 13.952 6.408 13.248 6.408C12.5653 6.408 11.9893 6.57867 11.52 6.92C11.072 7.24 10.848 7.69867 10.848 8.296C10.848 8.872 11.1147 9.34133 11.648 9.704C12.2027 10.0667 12.8853 10.312 13.696 10.44C14.5067 10.568 15.392 10.7707 16.352 11.048C17.312 11.304 18.1973 11.624 19.008 12.008C19.8187 12.392 20.4907 13.064 21.024 14.024C21.5787 14.9627 21.856 16.1253 21.856 17.512C21.856 18.8987 21.5787 20.1253 21.024 21.192C20.4693 22.2373 19.744 23.048 18.848 23.624C17.12 24.7547 15.2747 25.32 13.312 25.32C12.3093 25.32 11.36 25.2027 10.464 24.968C9.568 24.712 8.84267 24.4027 8.288 24.04C7.15733 23.3573 6.368 22.696 5.92 22.056L5.632 21.704ZM23.4563 16.584C23.4563 14.024 24.3523 11.912 26.1443 10.248C27.9363 8.584 29.9843 7.752 32.2883 7.752C34.5923 7.752 36.6296 8.584 38.4003 10.248C40.1709 11.8907 41.0563 13.992 41.0563 16.552C41.0563 18.3227 40.5976 19.9013 39.6803 21.288C38.7629 22.6533 37.6429 23.6667 36.3203 24.328C35.0189 24.968 33.6643 25.288 32.2563 25.288C30.8483 25.288 29.4829 24.9467 28.1603 24.264C26.8376 23.56 25.7176 22.536 24.8003 21.192C23.9043 19.8267 23.4563 18.2907 23.4563 16.584ZM30.1443 18.888C30.8269 19.4 31.5203 19.656 32.2243 19.656C32.9283 19.656 33.6323 19.3893 34.3363 18.856C35.0403 18.3227 35.3923 17.5333 35.3923 16.488C35.3923 15.4427 35.0616 14.664 34.4003 14.152C33.7389 13.64 33.0243 13.384 32.2563 13.384C31.4883 13.384 30.7736 13.6507 30.1123 14.184C29.4509 14.7173 29.1203 15.5067 29.1203 16.552C29.1203 17.576 29.4616 18.3547 30.1443 18.888ZM52.3718 8.168C54.2704 8.168 56.0091 9.01067 57.5878 10.696C59.1878 12.3813 59.9878 14.344 59.9878 16.584C59.9878 18.8027 59.1984 20.7547 57.6198 22.44C56.0411 24.104 54.3451 24.936 52.5318 24.936C50.7184 24.936 49.4278 24.424 48.6598 23.4C48.4891 24.4453 47.5718 24.968 45.9078 24.968C44.5638 24.968 43.7424 24.68 43.4438 24.104C43.2944 23.784 43.1984 23.5067 43.1558 23.272C43.1344 23.016 43.1238 22.6427 43.1238 22.152V3.048C43.1238 2.55733 43.1344 2.19467 43.1558 1.96C43.1984 1.704 43.2944 1.42666 43.4438 1.128C43.7424 0.551998 44.5744 0.263998 45.9398 0.263998C47.2838 0.263998 48.0944 0.551998 48.3718 1.128C48.5424 1.448 48.6384 1.736 48.6598 1.992C48.7024 2.22667 48.7238 2.58933 48.7238 3.08V9.736C49.5771 8.69067 50.7931 8.168 52.3718 8.168ZM49.5558 18.504C50.0891 19.08 50.7504 19.368 51.5398 19.368C52.3291 19.368 53.0011 19.08 53.5558 18.504C54.1104 17.928 54.3878 17.288 54.3878 16.584C54.3878 15.88 54.1318 15.24 53.6198 14.664C53.1078 14.0667 52.4251 13.768 51.5718 13.768C50.7184 13.768 50.0358 14.0667 49.5238 14.664C49.0331 15.2613 48.7878 15.912 48.7878 16.616C48.7878 17.2987 49.0438 17.928 49.5558 18.504ZM73.5173 8.328C73.9226 8.456 74.2533 8.68 74.5093 9C74.7866 9.29867 74.9253 9.78933 74.9253 10.472C74.9253 11.1547 74.7226 11.9013 74.3173 12.712C73.9119 13.5227 73.3253 13.928 72.5573 13.928C72.1733 13.928 71.7999 13.8427 71.4373 13.672C71.0959 13.5013 70.6373 13.416 70.0613 13.416C69.4853 13.416 68.9413 13.6187 68.4293 14.024C67.9386 14.4293 67.6933 14.92 67.6933 15.496V22.216C67.6933 22.7067 67.6719 23.08 67.6293 23.336C67.6079 23.5707 67.5119 23.848 67.3413 24.168C67.0213 24.7227 66.1893 25 64.8453 25C63.8213 25 63.0853 24.8187 62.6373 24.456C62.2959 24.1573 62.1039 23.6987 62.0613 23.08C62.0613 22.8667 62.0613 22.5573 62.0613 22.152V10.92C62.0613 10.4293 62.0719 10.0667 62.0933 9.832C62.1359 9.576 62.2319 9.29867 62.3813 9C62.6799 8.424 63.5119 8.136 64.8773 8.136C66.1573 8.136 66.9573 8.38133 67.2773 8.872C67.5119 9.21333 67.6293 9.56533 67.6293 9.928C67.7359 9.77867 67.8853 9.59733 68.0773 9.384C68.2906 9.17067 68.7279 8.88267 69.3893 8.52C70.0506 8.15733 70.6266 7.976 71.1173 7.976C71.6293 7.976 72.0559 8.008 72.3973 8.072C72.7386 8.11467 73.1119 8.2 73.5173 8.328ZM91.9735 14.568C91.9735 15.8693 91.6428 16.84 90.9815 17.48C90.3415 18.0987 89.6268 18.408 88.8375 18.408H81.2535C81.2535 19.0053 81.6055 19.5067 82.3095 19.912C83.0135 20.3173 83.7175 20.52 84.4215 20.52C85.6588 20.52 86.6295 20.392 87.3335 20.136L87.6855 20.008C88.1975 19.7733 88.6242 19.656 88.9655 19.656C89.6482 19.656 90.2348 20.136 90.7255 21.096C91.0028 21.672 91.1415 22.1627 91.1415 22.568C91.1415 24.4667 88.8695 25.416 84.3255 25.416C82.7468 25.416 81.3388 25.1493 80.1015 24.616C78.8855 24.0613 77.9362 23.336 77.2535 22.44C75.9095 20.712 75.2375 18.7813 75.2375 16.648C75.2375 13.96 76.1015 11.816 77.8295 10.216C79.5788 8.59467 81.7548 7.784 84.3575 7.784C87.3228 7.784 89.4988 8.82933 90.8855 10.92C91.6108 12.0293 91.9735 13.2453 91.9735 14.568ZM85.2215 15.496C86.0322 15.496 86.4375 15.1547 86.4375 14.472C86.4375 13.9813 86.2455 13.5867 85.8615 13.288C85.4988 12.9893 84.9655 12.84 84.2615 12.84C83.5788 12.84 82.8962 13.128 82.2135 13.704C81.5308 14.2587 81.1895 14.856 81.1895 15.496H85.2215Z" fill="white"/>
</g>
<defs>
<filter id="filter0_d_58_636" x="0.800781" y="0.263672" width="95.1719" height="33.1523" filterUnits="userSpaceOnUse" color-interpolation-filters="sRGB">
<feFlood flood-opacity="0" result="BackgroundImageFix"/>
<feColorMatrix in="SourceAlpha" type="matrix" values="0 0 0 0 0 0 0 0 0 0 0 0 0 0 0 0 0 0 127 0" result="hardAlpha"/>
<feOffset dy="4"/>
<feGaussianBlur stdDeviation="2"/>
<feComposite in2="hardAlpha" operator="out"/>
<feColorMatrix type="matrix" values="0 0 0 0 0 0 0 0 0 0 0 0 0 0 0 0 0 0 0.25 0"/>
<feBlend mode="normal" in2="BackgroundImageFix" result="effect1_dropShadow_58_636"/>
<feBlend mode="normal" in="SourceGraphic" in2="effect1_dropShadow_58_636" result="shape"/>
</filter>
</defs>
</svg>
