<svg width="1932" height="891" viewBox="0 0 1932 891" fill="none" xmlns="http://www.w3.org/2000/svg">
<g clip-path="url(#clip0_57_5)">
<path d="M400.74 0L396.966 4.95L391.684 0H400.74Z" fill="#B8BAB6"/>
<path d="M0 300.094L8.30156 305.044L0 308.137V300.094Z" fill="#679ACB"/>
<path d="M590.166 890.381L596.204 886.05L596.958 890.381H590.166Z" fill="#7796B3"/>
<path d="M1434.66 88.4814L1441.45 97.7627L1433.91 103.331L1426.36 97.7627L1434.66 88.4814Z" fill="#679ACB"/>
<path d="M494.32 404.044L483 409.613L477.717 403.425L486.018 397.856L494.32 404.044Z" fill="#585B5C"/>
<path d="M1042.22 754.256L1027.88 757.35L1026.38 754.875L1036.19 748.688L1042.22 754.256Z" fill="#A0A3A0"/>
<path d="M64.1488 564.918L58.1113 559.35L62.6395 553.781L69.4316 558.731L64.1488 564.918ZM522.244 334.125L515.452 329.175L519.225 324.225L522.244 334.125Z" fill="#7796B3"/>
<path d="M806.007 180.675L797.705 188.1L801.479 176.963L806.007 180.675ZM624.882 868.725L618.09 872.438L613.562 868.725L618.09 865.013L624.882 868.725ZM199.238 106.425L206.785 96.5254L209.804 99.0004L201.502 110.138L199.238 106.425Z" fill="#90B0C1"/>
<path d="M1431.64 281.531L1425.61 272.25L1430.89 269.156L1431.64 281.531Z" fill="#679ACB"/>
<path d="M586.391 477.057L581.863 471.488L586.391 467.775L590.92 471.488L586.391 477.057Z" fill="#90B0C1"/>
<path d="M381.871 297.619L389.418 289.575L393.946 295.144L384.89 300.094L381.871 297.619Z" fill="#7796B3"/>
<path d="M1209.01 798.806L1203.73 800.662L1199.95 796.331L1209.01 798.806Z" fill="#8EB9D4"/>
<path d="M351.685 870.581L346.402 865.631L350.176 861.3L355.459 865.012L351.685 870.581Z" fill="#C0C3C0"/>
<path d="M673.182 438.694L675.446 426.938L680.729 431.269L673.182 438.694Z" fill="#BADDE4"/>
<path d="M1542.58 136.125L1538.05 139.837L1532.77 137.362L1537.3 131.175L1542.58 136.125Z" fill="#ACAEAB"/>
<path d="M695.821 472.725L689.029 475.819L685.255 472.106L689.784 468.394L695.821 472.725ZM661.86 569.869L665.634 574.819L660.351 577.912L657.332 575.437L661.86 569.869Z" fill="#C0C3C0"/>
<path d="M1283.72 649.688L1285.99 654.637L1282.21 657.112L1279.2 654.019L1283.72 649.688Z" fill="#7796B3"/>
<path d="M1501.83 184.388L1495.04 188.719L1498.05 179.438L1501.83 184.388Z" fill="#EFF3F0"/>
<path d="M1836.16 612.563L1830.87 615.038L1827.85 611.325L1832.38 608.85L1836.16 612.563Z" fill="#B8BAB6"/>
<path d="M344.138 207.9L345.648 214.707L338.855 207.9H344.138Z" fill="#DADCD9"/>
<path d="M1834.64 568.012L1840.68 564.3L1843.7 566.775L1840.68 571.725L1834.64 568.012Z" fill="#C0C3C0"/>
<path d="M1215.05 879.862L1211.27 875.531L1215.05 873.056V879.862Z" fill="#DAE777"/>
<path d="M425.645 379.913H414.324L419.607 376.2L425.645 379.913Z" fill="#CED2CF"/>
<path d="M504.132 285.244L501.113 282.769L504.132 279.675L507.151 282.769L504.132 285.244Z" fill="#DAE777"/>
<path d="M541.111 47.6441L530.545 47.0254L534.318 43.9316L541.111 47.6441Z" fill="#679ACB"/>
<path d="M615.071 81.0562L606.77 79.8187L609.788 77.3438L615.071 81.0562Z" fill="#EFF3F0"/>
<path d="M498.849 483.862L504.887 490.669L493.566 486.337L498.849 483.862Z" fill="#607080"/>
<path d="M145.654 69.2998L141.126 71.1561L138.107 69.2998L141.881 66.2061L145.654 69.2998Z" fill="#25425E"/>
<path d="M415.079 19.7998L409.041 23.5123L405.268 19.7998H415.079Z" fill="#90B0C1"/>
<path d="M195.465 596.475L196.22 604.519L191.691 601.425L195.465 596.475Z" fill="#C0C3C0"/>
<path d="M598.467 850.781L595.448 853.256L590.92 851.4L598.467 850.781Z" fill="#B8BAB6"/>
<path d="M513.942 835.931L517.716 841.5L513.188 843.975L513.942 835.931Z" fill="#CED2CF"/>
<path d="M1373.53 652.162L1367.49 653.4L1365.98 649.687L1369.76 647.831L1373.53 652.162Z" fill="#B8BAB6"/>
<path d="M1004.49 748.688L1006.75 751.781L1002.22 756.112L1004.49 748.688Z" fill="#ACAEAB"/>
<path d="M794.686 246.881L798.459 253.687L795.44 256.162L794.686 246.881ZM1052.79 748.687L1049.02 750.543L1046 747.45L1052.79 748.687Z" fill="#90B0C1"/>
<path d="M1052.79 712.8L1049.77 714.656L1046.75 711.563L1049.77 710.325L1052.79 712.8Z" fill="#C0C3C0"/>
<path d="M1712.39 288.337H1704.08L1707.1 285.862L1712.39 288.337Z" fill="#7796B3"/>
<path d="M1095.05 139.219L1089.01 142.312L1086.75 139.837L1089.77 136.125L1095.05 139.219Z" fill="#DADCD9"/>
<path d="M1437.68 593.381L1434.66 595.856L1430.89 593.381H1437.68Z" fill="#7796B3"/>
<path d="M407.531 551.925L406.021 543.881L410.55 546.356L407.531 551.925Z" fill="#90B0C1"/>
<path d="M502.621 460.35L505.64 462.825L503.376 465.918L502.621 460.35Z" fill="#7796B3"/>
<path d="M1775.78 853.875L1770.5 856.969L1768.23 854.494L1772.01 851.4L1775.78 853.875Z" fill="#8EB9D4"/>
<path d="M1678.43 95.9066L1681.44 93.4316L1684.46 95.9066L1682.2 98.3816L1678.43 95.9066Z" fill="#C0C3C0"/>
<path d="M371.307 476.438L378.854 480.769L372.816 483.862L371.307 476.438Z" fill="#679ACB"/>
<path d="M963.736 308.138L958.453 308.756L956.943 305.044L963.736 308.138Z" fill="#CED2CF"/>
<path d="M451.304 739.406L448.285 741.881L444.512 739.406H451.304Z" fill="#3C4855"/>
<path d="M676.2 300.713L667.898 298.238L670.162 295.763L676.2 300.713Z" fill="#3C4855"/>
<path d="M1083.73 651.544L1079.96 653.4L1076.94 650.925L1080.71 649.069L1083.73 651.544Z" fill="#607080"/>
<path d="M419.607 412.706L422.626 415.8L418.098 418.275L419.607 412.706Z" fill="#A0A3A0"/>
<path d="M1229.39 16.7061L1226.37 19.7998L1222.59 16.7061H1229.39Z" fill="#8EB9D4"/>
<path d="M676.199 300.713L682.237 304.425L680.727 306.282L676.199 300.713Z" fill="#ACAEAB"/>
<path d="M1486.73 678.769L1484.47 675.675L1487.49 673.819L1489.75 676.294L1486.73 678.769Z" fill="#607080"/>
<path d="M1141.09 194.287L1137.31 195.525L1138.82 189.956L1141.09 194.287Z" fill="#CED2CF"/>
<path d="M526.018 842.737L522.244 838.406L525.263 836.55L529.036 839.644L526.018 842.737Z" fill="#6A6E6F"/>
<path d="M599.221 199.237L595.448 201.712L593.184 198L599.221 199.237Z" fill="#DADCD9"/>
<path d="M280.745 752.4L283.763 754.875L281.499 757.35L278.48 755.494L280.745 752.4Z" fill="#C0C3C0"/>
<path d="M1345.61 634.219L1341.83 635.456L1340.32 633.6L1343.34 631.125L1345.61 634.219Z" fill="#3C4855"/>
<path d="M1164.48 526.557L1162.22 522.844L1165.24 520.369L1167.5 522.225L1164.48 526.557Z" fill="#C0C3C0"/>
<path d="M243.009 827.269L239.236 830.362L236.217 827.269H243.009Z" fill="#CED2CF"/>
<path d="M1532.02 439.932L1534.28 443.644L1531.26 445.5L1532.02 439.932Z" fill="#3C4855"/>
<path d="M1436.92 882.956L1433.91 880.481L1436.92 876.769L1439.94 878.625L1436.92 882.956Z" fill="#B8BAB6"/>
<path d="M1357.68 548.212L1351.65 550.688L1348.63 547.594L1357.68 548.212Z" fill="#A0A3A0"/>
<path d="M799.969 782.1L793.932 783.956L795.441 780.862L799.969 782.1Z" fill="#B8BAB6"/>
<path d="M1838.42 781.481L1840.68 783.956L1837.66 786.431L1835.4 783.956L1838.42 781.481Z" fill="#C0C3C0"/>
<path d="M329.044 11.1377L328.289 17.9439L326.025 16.7064L329.044 11.1377Z" fill="#737777"/>
<path d="M264.141 801.9L262.631 803.756L260.367 803.138L261.122 801.281L264.141 801.9Z" fill="#36393B"/>
<path d="M415.079 822.938L418.098 825.413L417.343 827.269L414.324 826.65L415.079 822.938Z" fill="#828685"/>
<path d="M1303.34 25.9871L1301.08 27.2246L1298.82 24.7496L1301.84 24.1309L1303.34 25.9871Z" fill="#4D5252"/>
<path d="M736.576 29.0814L732.802 30.3189L731.293 29.0814L733.557 26.6064L736.576 29.0814Z" fill="#6A6E6F"/>
<path d="M1836.15 834.075L1837.66 831.6L1839.93 835.931L1836.15 834.075Z" fill="#737777"/>
<path d="M436.965 38.9809L433.191 37.1246L436.21 33.4121L436.965 38.9809Z" fill="#DADCD9"/>
<path d="M707.896 38.3623L710.915 40.2186L709.406 43.3123L707.896 38.3623Z" fill="#CED2CF"/>
<path d="M973.547 41.4561L976.566 43.3123L975.056 45.7873L973.547 41.4561Z" fill="#DAE777"/>
<path d="M1464.85 840.263L1462.58 837.788H1467.87L1464.85 840.263Z" fill="#EFF3F0"/>
<path d="M190.937 853.875L190.182 855.731L187.918 854.494L188.673 852.638L190.937 853.875Z" fill="#36393B"/>
<path d="M1609.75 853.875L1608.24 856.35L1605.22 854.494L1605.98 852.638L1609.75 853.875Z" fill="#6A6E6F"/>
<path d="M1559.94 64.9684L1558.43 61.2559L1562.96 64.3496L1559.94 64.9684Z" fill="#828685"/>
<path d="M599.221 67.4441L596.957 68.6816L594.693 66.2066L597.712 65.5879L599.221 67.4441Z" fill="#4D5252"/>
<path d="M1559.94 64.9684L1562.96 64.3496L1563.71 69.9184L1559.94 64.9684Z" fill="#DAE777"/>
<path d="M1578.81 70.5375L1577.3 71.775L1575.79 69.3L1577.3 68.0625L1578.81 70.5375Z" fill="#A0A3A0"/>
<path d="M511.678 856.35L509.414 859.444L505.641 858.206L507.905 854.494L511.678 856.35Z" fill="#DADCD9"/>
<path d="M1497.3 861.919L1493.53 863.775L1491.26 861.3L1497.3 861.919Z" fill="#737777"/>
<path d="M1895.77 84.1504L1895.02 81.6754L1897.28 81.0566L1898.04 82.9129L1895.77 84.1504Z" fill="#6A6E6F"/>
<path d="M291.31 85.3873L286.782 87.2436L284.518 84.7686L291.31 85.3873Z" fill="#B8BAB6"/>
<path d="M1242.22 865.631L1233.16 864.394L1236.93 862.538L1242.22 865.631Z" fill="#90B0C1"/>
<path d="M1821.82 863.775L1824.08 867.487L1821.06 869.344L1821.82 863.775Z" fill="#DADCD9"/>
<path d="M1762.19 878.625L1758.42 879.862L1756.91 878.006L1759.93 876.15L1762.19 878.625Z" fill="#606364"/>
<path d="M1680.69 878.006L1679.93 884.813L1676.92 884.194L1680.69 878.006Z" fill="#607080"/>
<path d="M199.238 106.425L201.502 110.137L197.729 110.756L199.238 106.425Z" fill="#CED2CF"/>
<path d="M286.027 107.662L282.254 110.756L278.48 108.9L286.027 107.662Z" fill="#EFF3F0"/>
<path d="M1246.74 431.888L1244.48 428.794H1249.76L1246.74 431.888Z" fill="#ACAEAB"/>
<path d="M587.146 133.65L585.637 131.794L588.655 130.557L589.41 132.413L587.146 133.65Z" fill="#3C4855"/>
<path d="M607.523 137.362L604.504 139.218L605.259 135.506L607.523 137.362Z" fill="#BADDE4"/>
<path d="M912.418 137.363H907.135L910.154 134.888L912.418 137.363Z" fill="#4D5252"/>
<path d="M675.446 149.119L671.673 149.738L670.918 147.882L673.937 146.025L675.446 149.119Z" fill="#828685"/>
<path d="M1834.64 156.544L1832.38 153.45H1837.66L1834.64 156.544Z" fill="#ACAEAB"/>
<path d="M1613.52 155.925L1607.48 159.637L1604.46 156.544L1613.52 155.925Z" fill="#C0C3C0"/>
<path d="M1657.29 186.863L1653.52 187.481L1652.01 185.625L1655.79 184.388L1657.29 186.863Z" fill="#585B5C"/>
<path d="M1322.21 189.956L1325.23 190.575L1323.72 192.431L1321.46 191.812L1322.21 189.956Z" fill="#434545"/>
<path d="M276.97 218.419L279.234 219.656L278.48 221.513L275.461 220.275L276.97 218.419Z" fill="#434545"/>
<path d="M1289.01 230.175L1290.52 228.318L1294.29 230.175L1292.78 232.031L1289.01 230.175Z" fill="#607080"/>
<path d="M1219.57 232.031L1218.07 235.125L1215.05 232.65L1215.8 230.794L1219.57 232.031Z" fill="#DADCD9"/>
<path d="M586.392 240.075L581.109 243.788L581.864 238.838L586.392 240.075Z" fill="#606364"/>
<path d="M1740.31 240.693V245.643L1738.04 243.787L1740.31 240.693Z" fill="#828685"/>
<path d="M630.918 253.687V248.737L633.937 251.212L630.918 253.687Z" fill="#C0C3C0"/>
<path d="M535.073 253.687L532.055 255.544L532.809 251.831L535.073 253.687Z" fill="#DADCD9"/>
<path d="M948.643 256.781L949.397 254.925L952.416 255.544L950.907 258.019L948.643 256.781Z" fill="#36393B"/>
<path d="M1825.59 259.256L1822.57 261.113L1819.55 258.019L1823.32 256.781L1825.59 259.256Z" fill="#DADCD9"/>
<path d="M424.889 263.587L426.398 262.35L428.662 264.825L425.643 265.443L424.889 263.587Z" fill="#4D5252"/>
<path d="M407.532 268.538L405.268 267.919L406.022 266.062L409.041 266.681L407.532 268.538Z" fill="#585B5C"/>
<path d="M624.882 274.106L621.108 276.581L620.354 272.25L624.882 274.106Z" fill="#90B0C1"/>
<path d="M450.548 284.006L454.321 285.862H443.756L450.548 284.006Z" fill="#A0A3A0"/>
<path d="M1728.23 290.194L1724.46 292.05L1721.44 288.338L1728.23 290.194Z" fill="#DADCD9"/>
<path d="M713.179 311.85L710.16 308.756L713.179 305.662L716.198 307.518L713.179 311.85Z" fill="#A0A3A0"/>
<path d="M1274.67 317.419L1273.16 319.894L1270.14 318.657L1270.89 316.182L1274.67 317.419Z" fill="#606364"/>
<path d="M1387.12 331.65L1385.61 333.506L1384.85 330.412L1387.12 331.65Z" fill="#585B5C"/>
<path d="M632.428 340.932L630.164 339.694L630.919 337.838L633.183 338.457L632.428 340.932Z" fill="#36393B"/>
<path d="M1818.04 342.787L1820.31 343.406L1819.55 345.881L1817.29 344.643L1818.04 342.787Z" fill="#434545"/>
<path d="M246.782 349.594L244.518 351.45L242.254 348.356L245.273 345.263L246.782 349.594Z" fill="#C0C3C0"/>
<path d="M1386.36 346.5L1384.85 348.975L1381.83 347.737L1382.59 345.881L1386.36 346.5Z" fill="#737777"/>
<path d="M1034.68 365.681L1031.66 366.3L1030.9 364.444L1033.17 363.825L1034.68 365.681Z" fill="#36393B"/>
<path d="M1162.22 371.869L1165.99 370.013L1168.26 372.488L1165.24 374.344L1162.22 371.869Z" fill="#C0C3C0"/>
<path d="M943.359 383.006L941.85 381.15L944.868 380.531L946.378 382.388L943.359 383.006Z" fill="#ACAEAB"/>
<path d="M171.315 386.719L166.787 387.956L165.277 385.481L171.315 386.719ZM1434.66 391.669L1433.91 386.719L1436.93 387.956L1434.66 391.669Z" fill="#8D999A"/>
<path d="M414.323 392.906L411.304 396L408.285 394.144L410.549 391.669L414.323 392.906Z" fill="#B8BAB6"/>
<path d="M58.1105 415.8L57.3559 417.657L55.0918 417.038L55.8465 415.182L58.1105 415.8Z" fill="#36393B"/>
<path d="M1841.44 420.131H1835.4L1839.17 417.037L1841.44 420.131Z" fill="#B8BAB6"/>
<path d="M185.654 426.319L182.635 421.369L187.163 418.894L185.654 426.319Z" fill="#BADDE4"/>
<path d="M389.418 421.368L391.682 420.131L393.191 422.606L390.927 423.225L389.418 421.368Z" fill="#434545"/>
<path d="M1189.39 425.081L1187.88 426.318L1186.37 423.843L1188.63 423.225L1189.39 425.081Z" fill="#4D5252"/>
<path d="M693.557 454.162L695.821 455.4L695.067 457.256L692.803 456.018L693.557 454.162Z" fill="#36393B"/>
<path d="M889.777 464.682L892.041 465.3L891.286 467.775L888.268 466.538L889.777 464.682Z" fill="#434545"/>
<path d="M1292.02 469.631L1287.5 470.869L1285.23 469.012L1289.01 467.156L1292.02 469.631Z" fill="#ACAEAB"/>
<path d="M1515.41 337.219L1513.15 334.125L1516.92 331.65L1518.43 334.744L1515.41 337.219Z" fill="#C0C3C0"/>
<path d="M1402.21 480.15L1399.95 479.532L1400.7 477.057L1403.72 478.294L1402.21 480.15Z" fill="#3C4855"/>
<path d="M176.596 484.482L174.332 486.338L172.068 483.863L174.332 483.244L176.596 484.482Z" fill="#606364"/>
<path d="M959.208 486.956L950.906 486.338L952.416 484.481L959.208 486.956Z" fill="#737777"/>
<path d="M1322.97 485.1L1325.23 487.575L1323.72 488.812L1320.7 486.956L1322.97 485.1Z" fill="#6A6E6F"/>
<path d="M464.132 490.669L462.623 488.813L464.132 487.575L465.642 488.194L464.132 490.669Z" fill="#434545"/>
<path d="M935.057 509.231L938.076 512.325L934.302 514.8L932.793 512.325L935.057 509.231Z" fill="#C0C3C0"/>
<path d="M1781.82 514.181L1779.55 517.275L1778.04 512.943L1781.82 514.181Z" fill="#A0A3A0"/>
<path d="M1267.12 520.988L1263.35 518.513L1266.37 515.419L1267.12 520.988Z" fill="#DAE777"/>
<path d="M1125.99 528.413L1123.73 529.65L1122.22 526.557H1125.24L1125.99 528.413Z" fill="#585B5C"/>
<path d="M1765.97 536.456L1762.2 533.981L1765.21 530.888L1768.23 532.744L1765.97 536.456Z" fill="#DADCD9"/>
<path d="M457.34 451.688L455.076 448.594L458.85 447.356L460.359 448.594L457.34 451.688Z" fill="#EFF3F0"/>
<path d="M686.01 549.45L687.52 551.306L684.501 552.544L683.746 550.688L686.01 549.45Z" fill="#434545"/>
<path d="M1374.29 550.687L1371.27 553.781L1367.49 551.306L1369.76 548.831L1374.29 550.687Z" fill="white"/>
<path d="M1387.12 559.35L1379.57 559.969L1383.34 556.875L1387.12 559.35Z" fill="#DADCD9"/>
<path d="M464.887 566.156L461.868 569.25L461.113 564.919L464.887 566.156Z" fill="#C0C3C0"/>
<path d="M532.054 567.394L533.564 569.25L530.545 571.106L532.054 567.394Z" fill="#8D908F"/>
<path d="M1362.97 577.294L1365.99 578.531L1363.72 581.006L1361.46 579.769L1362.97 577.294Z" fill="#828685"/>
<path d="M1597.67 578.531L1599.18 580.388L1598.43 581.006L1596.16 580.388L1597.67 578.531Z" fill="#36393B"/>
<path d="M1288.25 583.481L1282.21 584.1L1283.72 581.006L1288.25 583.481Z" fill="#7796B3"/>
<path d="M78.4879 585.956L76.9785 584.1L79.9973 582.862L80.752 584.719L78.4879 585.956Z" fill="#8D908F"/>
<path d="M1172.78 588.431L1170.52 589.05V586.575H1172.03L1172.78 588.431Z" fill="#36393B"/>
<path d="M1293.53 594.619L1291.27 595.238L1289.01 592.763L1293.53 594.619Z" fill="#737777"/>
<path d="M1885.21 603.9L1886.72 605.137L1884.45 607.612L1882.95 605.137L1885.21 603.9Z" fill="#4D5252"/>
<path d="M482.245 611.944L479.98 608.85L482.999 606.994L482.245 611.944ZM1272.4 608.231L1267.87 611.325L1264.86 609.469L1267.87 606.994L1272.4 608.231Z" fill="#90B0C1"/>
<path d="M675.446 619.988L673.182 620.606L670.918 618.75L673.937 618.131L675.446 619.988Z" fill="#607080"/>
<path d="M867.89 626.175L866.381 624.319L869.4 623.081L870.909 624.937L867.89 626.175Z" fill="#4D5252"/>
<path d="M720.727 624.938L719.972 631.744L716.953 629.888L720.727 624.938Z" fill="#C0C3C0"/>
<path d="M1313.16 445.5L1310.89 447.356L1309.38 444.881L1311.65 443.644L1313.16 445.5Z" fill="#4D5252"/>
<path d="M1461.83 636.694L1464.85 639.788L1460.32 642.263L1461.83 636.694Z" fill="#BADDE4"/>
<path d="M201.502 649.687L197.729 651.544L195.465 649.069L198.484 647.212L201.502 649.687Z" fill="#8EB9D4"/>
<path d="M741.858 650.925H735.82L738.084 648.45L741.858 650.925Z" fill="#B8BAB6"/>
<path d="M1143.35 649.069L1145.62 647.212L1148.63 649.069L1147.88 650.925L1143.35 649.069Z" fill="#8D908F"/>
<path d="M454.321 669.487L457.34 673.2L455.076 675.675L451.303 672.581L454.321 669.487Z" fill="#BADDE4"/>
<path d="M594.693 675.675L590.92 676.913L589.41 675.056L591.674 673.2L594.693 675.675Z" fill="#90B0C1"/>
<path d="M847.514 688.05L843.74 689.287L844.495 684.956L847.514 688.05Z" fill="#A0A3A0"/>
<path d="M1759.18 685.575L1756.91 688.669L1752.38 686.194L1755.4 684.337L1759.18 685.575Z" fill="#8EB9D4"/>
<path d="M1897.28 707.231L1891.25 709.706L1888.23 705.994L1897.28 707.231Z" fill="#DAE777"/>
<path d="M1814.27 724.556L1812.76 722.7L1815.78 721.462L1816.53 723.319L1814.27 724.556Z" fill="#606364"/>
<path d="M968.264 749.925L966.754 751.781L964.49 751.162L965.245 749.306L968.264 749.925Z" fill="#3C4855"/>
<path d="M800.724 751.163L803.743 753.019L801.479 755.494L799.215 754.256L800.724 751.163Z" fill="#606364"/>
<path d="M1320.7 750.544L1319.95 756.113L1316.93 753.019L1320.7 750.544Z" fill="#EFF3F0"/>
<path d="M1702.57 749.925L1704.84 753.019L1700.31 755.494L1698.8 752.4L1702.57 749.925Z" fill="#DADCD9"/>
<path d="M1044.49 636.075H1036.19L1036.94 634.219L1044.49 636.075Z" fill="#B8BAB6"/>
<path d="M502.623 778.387L499.604 780.862L497.34 780.244L498.095 777.15L502.623 778.387Z" fill="#6A6E6F"/>
<path d="M168.295 315.562L166.031 316.181L164.521 314.325L166.786 313.706L168.295 315.562Z" fill="#828685"/>
<path d="M507.904 306.281L509.413 307.519H506.395L507.904 306.281Z" fill="#3C4855"/>
<path d="M1328.25 645.975L1329.76 644.737L1332.02 647.212L1328.25 645.975Z" fill="#ACAEAB"/>
<path d="M522.245 274.106L519.98 272.869L522.999 272.25L522.245 274.106Z" fill="#434545"/>
<path d="M359.986 51.3562L358.476 53.2125L356.967 51.3562L359.231 49.5L359.986 51.3562Z" fill="#7796B3"/>
<path d="M999.206 49.5L1000.72 51.3562L998.451 53.2125L999.206 49.5Z" fill="#C0C3C0"/>
<path d="M236.216 57.5436L235.462 59.3998L234.707 56.9248L236.216 57.5436Z" fill="#434545"/>
<path d="M1800.69 74.2496L1798.42 76.1059L1795.4 73.6309L1800.69 74.2496Z" fill="#90B0C1"/>
<path d="M470.17 739.406L468.661 741.263L466.396 738.169H469.415L470.17 739.406Z" fill="#ACAEAB"/>
<path d="M769.782 533.362L771.291 534.6L769.782 537.075L767.518 534.6L769.782 533.362Z" fill="#828685"/>
<path d="M600.731 94.6691L598.467 97.1441L596.203 94.6691L597.712 93.4316L600.731 94.6691Z" fill="#B8BAB6"/>
<path d="M926.756 699.188L928.266 701.044L925.247 702.281L924.492 700.425L926.756 699.188Z" fill="#8D999A"/>
<path d="M727.519 297.619L726.01 293.906L729.029 292.669L727.519 297.619Z" fill="#BADDE4"/>
<path d="M338.1 107.044L335.836 108.281L334.326 106.425L336.59 105.188L338.1 107.044Z" fill="#90B0C1"/>
<path d="M1526.73 765.394L1522.96 767.25L1520.7 766.013L1522.96 763.538L1526.73 765.394Z" fill="#B8BAB6"/>
<path d="M1620.31 323.606L1617.29 322.369L1620.31 320.513L1622.58 321.75L1620.31 323.606Z" fill="#DADCD9"/>
<path d="M634.693 557.494L632.429 558.731L631.674 556.256L633.938 555.638L634.693 557.494Z" fill="#607080"/>
<path d="M1212.03 284.007L1208.26 285.863L1206.75 284.625L1208.26 282.15L1212.03 284.007Z" fill="#C0C3C0"/>
<path d="M356.967 486.338L355.457 487.575L353.193 485.1L356.212 484.481L356.967 486.338Z" fill="#90B0C1"/>
<path d="M576.582 611.325L575.072 610.088L578.091 608.85L578.846 610.706L576.582 611.325Z" fill="#607080"/>
<path d="M1125.24 381.15L1123.73 383.006L1120.71 381.15L1122.22 379.294L1125.24 381.15Z" fill="#B8BAB6"/>
<path d="M271.688 723.937L267.915 724.556L267.16 723.319L270.179 721.462L271.688 723.937Z" fill="#C0C3C0"/>
<path d="M96.5996 621.844L92.8262 623.7L93.5809 619.369L96.5996 621.844Z" fill="#BADDE4"/>
<path d="M1141.09 279.056L1138.82 279.675L1137.31 277.2L1141.09 279.056Z" fill="#8D999A"/>
<path d="M243.009 624.938L242.254 627.413L239.99 626.175L240.745 624.319L243.009 624.938ZM469.415 675.675L467.151 674.438H471.679L469.415 675.675Z" fill="#607080"/>
<path d="M1190.14 491.907L1188.63 493.144L1187.12 491.288L1189.39 489.432L1190.14 491.907Z" fill="#C0C3C0"/>
<path d="M48.3 493.763L45.2812 496.238L46.7906 491.906L48.3 493.763Z" fill="#828685"/>
<path d="M121.505 637.312L119.996 635.456L123.015 634.837L123.77 636.075L121.505 637.312Z" fill="#A0A3A0"/>
<path d="M900.343 637.931L897.324 639.169L895.814 637.931L898.833 636.075L900.343 637.931Z" fill="#8D999A"/>
<path d="M825.629 530.888L827.138 532.744L824.874 535.219L821.855 533.981L825.629 530.888Z" fill="#DADCD9"/>
<path d="M1449 251.212L1447.49 252.45L1445.98 250.594L1448.24 248.737L1449 251.212Z" fill="#CED2CF"/>
<path d="M1718.42 749.306L1717.67 747.45L1720.69 746.212L1718.42 749.306Z" fill="#7796B3"/>
<path d="M529.79 563.062L528.28 564.3L525.262 562.443L529.79 563.062Z" fill="#90B0C1"/>
<path d="M70.9402 249.975L73.2043 251.212L72.4496 253.068L70.1855 252.45L70.9402 249.975Z" fill="#3C4855"/>
<path d="M731.293 247.5L732.802 249.356L729.783 250.594L731.293 247.5Z" fill="#B8BAB6"/>
<path d="M398.476 764.156L397.721 766.012L395.457 762.3L398.476 764.156Z" fill="#CED2CF"/>
<path d="M744.877 571.106L743.368 572.344L741.104 569.869L743.368 569.25L744.877 571.106Z" fill="#B8BAB6"/>
<path d="M767.517 342.169L766.007 344.025L764.498 341.55L766.007 340.932L767.517 342.169Z" fill="#7796B3"/>
<path d="M1380.32 571.725L1378.06 573.582L1375.79 571.725L1378.81 569.869L1380.32 571.725Z" fill="#B8BAB6"/>
<path d="M1089.01 577.913L1087.51 579.15L1086 576.675L1088.26 576.057L1089.01 577.913Z" fill="#828685"/>
<path d="M267.159 504.281L263.386 504.9L262.631 503.044L265.65 502.425L267.159 504.281Z" fill="#C0C3C0"/>
<path d="M57.3562 829.744L55.8469 832.219L52.8281 830.981L53.5828 829.125L57.3562 829.744Z" fill="#CED2CF"/>
<path d="M1321.46 220.275L1323.72 222.132L1322.21 224.607L1321.46 220.275Z" fill="#EFF3F0"/>
<path d="M960.718 407.756L963.736 408.993L962.227 411.468L959.963 410.85L960.718 407.756Z" fill="#C0C3C0"/>
<path d="M420.361 191.813L417.343 192.432L416.588 190.575L419.607 189.338L420.361 191.813Z" fill="#B8BAB6"/>
<path d="M1079.2 186.244L1082.22 187.482L1076.94 188.719L1079.2 186.244Z" fill="#DADCD9"/>
<path d="M1709.37 514.8L1707.86 512.944L1710.88 511.706L1711.63 514.181L1709.37 514.8Z" fill="#C0C3C0"/>
<path d="M585.637 590.287L581.109 591.525L579.6 589.669L581.864 587.812L585.637 590.287Z" fill="#ACAEAB"/>
<path d="M1665.59 863.775L1661.82 866.25L1661.07 863.775L1664.09 861.919L1665.59 863.775Z" fill="#A0A3A0"/>
<path d="M705.634 867.488L702.615 869.344L701.105 867.488L703.37 865.013L705.634 867.488Z" fill="#EFF3F0"/>
<path d="M436.209 592.762L433.945 594L432.436 592.144L435.454 590.906L436.209 592.762Z" fill="#CED2CF"/>
<path d="M570.544 162.113L568.28 163.35L566.016 160.875L570.544 162.113Z" fill="#7796B3"/>
<path d="M1822.57 443.025L1821.81 444.881L1819.55 443.643L1820.31 441.787L1822.57 443.025Z" fill="#3C4855"/>
<path d="M1016.56 134.269L1018.83 133.031L1020.34 134.269L1017.32 136.744L1016.56 134.269Z" fill="#C0C3C0"/>
<path d="M1862.57 438.075L1860.3 435.6L1865.59 436.837L1862.57 438.075Z" fill="#EFF3F0"/>
<path d="M202.256 128.7L200.747 130.556L199.992 126.844L202.256 128.7Z" fill="#607080"/>
<path d="M366.779 743.737H367.534V744.975L365.27 744.356L366.779 743.737Z" fill="#3C4855"/>
<path d="M1925.21 744.356L1925.96 746.831L1924.45 748.069L1925.21 744.356Z" fill="#ACAEAB"/>
<path d="M369.041 4.95L366.777 5.56875L368.287 3.09375L369.041 4.95Z" fill="#6A6E6F"/>
<path d="M883.74 14.2311L882.985 16.7061L882.23 13.6123L883.74 14.2311Z" fill="#8D908F"/>
<path d="M169.805 749.925L170.559 748.688L171.314 749.306V749.925H169.805Z" fill="#3C4855"/>
<path d="M1552.39 17.3254L1554.66 16.0879L1556.17 17.3254L1555.41 17.9441L1552.39 17.3254Z" fill="#737777"/>
<path d="M803.743 30.3189L802.988 26.6064L804.498 27.2252L803.743 30.3189Z" fill="#A0A3A0"/>
<path d="M381.117 83.5312L379.608 85.3875L377.344 84.15L381.117 83.5312Z" fill="#8D999A"/>
<path d="M355.457 248.738L356.966 243.169L359.985 246.881L355.457 248.738Z" fill="#434545"/>
<path d="M1815.02 495.619L1812.76 496.238L1812 495.619L1814.27 495L1815.02 495.619Z" fill="#585B5C"/>
<path d="M1671.63 340.312L1669.37 341.55L1667.86 340.312H1671.63Z" fill="#8D999A"/>
<path d="M1014.3 499.331L1012.04 498.713L1014.3 496.856L1016.56 498.094L1014.3 499.331Z" fill="#ACAEAB"/>
<path d="M66.4117 758.588L64.9023 760.444V756.731L66.4117 758.588Z" fill="#8D908F"/>
<path d="M1255.8 242.55L1256.56 244.406L1255.05 245.644L1254.29 243.787L1255.8 242.55Z" fill="#606364"/>
<path d="M46.0367 102.094L44.5273 100.237L46.0367 99V102.094Z" fill="#607080"/>
<path d="M612.052 101.475L611.298 102.094H610.543L611.298 100.237L612.052 101.475Z" fill="#434545"/>
<path d="M1464.09 597.712L1466.36 598.95L1464.09 600.806L1461.83 599.569L1464.09 597.712Z" fill="#C0C3C0"/>
<path d="M357.721 606.375L359.23 607.613H355.457L357.721 606.375Z" fill="#737777"/>
<path d="M726.009 517.894L725.254 520.369L722.99 519.131L723.745 516.656L726.009 517.894ZM1256.55 790.144L1255.8 792L1253.54 790.144L1255.04 788.287L1256.55 790.144Z" fill="#B8BAB6"/>
<path d="M1760.69 794.475L1759.18 793.238L1759.93 791.381L1760.69 794.475Z" fill="#607080"/>
<path d="M994.678 338.456L992.414 340.312V336.6L994.678 338.456Z" fill="#8D999A"/>
<path d="M1113.92 230.175L1112.41 228.938L1113.16 227.7L1114.67 228.938L1113.92 230.175Z" fill="#585B5C"/>
<path d="M878.457 409.612L879.966 410.85H876.947L878.457 409.612Z" fill="#737777"/>
<path d="M1793.14 315.562L1791.63 317.418L1790.87 316.8L1791.63 314.943L1793.14 315.562Z" fill="#606364"/>
<path d="M659.597 409.612L658.088 410.85L658.843 407.756L659.597 409.612Z" fill="#828685"/>
<path d="M19.6215 457.875L17.3574 457.257L19.6215 455.4L21.8855 456.638L19.6215 457.875Z" fill="#ACAEAB"/>
<path d="M957.699 842.119V840.881H958.454L957.699 842.119Z" fill="#36393B"/>
<path d="M1246.74 625.556L1245.23 627.413L1245.99 624.319L1246.74 625.556Z" fill="#606364"/>
<path d="M1362.97 526.556L1360.7 527.175V525.938L1362.97 526.556Z" fill="#6A6E6F"/>
<path d="M1808.99 334.125L1807.48 335.981V332.269L1808.99 334.125Z" fill="#8D908F"/>
<path d="M516.206 122.512L515.451 121.894L516.961 120.656L516.206 122.512Z" fill="#434545"/>
<path d="M257.348 186.862L258.858 188.1V189.337L256.594 188.719L257.348 186.862Z" fill="#737777"/>
<path d="M1573.52 444.882L1572.01 444.263L1573.52 443.025L1574.28 444.263L1573.52 444.882Z" fill="#4D5252"/>
<path d="M768.272 168.3L769.781 170.156H766.008L768.272 168.3Z" fill="#6A6E6F"/>
<path d="M1384.1 258.638L1385.61 260.494H1383.34L1384.1 258.638Z" fill="#828685"/>
<path d="M1882.95 533.982V532.744H1883.7L1882.95 533.982Z" fill="#36393B"/>
<path d="M816.572 648.45L818.836 647.212L820.346 649.069L818.082 649.687L816.572 648.45Z" fill="#606364"/>
<path d="M1244.48 390.431L1242.97 392.288L1240.71 390.431L1242.97 388.575L1244.48 390.431Z" fill="#B8BAB6"/>
<path d="M657.333 670.725L658.088 671.963H654.314L657.333 670.725Z" fill="#606364"/>
<path d="M1643.71 514.181L1640.69 515.418L1639.94 512.943L1643.71 514.181Z" fill="#A0A3A0"/>
<path d="M1205.24 328.556L1202.97 327.318H1208.26L1205.24 328.556Z" fill="#828685"/>
<path d="M412.814 594.619V595.237H411.305L412.814 594.619Z" fill="#434545"/>
<path d="M243.01 697.331L244.519 694.856L245.274 699.188L243.01 697.331Z" fill="#A0A3A0"/>
<path d="M1312.4 160.256L1310.14 159.637L1310.89 157.162L1313.16 158.4L1312.4 160.256Z" fill="#B8BAB6"/>
<path d="M562.997 707.85L561.488 709.088L559.979 707.85H562.997Z" fill="#737777"/>
<path d="M926.757 497.475L923.738 496.237L926.002 494.381L928.266 495.618L926.757 497.475Z" fill="#CED2CF"/>
<path d="M624.127 594L624.882 593.381L625.636 594.619L624.127 594Z" fill="#4D5252"/>
<path d="M1409.76 728.269L1410.51 728.887H1407.49L1409.76 728.269Z" fill="#585B5C"/>
<path d="M1696.54 589.05L1695.03 590.287L1693.52 589.05H1696.54Z" fill="#6A6E6F"/>
<path d="M576.582 504.9L577.336 506.138L575.827 506.757L575.072 506.138L576.582 504.9Z" fill="#606364"/>
<path d="M396.966 79.1998L396.212 79.8186L395.457 79.1998L396.212 78.5811L396.966 79.1998ZM1413.53 770.344L1412.78 770.962V769.725L1413.53 770.344Z" fill="#4D5252"/>
<path d="M378.854 212.232L372.816 215.944L365.27 210.994L378.854 212.232Z" fill="#679ACB"/>
<path d="M1759.93 335.981L1753.89 331.65L1750.12 334.744L1753.89 338.456L1759.93 335.981ZM1754.65 349.594L1741.06 335.981L1752.38 326.081L1765.97 334.744L1754.65 349.594Z" fill="#8EB9D4"/>
<path d="M376.589 129.938L385.645 138.6L378.098 147.262L369.796 141.075L376.589 129.938ZM158.484 173.25L156.975 163.969L162.257 167.681L158.484 173.25Z" fill="#90B0C1"/>
<path d="M629.409 482.625L634.692 489.431L630.164 494.381L624.881 490.05L629.409 482.625Z" fill="#8EB9D4"/>
<path d="M321.497 229.556L319.233 234.506L323.007 236.981L321.497 229.556ZM316.969 221.513L332.818 233.269L319.988 243.169L307.158 228.938L316.969 221.513Z" fill="#679ACB"/>
<path d="M1759.93 335.982L1753.89 338.457L1750.12 334.744L1753.89 331.65L1759.93 335.982Z" fill="#EFF3F0"/>
<path d="M321.496 229.557L323.006 236.982L319.232 234.507L321.496 229.557Z" fill="#BADDE4"/>
<path d="M1531.26 890.381L1535.79 885.431L1541.07 890.381H1531.26Z" fill="#B8BAB6"/>
<path d="M1932.76 590.288L1923.7 585.957L1932.76 582.244V590.288Z" fill="#679ACB"/>
<path d="M1341.83 0L1336.55 4.33125L1335.8 0H1341.83Z" fill="#7796B3"/>
<path d="M498.093 801.9L491.301 792.619L498.848 787.05L506.395 793.237L498.093 801.9Z" fill="#679ACB"/>
<path d="M1437.68 486.338L1449 481.388L1455.04 486.956L1446.74 493.144L1437.68 486.338Z" fill="#585B5C"/>
<path d="M890.531 136.744L904.87 133.031L906.38 135.506L895.814 142.313L890.531 136.744Z" fill="#A0A3A0"/>
<path d="M1868.61 325.463L1874.64 331.032L1870.12 336.6L1863.32 331.65L1868.61 325.463ZM1410.51 556.875L1416.55 561.207L1413.53 566.157L1410.51 556.875Z" fill="#7796B3"/>
<path d="M433.945 253.687L428.662 248.118L432.436 244.406L437.718 247.5L433.945 253.687ZM1126.75 710.325L1135.05 702.281L1130.52 714.037L1126.75 710.325ZM1307.87 21.6559L1314.67 17.9434L1318.44 21.6559L1313.91 25.3684L1307.87 21.6559ZM1733.52 784.575L1725.97 793.856L1722.2 791.381L1730.5 780.243L1733.52 784.575Z" fill="#90B0C1"/>
<path d="M501.113 609.469L507.151 618.131L501.868 621.225L501.113 609.469Z" fill="#679ACB"/>
<path d="M1345.61 413.325L1350.89 418.894L1346.36 422.606L1341.83 418.894L1345.61 413.325Z" fill="#90B0C1"/>
<path d="M1550.13 592.763L1543.34 600.806L1538.05 595.238L1547.11 590.906L1550.13 592.763Z" fill="#7796B3"/>
<path d="M722.99 92.1938L729.028 89.7188L732.046 94.05L722.99 92.1938Z" fill="#8EB9D4"/>
<path d="M1581.07 19.7998L1585.6 24.7498L1581.83 29.0811L1576.54 25.9873L1581.07 19.7998Z" fill="#C0C3C0"/>
<path d="M1259.57 451.688L1256.56 463.444L1252.03 459.113L1259.57 451.688Z" fill="#BADDE4"/>
<path d="M390.174 754.875L394.702 750.544L399.985 753.638L395.457 759.206L390.174 754.875Z" fill="#ACAEAB"/>
<path d="M1236.93 417.656L1243.73 414.563L1247.5 418.894L1242.97 421.988L1236.93 417.656ZM1270.89 321.131L1267.12 315.563L1271.65 312.469L1275.42 315.563L1270.89 321.131Z" fill="#C0C3C0"/>
<path d="M649.03 240.694L646.012 235.744L650.54 233.269L653.559 236.981L649.03 240.694Z" fill="#7796B3"/>
<path d="M430.926 706.613L437.718 701.663L433.945 711.563L430.926 706.613Z" fill="#EFF3F0"/>
<path d="M95.8457 277.819L101.883 275.344L104.147 279.056L100.374 282.15L95.8457 277.819Z" fill="#B8BAB6"/>
<path d="M1588.62 682.481L1587.11 675.675L1593.9 682.481H1588.62Z" fill="#DADCD9"/>
<path d="M97.3551 322.369L92.0723 326.081L88.2988 323.606L92.0723 318.656L97.3551 322.369Z" fill="#C0C3C0"/>
<path d="M716.953 10.5186L721.481 14.8498L717.708 17.9436L716.953 10.5186Z" fill="#DAE777"/>
<path d="M1507.11 510.469H1518.43L1513.15 514.8L1507.11 510.469Z" fill="#CED2CF"/>
<path d="M1428.62 605.138L1431.64 607.613L1428.62 610.706L1425.61 607.613L1428.62 605.138Z" fill="#DAE777"/>
<path d="M1391.64 843.356H1401.46L1397.68 846.45L1391.64 843.356Z" fill="#679ACB"/>
<path d="M1316.93 809.944L1325.99 810.563L1322.21 813.656L1316.93 809.944Z" fill="#EFF3F0"/>
<path d="M1433.91 406.519L1427.87 400.331L1438.43 404.662L1433.91 406.519Z" fill="#607080"/>
<path d="M1786.35 821.7L1791.63 819.225L1793.89 821.7L1790.87 824.175L1786.35 821.7Z" fill="#25425E"/>
<path d="M1516.92 871.2L1522.96 867.487L1527.49 870.581L1516.92 871.2Z" fill="#90B0C1"/>
<path d="M1737.29 294.525L1735.78 285.862L1740.31 289.575L1737.29 294.525Z" fill="#C0C3C0"/>
<path d="M1333.53 39.6L1336.55 37.125L1341.08 39.6H1333.53Z" fill="#B8BAB6"/>
<path d="M1418.81 54.4504L1415.04 48.8816L1418.81 47.0254V54.4504Z" fill="#CED2CF"/>
<path d="M558.469 238.218L564.506 237.6L566.77 240.693L562.242 242.55L558.469 238.218Z" fill="#B8BAB6"/>
<path d="M928.265 141.694L925.246 138.6L930.529 134.269L928.265 141.694Z" fill="#ACAEAB"/>
<path d="M1138.07 643.5L1134.3 636.694L1137.31 634.838L1138.07 643.5ZM879.211 142.313L882.984 139.838L886.758 143.55L879.211 142.313Z" fill="#90B0C1"/>
<path d="M879.211 177.581L882.984 175.725L886.003 178.818L882.23 180.675L879.211 177.581Z" fill="#C0C3C0"/>
<path d="M220.369 602.663H228.671L225.652 604.519L220.369 602.663Z" fill="#7796B3"/>
<path d="M837.703 751.162L843.741 748.688L846.005 750.544L842.986 754.256L837.703 751.162Z" fill="#DADCD9"/>
<path d="M495.074 297L498.093 294.525L501.866 297H495.074Z" fill="#7796B3"/>
<path d="M1524.47 338.456L1525.98 346.5L1522.21 344.025L1524.47 338.456Z" fill="#90B0C1"/>
<path d="M1430.13 430.032L1427.11 427.557L1428.62 424.463L1430.13 430.032Z" fill="#7796B3"/>
<path d="M156.221 36.5062L161.504 34.0312L164.522 35.8875L160.749 39.6L156.221 36.5062Z" fill="#8EB9D4"/>
<path d="M254.329 794.475L251.311 797.569L247.537 794.475L250.556 792L254.329 794.475Z" fill="#C0C3C0"/>
<path d="M1561.45 413.944L1553.9 409.612L1559.19 406.519L1561.45 413.944Z" fill="#679ACB"/>
<path d="M969.02 582.863L973.548 581.625L975.057 585.956L969.02 582.863Z" fill="#CED2CF"/>
<path d="M1480.7 150.975L1484.47 148.5L1488.24 151.594L1480.7 150.975Z" fill="#3C4855"/>
<path d="M1255.8 590.288L1264.1 592.144L1262.59 594.619L1256.56 589.669L1255.8 590.288Z" fill="#3C4855"/>
<path d="M848.27 238.838L852.798 236.981L855.062 239.456L852.043 241.313L848.27 238.838Z" fill="#607080"/>
<path d="M1513.15 477.675L1510.13 474.581L1514.66 472.725L1513.15 477.675Z" fill="#A0A3A0"/>
<path d="M703.369 873.675L705.633 870.581L710.161 873.675H703.369Z" fill="#8EB9D4"/>
<path d="M1256.56 589.669L1250.52 586.575L1252.03 584.719L1255.8 590.287L1256.56 589.669Z" fill="#ACAEAB"/>
<path d="M446.021 211.612L448.285 214.706L445.266 217.181L443.002 214.087L446.021 211.612Z" fill="#607080"/>
<path d="M790.912 696.094L795.44 694.856L793.931 700.425L790.912 696.094Z" fill="#CED2CF"/>
<path d="M1405.98 48.2627L1409.76 52.5939L1407.49 54.4502L1403.72 51.3564L1405.98 48.2627Z" fill="#6A6E6F"/>
<path d="M1332.78 691.144L1336.55 688.669L1339.57 692.381L1332.78 691.144Z" fill="#DADCD9"/>
<path d="M1652.01 137.982L1648.24 135.507L1650.5 133.65L1654.28 135.507L1652.01 137.982Z" fill="#C0C3C0"/>
<path d="M587.146 256.781L590.92 255.544L592.429 257.4L588.656 259.256L587.146 256.781Z" fill="#3C4855"/>
<path d="M768.271 363.825L770.536 367.538L767.517 370.631L764.498 368.156L768.271 363.825Z" fill="#C0C3C0"/>
<path d="M1689.75 63.1127L1692.76 60.6377L1696.54 63.1127H1689.75Z" fill="#CED2CF"/>
<path d="M400.739 450.45L398.475 446.738L401.493 445.5L400.739 450.45Z" fill="#3C4855"/>
<path d="M495.075 7.4248L498.848 9.8998L495.829 14.2311L492.811 12.3748L495.075 7.4248Z" fill="#B8BAB6"/>
<path d="M575.072 342.787L581.11 339.693L584.129 342.787H575.072Z" fill="#A0A3A0"/>
<path d="M1132.03 108.281L1138.82 106.425L1137.31 109.519L1132.03 108.281Z" fill="#B8BAB6"/>
<path d="M94.3352 109.519L91.3164 106.425L94.3352 103.95L96.5992 106.425L94.3352 109.519Z" fill="#C0C3C0"/>
<path d="M1603.71 879.862L1604.47 873.056L1606.73 873.675L1603.71 879.862Z" fill="#737777"/>
<path d="M1668.61 88.4812L1670.12 86.625L1671.63 87.8625L1670.88 89.7188L1668.61 88.4812Z" fill="#36393B"/>
<path d="M1516.92 68.0623L1513.9 64.9686L1515.41 63.1123L1518.43 64.3498L1516.92 68.0623Z" fill="#828685"/>
<path d="M629.41 865.012L631.674 863.156L633.184 865.631L630.92 866.25L629.41 865.012Z" fill="#4D5252"/>
<path d="M1196.18 861.3L1199.95 860.062L1201.46 861.919L1199.2 863.775L1196.18 861.3Z" fill="#6A6E6F"/>
<path d="M96.5996 56.3059L95.0902 58.7809L92.8262 55.0684L96.5996 56.3059Z" fill="#737777"/>
<path d="M1495.79 851.4L1499.56 853.875L1496.55 856.969L1495.79 851.4Z" fill="#DADCD9"/>
<path d="M1224.1 852.019L1221.84 850.781L1222.59 847.688L1224.1 852.019Z" fill="#CED2CF"/>
<path d="M958.454 848.925L956.189 847.688L957.699 844.594L958.454 848.925Z" fill="#DAE777"/>
<path d="M467.905 50.7373L470.17 52.5936H464.887L467.905 50.7373Z" fill="#EFF3F0"/>
<path d="M1741.06 37.1248L1742.57 35.2686L1744.84 35.8873L1743.33 37.7436L1741.06 37.1248Z" fill="#36393B"/>
<path d="M322.252 37.1254L324.516 34.6504L327.535 36.5066L326.025 38.3629L322.252 37.1254Z" fill="#6A6E6F"/>
<path d="M372.816 826.031L373.57 829.125L369.797 826.65L372.816 826.031Z" fill="#828685"/>
<path d="M1333.53 823.556L1335.8 822.319L1337.31 824.794L1335.04 825.413L1333.53 823.556Z" fill="#4D5252"/>
<path d="M372.815 826.031L369.796 826.65L368.287 821.081L372.815 826.031Z" fill="#DAE777"/>
<path d="M353.949 820.463L355.459 818.606L356.968 821.081L354.704 822.319L353.949 820.463Z" fill="#A0A3A0"/>
<path d="M1420.32 34.0313L1423.34 30.9375L1427.11 32.175L1424.85 35.8875L1420.32 34.0313Z" fill="#DADCD9"/>
<path d="M435.455 28.4627L439.229 26.6064L441.493 29.0814L435.455 28.4627Z" fill="#737777"/>
<path d="M36.9797 806.85L37.7344 808.706L34.7156 809.944L33.9609 807.469L36.9797 806.85Z" fill="#6A6E6F"/>
<path d="M1641.45 805.613L1645.97 803.756L1648.24 806.231L1641.45 805.613Z" fill="#B8BAB6"/>
<path d="M690.539 24.75L699.595 25.9875L695.822 28.4625L690.539 24.75Z" fill="#90B0C1"/>
<path d="M110.94 26.6059L108.676 23.5121L111.695 21.0371L110.94 26.6059Z" fill="#DADCD9"/>
<path d="M170.559 12.3752L174.332 11.1377L175.087 12.9939L172.068 14.8502L170.559 12.3752Z" fill="#606364"/>
<path d="M252.066 12.9934L252.821 5.56836L255.085 6.18711L252.066 12.9934Z" fill="#607080"/>
<path d="M1733.52 784.575L1730.5 780.244H1735.03L1733.52 784.575Z" fill="#CED2CF"/>
<path d="M1645.97 782.719L1649.75 779.625L1654.27 782.1L1645.97 782.719Z" fill="#EFF3F0"/>
<path d="M686.011 458.494L688.275 461.588L682.992 462.207L686.011 458.494Z" fill="#ACAEAB"/>
<path d="M1345.61 757.35L1347.12 758.588L1344.1 759.825L1343.34 757.969L1345.61 757.35Z" fill="#3C4855"/>
<path d="M1325.23 753.019L1328.25 751.163L1326.74 755.494L1325.23 753.019Z" fill="#BADDE4"/>
<path d="M1020.34 753.637L1024.87 753.019L1022.6 755.494L1020.34 753.637Z" fill="#4D5252"/>
<path d="M1256.55 741.881L1260.33 740.644L1261.84 742.5L1258.06 744.356L1256.55 741.881Z" fill="#828685"/>
<path d="M97.3539 734.456L100.373 736.931L95.0898 737.55L97.3539 734.456Z" fill="#ACAEAB"/>
<path d="M319.232 734.456L324.515 730.744L328.289 733.837L319.232 734.456Z" fill="#C0C3C0"/>
<path d="M275.461 704.137L279.234 703.519L279.989 705.375L276.216 705.994L275.461 704.137Z" fill="#585B5C"/>
<path d="M609.787 700.425L607.523 699.806L608.278 697.95L610.542 698.569L609.787 700.425Z" fill="#434545"/>
<path d="M1655.78 671.962L1652.77 671.344L1654.27 669.487L1656.54 670.106L1655.78 671.962Z" fill="#434545"/>
<path d="M643.748 660.206L641.484 662.063L638.465 660.825L639.974 658.35L643.748 660.206Z" fill="#607080"/>
<path d="M713.18 658.35L714.689 655.875L717.708 657.731L716.198 659.587L713.18 658.35Z" fill="#DADCD9"/>
<path d="M1346.36 650.306L1351.65 646.594L1350.89 652.162L1346.36 650.306Z" fill="#606364"/>
<path d="M192.446 649.687L191.691 644.737L194.71 646.594L192.446 649.687Z" fill="#828685"/>
<path d="M1301.84 636.694L1301.08 642.263L1298.06 639.169L1301.84 636.694Z" fill="#C0C3C0"/>
<path d="M1397.68 636.694L1400.7 634.837L1399.19 639.169L1397.68 636.694Z" fill="#DADCD9"/>
<path d="M984.113 633.6L982.604 635.456L980.34 634.838L981.095 632.981L984.113 633.6Z" fill="#36393B"/>
<path d="M106.41 631.125L110.184 629.269L113.202 632.362L109.429 634.219L106.41 631.125Z" fill="#DADCD9"/>
<path d="M1507.87 626.794L1505.6 628.031L1504.09 625.556L1506.36 624.938L1507.87 626.794Z" fill="#4D5252"/>
<path d="M1525.22 621.844L1527.49 622.463L1525.98 624.319L1523.71 623.7L1525.22 621.844Z" fill="#585B5C"/>
<path d="M1307.87 616.894L1311.65 613.8V618.131L1307.87 616.894Z" fill="#90B0C1"/>
<path d="M1482.21 606.375L1478.43 604.519L1488.24 605.137L1482.21 606.375Z" fill="#A0A3A0"/>
<path d="M204.52 600.187L208.293 598.331L211.312 602.044L204.52 600.187Z" fill="#DADCD9"/>
<path d="M1219.58 578.531L1222.59 581.625L1218.82 584.719L1216.56 582.862L1219.58 578.531Z" fill="#A0A3A0"/>
<path d="M657.332 573.581L658.841 571.106L662.615 572.344L661.86 574.2L657.332 573.581Z" fill="#606364"/>
<path d="M545.639 559.35L547.148 557.494L547.903 559.969L545.639 559.35Z" fill="#585B5C"/>
<path d="M1300.33 550.068L1302.59 550.687L1301.84 552.543L1299.57 551.925L1300.33 550.068Z" fill="#36393B"/>
<path d="M114.712 548.213L111.693 546.975L113.203 545.119L115.467 545.738L114.712 548.213Z" fill="#434545"/>
<path d="M1685.22 540.788L1688.24 538.932L1690.5 542.025L1686.73 545.119L1685.22 540.788Z" fill="#C0C3C0"/>
<path d="M546.395 543.881L547.149 541.406L550.923 542.644L549.413 544.5L546.395 543.881Z" fill="#737777"/>
<path d="M898.078 525.319L900.342 524.081L901.097 525.937L898.833 527.175L898.078 525.319Z" fill="#36393B"/>
<path d="M770.536 519.131L766.762 520.369L764.498 517.894L766.762 516.656L770.536 519.131Z" fill="#C0C3C0"/>
<path d="M989.396 507.375L990.905 509.231L987.132 510.469L986.377 507.994L989.396 507.375Z" fill="#ACAEAB"/>
<path d="M1761.44 503.663L1765.97 502.425L1767.48 504.9L1761.44 503.663ZM498.094 498.713L498.849 504.282L495.83 502.425L498.094 498.713Z" fill="#8D999A"/>
<path d="M1517.68 497.475L1521.45 495L1524.47 496.856L1521.45 499.331L1517.68 497.475Z" fill="#B8BAB6"/>
<path d="M1873.89 474.581L1875.4 472.725L1877.66 473.343L1876.15 475.2L1873.89 474.581Z" fill="#36393B"/>
<path d="M90.5625 470.25H97.3547L93.5813 473.344L90.5625 470.25Z" fill="#B8BAB6"/>
<path d="M1747.1 464.062L1750.12 469.012L1745.59 471.487L1747.1 464.062Z" fill="#BADDE4"/>
<path d="M1543.34 469.012L1541.07 470.25L1538.81 467.775L1541.83 467.156L1543.34 469.012Z" fill="#434545"/>
<path d="M742.613 465.919L744.877 464.682L746.387 467.157L744.123 467.775L742.613 465.919Z" fill="#4D5252"/>
<path d="M1238.44 436.219L1236.18 435.6L1236.93 433.744L1239.2 434.363L1238.44 436.219Z" fill="#36393B"/>
<path d="M1042.98 426.318L1040.71 425.081L1041.47 423.225L1043.73 423.843L1042.98 426.318Z" fill="#434545"/>
<path d="M640.73 420.75L644.504 419.513L646.768 421.988L643.749 423.844L640.73 420.75Z" fill="#ACAEAB"/>
<path d="M417.343 553.162L419.607 556.256L415.834 558.731L414.324 555.637L417.343 553.162Z" fill="#C0C3C0"/>
<path d="M529.79 410.231L532.054 411.469L531.299 413.325L529.035 412.088L529.79 410.231Z" fill="#3C4855"/>
<path d="M1756.16 405.9L1758.42 404.044L1760.69 406.519L1757.67 407.756L1756.16 405.9Z" fill="#606364"/>
<path d="M972.793 404.044H981.095L980.34 405.9L972.793 404.044Z" fill="#737777"/>
<path d="M609.787 405.281L607.523 402.806L609.033 401.568L612.052 403.425L609.787 405.281Z" fill="#6A6E6F"/>
<path d="M1467.87 400.331L1470.13 401.569L1467.87 402.806L1467.11 402.187L1467.87 400.331Z" fill="#434545"/>
<path d="M996.942 381.15L994.678 378.675L997.696 375.581L999.961 378.056L996.942 381.15Z" fill="#C0C3C0"/>
<path d="M150.938 376.2L153.202 373.725L154.711 378.056L150.938 376.2Z" fill="#A0A3A0"/>
<path d="M664.879 370.013L669.407 371.869L665.634 375.581L664.879 370.013Z" fill="#DAE777"/>
<path d="M806.006 361.969L808.27 360.731L809.779 363.825L807.515 364.444L806.006 361.969Z" fill="#585B5C"/>
<path d="M166.786 354.544L170.559 356.4L167.54 359.494L164.521 357.638L166.786 354.544Z" fill="#DADCD9"/>
<path d="M1474.66 439.312L1476.92 441.788L1473.9 443.644L1472.39 441.788L1474.66 439.312Z" fill="#EFF3F0"/>
<path d="M1246.74 340.932L1245.23 339.694L1248.25 337.838L1249.01 339.694L1246.74 340.932Z" fill="#434545"/>
<path d="M557.715 340.312L560.734 336.6L565.262 339.075L562.998 342.168L557.715 340.312Z" fill="white"/>
<path d="M545.639 331.031L552.431 330.412L549.412 333.506L545.639 331.031Z" fill="#DADCD9"/>
<path d="M1467.11 324.225L1470.13 321.75L1471.64 326.081L1467.11 324.225Z" fill="#C0C3C0"/>
<path d="M1400.7 322.988L1399.19 321.75L1401.46 319.275L1400.7 322.988Z" fill="#8D908F"/>
<path d="M569.789 313.706L566.016 312.469L569.034 309.375L571.298 310.613L569.789 313.706Z" fill="#828685"/>
<path d="M335.082 311.85L333.572 310.613L334.327 309.375L336.591 309.994L335.082 311.85Z" fill="#36393B"/>
<path d="M643.748 306.9H650.54L648.276 309.375L643.748 306.9Z" fill="#7796B3"/>
<path d="M1854.27 304.425L1855.78 306.281L1852.76 307.519L1851.25 305.662L1854.27 304.425Z" fill="#8D908F"/>
<path d="M759.215 301.95H762.234L761.479 303.806H760.724L759.215 301.95Z" fill="#36393B"/>
<path d="M639.221 296.381L641.485 295.144L642.994 297.619L639.221 296.381Z" fill="#737777"/>
<path d="M46.7906 287.1L45.2812 285.244L48.3 283.388L49.0547 285.244L46.7906 287.1Z" fill="#4D5252"/>
<path d="M1450.51 278.438L1452.02 282.15L1449.76 283.387L1450.51 278.438ZM659.598 282.15L664.88 279.056L667.145 281.531L664.88 284.006L659.598 282.15Z" fill="#90B0C1"/>
<path d="M1257.31 271.013L1259.57 269.775L1261.84 272.25L1258.82 272.869L1257.31 271.013Z" fill="#607080"/>
<path d="M1064.11 264.825L1066.37 266.063L1062.6 267.3L1061.85 265.444L1064.11 264.825Z" fill="#4D5252"/>
<path d="M1212.03 266.063V258.638L1215.05 260.494L1212.03 266.063Z" fill="#C0C3C0"/>
<path d="M619.598 444.881L621.107 443.644L623.371 446.119L621.107 446.737L619.598 444.881Z" fill="#4D5252"/>
<path d="M470.17 254.306L467.906 251.212L472.434 248.737L470.17 254.306Z" fill="#BADDE4"/>
<path d="M1730.5 241.313L1735.03 238.838L1737.29 241.313L1734.27 243.169L1730.5 241.313Z" fill="#8EB9D4"/>
<path d="M1190.9 239.456H1196.93L1194.67 242.55L1190.9 239.456Z" fill="#B8BAB6"/>
<path d="M788.648 241.312L787.139 243.169L783.365 241.931L784.875 239.456L788.648 241.312Z" fill="#8D908F"/>
<path d="M1477.68 220.894L1474.66 217.181L1476.92 215.325L1480.7 217.8L1477.68 220.894Z" fill="#BADDE4"/>
<path d="M1337.31 215.325L1341.83 213.469L1343.34 215.325L1341.08 217.181L1337.31 215.325Z" fill="#90B0C1"/>
<path d="M1085.24 202.95L1089.01 201.713L1087.5 205.425L1085.24 202.95Z" fill="#A0A3A0"/>
<path d="M172.824 204.806L175.843 202.331L179.616 204.187L177.352 206.662L172.824 204.806Z" fill="#8EB9D4"/>
<path d="M35.4707 183.15L41.5082 181.294L43.7723 184.388L35.4707 183.15Z" fill="#DAE777"/>
<path d="M118.487 165.825L119.996 167.681L116.977 168.919L116.223 167.063L118.487 165.825Z" fill="#606364"/>
<path d="M964.49 140.456L965.245 138.6L968.264 139.218L966.754 141.693L964.49 140.456Z" fill="#3C4855"/>
<path d="M1132.03 139.218L1129.01 137.981L1131.28 135.506L1132.79 136.125L1132.03 139.218Z" fill="#606364"/>
<path d="M612.051 140.456V134.888L615.824 137.981L612.051 140.456Z" fill="#EFF3F0"/>
<path d="M230.18 140.456L227.916 137.363L231.689 134.888L233.199 137.981L230.18 140.456Z" fill="#DADCD9"/>
<path d="M888.268 254.307H896.569L895.06 256.163L888.268 254.307Z" fill="#B8BAB6"/>
<path d="M1430.13 111.994L1433.15 109.519L1435.42 110.756L1434.66 113.231L1430.13 111.994Z" fill="#6A6E6F"/>
<path d="M1763.7 575.438L1766.72 574.819L1768.23 576.675L1765.21 577.294L1763.7 575.438Z" fill="#828685"/>
<path d="M1424.85 584.719L1423.34 582.862H1426.36L1424.85 584.719Z" fill="#3C4855"/>
<path d="M604.505 245.025L602.241 245.643L599.977 243.787L604.505 245.025Z" fill="#ACAEAB"/>
<path d="M1410.51 616.894L1412.78 618.131L1409 618.75L1410.51 616.894Z" fill="#434545"/>
<path d="M1572.01 839.025L1574.28 837.169L1575.79 839.025L1573.52 840.881L1572.01 839.025Z" fill="#7796B3"/>
<path d="M932.794 840.881L932.039 839.025L934.303 837.169L932.794 840.881Z" fill="#C0C3C0"/>
<path d="M1695.78 832.838L1697.29 830.981L1698.05 833.456L1695.78 832.838Z" fill="#434545"/>
<path d="M132.07 816.131L134.334 814.275L137.353 816.75L132.07 816.131Z" fill="#90B0C1"/>
<path d="M1461.83 150.975L1464.09 149.737L1466.36 152.212L1463.34 152.831L1461.83 150.975Z" fill="#ACAEAB"/>
<path d="M1162.97 357.019L1160.71 355.781L1162.97 353.925L1165.24 355.781L1162.97 357.019Z" fill="#828685"/>
<path d="M1332.02 795.713L1333.53 793.856L1336.55 795.713L1335.04 797.569L1332.02 795.713Z" fill="#B8BAB6"/>
<path d="M1006 191.193L1004.49 189.956L1006.75 188.1L1008.26 190.575L1006 191.193Z" fill="#8D999A"/>
<path d="M1205.24 592.763L1206.75 596.475L1203.73 597.713L1205.24 592.763Z" fill="#BADDE4"/>
<path d="M1594.65 783.338L1596.16 782.1L1598.43 784.575L1596.16 785.194L1594.65 783.338Z" fill="#90B0C1"/>
<path d="M406.021 124.987L409.795 123.131L411.304 124.368L409.795 126.843L406.021 124.987Z" fill="#B8BAB6"/>
<path d="M312.44 566.775L314.704 568.013L311.685 569.869L310.176 568.632L312.44 566.775Z" fill="#DADCD9"/>
<path d="M1297.31 332.887L1300.33 332.269V334.125L1298.82 334.744L1297.31 332.887Z" fill="#607080"/>
<path d="M719.973 606.375L724.501 604.519L726.01 605.756L723.746 608.231L719.973 606.375Z" fill="#C0C3C0"/>
<path d="M1575.03 404.663L1577.3 402.807L1578.81 405.282L1576.54 405.9L1575.03 404.663Z" fill="#90B0C1"/>
<path d="M1356.17 279.057L1357.68 280.913L1354.66 282.15L1353.91 280.294L1356.17 279.057Z" fill="#607080"/>
<path d="M807.516 509.85L809.025 507.375L811.289 509.231L810.534 511.087L807.516 509.85Z" fill="#B8BAB6"/>
<path d="M1660.31 166.444L1664.09 165.825L1665.6 167.681L1661.82 169.538L1660.31 166.444Z" fill="#C0C3C0"/>
<path d="M1835.4 268.537L1839.93 267.3L1839.17 271.012L1835.4 268.537Z" fill="#BADDE4"/>
<path d="M791.668 611.944L793.932 610.706L795.441 613.181L791.668 611.944Z" fill="#8D999A"/>
<path d="M1688.99 265.444L1690.5 262.969L1692.76 264.206L1692.01 266.062L1688.99 265.444ZM1463.34 214.706L1465.6 215.944H1460.32L1463.34 214.706Z" fill="#607080"/>
<path d="M741.857 399.094L744.121 397.237L745.631 399.094L743.367 400.95L741.857 399.094Z" fill="#C0C3C0"/>
<path d="M1883.7 396.619L1887.47 394.763L1885.21 398.475L1883.7 396.619Z" fill="#828685"/>
<path d="M1811.25 253.068L1812 254.925L1808.99 256.162L1808.23 254.306L1811.25 253.068Z" fill="#A0A3A0"/>
<path d="M1031.66 252.45L1035.43 251.213L1036.94 252.45L1033.92 254.925L1031.66 252.45Z" fill="#8D999A"/>
<path d="M1107.13 360.112L1105.62 357.637L1107.88 355.162L1110.9 356.4L1107.13 360.112Z" fill="#DADCD9"/>
<path d="M483 639.169L485.264 637.931L486.773 639.787L483.755 641.644L483 639.169Z" fill="#CED2CF"/>
<path d="M213.576 141.075L214.33 142.931L212.066 144.169L213.576 141.075Z" fill="#7796B3"/>
<path d="M1402.21 327.319L1404.47 326.081L1406.74 328.556L1402.21 327.319Z" fill="#90B0C1"/>
<path d="M1861.81 640.406L1859.55 639.169L1860.31 637.312L1862.57 638.55L1861.81 640.406Z" fill="#3C4855"/>
<path d="M1201.46 642.881L1199.95 641.025L1202.97 639.788L1201.46 642.881Z" fill="#B8BAB6"/>
<path d="M1533.53 126.844L1535.03 124.369L1536.54 128.7L1533.53 126.844Z" fill="#CED2CF"/>
<path d="M1187.12 319.894L1189.39 318.656L1191.65 320.512L1188.63 321.75L1187.12 319.894Z" fill="#B8BAB6"/>
<path d="M1164.48 548.213L1165.99 546.356L1168.26 548.831L1165.99 550.069L1164.48 548.213Z" fill="#7796B3"/>
<path d="M552.432 318.656L553.941 317.419L556.205 318.656L553.941 321.131L552.432 318.656Z" fill="#B8BAB6"/>
<path d="M842.986 312.469L845.25 311.231L846.76 313.706L844.496 314.944L842.986 312.469Z" fill="#828685"/>
<path d="M1665.6 386.1L1669.37 385.481L1670.12 387.338L1667.11 387.956L1665.6 386.1Z" fill="#C0C3C0"/>
<path d="M1875.4 60.6371L1876.91 58.1621L1879.17 60.0184L1878.42 61.8746L1875.4 60.6371Z" fill="#CED2CF"/>
<path d="M611.297 670.106L609.033 668.25L610.543 665.775L611.297 670.106Z" fill="#EFF3F0"/>
<path d="M971.284 483.243L969.02 481.387L970.529 478.912L972.793 479.531L971.284 483.243Z" fill="#C0C3C0"/>
<path d="M1512.39 699.188L1514.66 697.95L1515.41 700.425L1513.15 701.044L1512.39 699.188Z" fill="#B8BAB6"/>
<path d="M853.552 704.137L850.533 703.519L855.061 702.281L853.552 704.137Z" fill="#DADCD9"/>
<path d="M223.388 375.581L224.143 377.437L221.124 378.675L220.369 376.2L223.388 375.581Z" fill="#C0C3C0"/>
<path d="M1347.12 300.094L1350.89 298.856L1352.4 300.713L1350.14 302.569L1347.12 300.094Z" fill="#ACAEAB"/>
<path d="M267.16 26.6062L270.179 24.75L271.688 26.6062L268.67 28.4625L267.16 26.6062Z" fill="#A0A3A0"/>
<path d="M1227.12 22.8934L1230.14 21.0371L1231.65 22.8934L1229.39 25.3684L1227.12 22.8934Z" fill="#EFF3F0"/>
<path d="M1496.54 297.618L1498.81 296.381L1500.32 298.237L1497.3 300.093L1496.54 297.618Z" fill="#CED2CF"/>
<path d="M1362.21 728.269L1364.47 727.031L1366.74 729.506L1362.21 728.269Z" fill="#7796B3"/>
<path d="M109.43 447.975L110.939 446.119L113.203 446.738L112.448 448.594L109.43 447.975Z" fill="#3C4855"/>
<path d="M915.437 756.113L913.927 757.969L912.418 756.113L914.682 754.256L915.437 756.113Z" fill="#C0C3C0"/>
<path d="M69.432 452.307L71.6961 454.782L67.168 453.544L69.432 452.307Z" fill="#EFF3F0"/>
<path d="M1730.5 762.3L1732.01 759.825V763.538L1730.5 762.3Z" fill="#607080"/>
<path d="M1565.98 147.263L1564.47 146.644L1565.22 146.025L1566.73 146.644L1565.98 147.263Z" fill="#3C4855"/>
<path d="M7.54648 146.644L6.03711 144.169L8.30117 142.932L7.54648 146.644Z" fill="#ACAEAB"/>
<path d="M1563.71 885.431L1565.22 884.812L1564.47 887.288L1563.71 885.431Z" fill="#6A6E6F"/>
<path d="M1048.26 876.15L1049.77 874.294L1050.53 877.388L1048.26 876.15Z" fill="#8D908F"/>
<path d="M1762.19 141.075V141.694H1760.69L1761.44 140.456L1762.19 141.075Z" fill="#3C4855"/>
<path d="M380.363 873.675L378.099 874.294L376.59 873.675L377.345 872.438L380.363 873.675Z" fill="#737777"/>
<path d="M1129.01 860.062L1129.77 864.394L1127.5 863.156L1129.01 860.062Z" fill="#A0A3A0"/>
<path d="M1550.88 806.85L1552.39 805.612L1555.41 806.231L1550.88 806.85Z" fill="#8D999A"/>
<path d="M1576.54 641.644L1575.79 647.212L1572.01 643.5L1576.54 641.644Z" fill="#434545"/>
<path d="M117.73 394.762L119.995 394.144L120.749 394.762L118.485 396L117.73 394.762Z" fill="#585B5C"/>
<path d="M261.121 550.069L263.385 548.831L264.895 550.687L261.121 550.069Z" fill="#8D999A"/>
<path d="M918.455 391.05L920.72 392.287L918.455 393.525L916.191 392.287L918.455 391.05Z" fill="#ACAEAB"/>
<path d="M1866.34 132.413L1867.85 130.557L1867.1 134.269L1866.34 132.413Z" fill="#8D908F"/>
<path d="M676.955 647.831L675.445 645.975L677.709 645.356L678.464 647.213L676.955 647.831Z" fill="#606364"/>
<path d="M1886.72 788.906L1888.23 790.144L1886.72 791.381V788.906Z" fill="#607080"/>
<path d="M1320.7 789.525L1321.46 788.288L1322.21 788.906L1321.46 790.144L1320.7 789.525Z" fill="#434545"/>
<path d="M468.661 292.669L465.643 291.431L468.661 289.575L470.925 291.431L468.661 292.669Z" fill="#C0C3C0"/>
<path d="M1575.03 284.625L1573.52 282.769L1577.3 283.387L1575.03 284.625Z" fill="#737777"/>
<path d="M1205.99 372.488L1207.5 370.631L1209.76 371.25L1208.25 373.725L1205.99 372.488ZM675.445 100.238L676.955 99L678.464 100.856L676.955 102.713L675.445 100.238Z" fill="#B8BAB6"/>
<path d="M171.314 96.5254L173.579 97.7629L172.069 99.6191L171.314 96.5254Z" fill="#607080"/>
<path d="M938.076 551.925L939.586 550.068V553.781L938.076 551.925Z" fill="#8D999A"/>
<path d="M818.081 660.825L820.345 662.063L819.59 662.681L817.326 661.444L818.081 660.825Z" fill="#585B5C"/>
<path d="M1053.54 481.388L1052.04 480.15H1055.81L1053.54 481.388Z" fill="#737777"/>
<path d="M139.617 574.819L140.372 572.963L141.881 573.582L140.372 575.438L139.617 574.819Z" fill="#606364"/>
<path d="M1272.4 480.769L1274.67 480.15L1273.91 483.244L1272.4 480.769Z" fill="#828685"/>
<path d="M1913.13 432.506L1915.4 433.743L1913.13 434.981L1910.87 433.743L1913.13 432.506Z" fill="#ACAEAB"/>
<path d="M974.302 48.2627L975.056 49.5002H973.547L974.302 48.2627Z" fill="#36393B"/>
<path d="M686.012 265.444L686.766 263.588V266.063L686.012 265.444Z" fill="#606364"/>
<path d="M569.035 363.825L572.054 363.206L571.299 364.444L569.035 363.825Z" fill="#6A6E6F"/>
<path d="M123.77 556.257L125.279 554.4L124.524 558.113L123.77 556.257Z" fill="#8D908F"/>
<path d="M1416.55 767.869L1417.3 769.106L1415.79 769.725L1416.55 767.869Z" fill="#434545"/>
<path d="M1675.41 703.519L1673.14 702.281L1673.9 701.663H1676.16L1675.41 703.519Z" fill="#737777"/>
<path d="M359.232 446.119H360.741L359.232 447.357L357.723 446.738L359.232 446.119Z" fill="#4D5252"/>
<path d="M1164.48 722.081L1162.97 720.844H1165.99L1164.48 722.081Z" fill="#6A6E6F"/>
<path d="M548.659 632.363L546.395 629.888H548.659V632.363Z" fill="#828685"/>
<path d="M49.0555 357.019L49.8102 357.637L48.3008 358.256L49.0555 357.019Z" fill="#36393B"/>
<path d="M1115.43 241.931L1113.16 243.168L1112.41 241.312L1113.92 240.693L1115.43 241.931Z" fill="#606364"/>
<path d="M688.275 499.95L689.785 498.094L691.294 499.95L689.03 501.806L688.275 499.95Z" fill="#B8BAB6"/>
<path d="M1275.42 219.656L1274.67 219.037H1277.69L1275.42 219.656Z" fill="#606364"/>
<path d="M289.045 376.2L291.309 374.963L292.818 377.438L289.045 376.2Z" fill="#A0A3A0"/>
<path d="M726.764 561.825L729.028 563.063H724.5L726.764 561.825Z" fill="#828685"/>
<path d="M1519.94 296.381L1519.19 295.144H1521.45L1519.94 296.381Z" fill="#434545"/>
<path d="M1688.99 193.669L1687.48 195.525V191.812L1688.99 193.669Z" fill="#A0A3A0"/>
<path d="M620.352 730.125L622.616 731.362L621.862 733.219L619.598 732.6L620.352 730.125Z" fill="#B8BAB6"/>
<path d="M1369 182.531L1371.27 181.912L1372.78 183.15L1369 182.531Z" fill="#737777"/>
<path d="M1006 393.525L1009.02 394.763L1006 396L1004.49 394.763L1006 393.525Z" fill="#CED2CF"/>
<path d="M1308.63 297H1307.12V295.763L1308.63 297Z" fill="#4D5252"/>
<path d="M522.999 162.732L522.244 161.494H525.263L522.999 162.732Z" fill="#585B5C"/>
<path d="M235.463 301.95L237.727 300.713L239.236 301.95H235.463Z" fill="#6A6E6F"/>
<path d="M1356.17 385.481L1355.42 384.862L1356.17 383.625L1356.93 384.862L1356.17 385.481Z" fill="#606364"/>
<path d="M1535.03 811.181L1536.54 810.562L1537.3 811.8L1535.79 812.418L1535.03 811.181ZM518.471 120.037H519.98V120.656L518.471 120.037Z" fill="#4D5252"/>
<path d="M172.824 554.4L178.862 558.731L182.635 556.256L178.107 551.925L172.824 554.4Z" fill="#8EB9D4"/>
<path d="M1556.17 761.062L1547.11 751.781L1554.66 743.119L1562.2 749.306L1556.17 761.062ZM1774.27 717.75L1775.78 726.412L1769.74 723.319L1774.27 717.75Z" fill="#90B0C1"/>
<path d="M1303.35 407.756L1297.31 400.95L1302.59 396L1307.87 400.95L1303.35 407.756Z" fill="#8EB9D4"/>
<path d="M1611.26 660.825L1613.52 655.875L1609.75 653.4L1611.26 660.825Z" fill="#679ACB"/>
<path d="M172.824 554.4L178.107 551.925L182.635 556.256L178.862 558.731L172.824 554.4Z" fill="#EFF3F0"/>
<path d="M1611.26 660.825L1609.75 653.4L1613.52 655.875L1611.26 660.825Z" fill="#BADDE4"/>
</g>
<defs>
<clipPath id="clip0_57_5">
<rect width="1932" height="891" fill="white"/>
</clipPath>
</defs>
</svg>
