<svg width="486" height="406" viewBox="0 0 486 406" fill="none" xmlns="http://www.w3.org/2000/svg">
<g clip-path="url(#clip0_77_15)">
<path d="M452.38 231.765C462.901 222.958 468.209 213.463 468.154 203.548C467.918 163.756 379.974 132.239 267.896 131.791C263.823 131.775 259.793 132.018 255.78 132.367C255.433 131.67 254.97 130.92 254.37 130.115C241.92 113.387 181.088 77.1749 105.779 114.851C103.847 115.815 102.855 117.69 103.291 119.543C103.498 120.445 104.027 121.245 104.769 121.867C105.552 122.522 106.575 122.977 107.719 123.132C143.109 127.936 165.569 136.755 177.776 150.648C174.991 151.315 172.235 151.933 169.524 152.458C167.099 152.928 165.392 154.736 165.404 156.821L165.46 166.759L143.242 166.667C141.818 166.66 140.454 167.13 139.45 167.97C138.447 168.81 137.885 169.952 137.893 171.144L138.245 233.395C138.253 234.631 138.853 235.751 139.826 236.565C140.798 237.379 142.136 237.881 143.612 237.888L165.864 237.976L165.92 247.941C165.929 249.165 166.521 250.291 167.501 251.111C168.187 251.686 169.063 252.109 170.055 252.31C172.589 252.819 175.155 253.401 177.752 254.035C165.842 268.147 143.349 276.943 107.562 281.526C105.336 281.811 103.569 283.234 103.142 285.083C102.796 286.572 103.379 288.079 104.626 289.123C104.931 289.377 105.275 289.604 105.654 289.797C181.212 327.98 241.709 292.326 254.051 275.743C254.804 274.73 255.278 273.834 255.639 272.989C259.951 273.423 264.286 273.734 268.664 273.752C349.415 274.075 421.53 257.59 452.38 231.765ZM188.385 147.687C176.663 132.674 156.049 122.65 124.457 116.702C160.22 102.697 189.952 106.829 209.391 113.325C223.962 118.197 234.465 124.94 240.404 129.911C241.997 131.244 243.255 132.446 244.184 133.452L188.385 147.687ZM148.937 228.938L148.637 175.66L165.507 175.731L165.772 221.755L165.814 229.003L148.937 228.938ZM209.572 292.06C190.158 298.468 160.39 302.421 124.348 288.08C155.835 282.378 176.323 272.528 187.891 257.607L243.885 272.291C239.58 277 227.825 286.033 209.572 292.06ZM205.122 252.236C195.239 249.318 185.833 246.534 176.62 244.466L176.14 160.349C183.506 158.747 191.064 156.639 198.822 154.419L243.217 143.095C251.417 141.639 259.661 140.729 267.915 140.761C370.449 141.169 457.229 169.908 457.438 203.532C457.48 210.979 453.219 218.337 444.779 225.402C416.279 249.26 345.492 265.085 268.645 264.781C247.243 264.695 225.829 258.361 205.122 252.236Z" fill="white"/>
<path d="M356.581 176.578C347.967 176.537 339.881 179.31 333.817 184.387C327.748 189.467 324.436 196.236 324.484 203.447C324.534 210.881 328.189 217.64 334.053 222.549C339.918 227.458 347.992 230.518 356.869 230.556C365.483 230.597 373.565 227.821 379.634 222.741C385.698 217.664 389.014 210.899 388.965 203.687C388.874 188.825 374.343 176.661 356.581 176.578ZM356.866 221.586C344.98 221.53 335.267 213.399 335.201 203.45C335.172 198.645 337.375 194.134 341.418 190.75C345.457 187.369 350.846 185.524 356.585 185.548C362.527 185.576 367.926 187.625 371.849 190.909C375.773 194.194 378.217 198.71 378.25 203.684C378.278 208.489 376.071 212.996 372.032 216.377C367.989 219.762 362.605 221.609 356.866 221.586Z" fill="white"/>
<path d="M127.233 201.469C127.232 198.991 124.827 196.978 121.866 196.964L46.2477 196.664C43.291 196.653 40.8935 198.648 40.8989 201.129C40.8996 202.371 41.5032 203.494 42.4792 204.311C43.448 205.122 44.7897 205.627 46.2659 205.634L121.885 205.935C124.841 205.945 127.239 203.951 127.233 201.469Z" fill="white"/>
<path d="M68.1823 182.559C69.1511 183.37 70.4924 183.875 71.969 183.882L121.767 184.079C124.724 184.089 127.118 182.091 127.116 179.613C127.114 177.135 124.713 175.119 121.749 175.108L71.9504 174.911C68.9941 174.9 66.5996 176.899 66.6015 179.377C66.6027 180.618 67.2063 181.742 68.1823 182.559Z" fill="white"/>
<path d="M121.995 218.817L72.1965 218.621C69.2402 218.61 66.8457 220.608 66.8476 223.086C66.8488 224.328 67.452 225.451 68.4284 226.268C69.3968 227.079 70.7385 227.584 72.2147 227.591L122.013 227.788C124.97 227.799 127.364 225.801 127.362 223.323C127.36 220.845 124.959 218.828 121.995 218.817Z" fill="white"/>
<g filter="url(#filter0_d_77_15)">
<path d="M184.92 195.384C184.92 190.563 186.477 187.16 189.592 185.176C191.235 184.109 193.251 183.576 195.64 183.576C198.008 183.576 200.237 183.96 202.328 184.728C202.605 184.835 202.755 184.888 202.776 184.888L201.848 187.704C201.827 187.704 201.677 187.672 201.4 187.608C201.144 187.523 200.877 187.448 200.6 187.384C200.344 187.299 200.003 187.213 199.576 187.128C199.149 187.043 198.744 186.968 198.36 186.904C197.507 186.733 196.6 186.648 195.64 186.648C193.251 186.648 191.501 187.32 190.392 188.664C189.304 190.008 188.76 192.269 188.76 195.448C188.76 199.053 189.389 201.464 190.648 202.68C191.288 203.299 191.992 203.725 192.76 203.96C193.528 204.195 194.456 204.312 195.544 204.312C197.528 204.312 199.629 203.917 201.848 203.128L202.776 206.04L201.944 206.296C199.64 207.021 197.272 207.384 194.84 207.384C191.661 207.384 189.208 206.371 187.48 204.344C185.773 202.317 184.92 199.331 184.92 195.384ZM212.983 189.528C215.073 189.528 216.801 190.264 218.167 191.736C219.532 193.187 220.215 195.331 220.215 198.168C220.215 201.005 219.511 203.256 218.103 204.92C216.716 206.563 214.625 207.384 211.831 207.384C209.74 207.384 208.012 206.648 206.647 205.176C205.281 203.683 204.599 201.517 204.599 198.68C204.599 195.843 205.292 193.613 206.679 191.992C208.087 190.349 210.188 189.528 212.983 189.528ZM208.247 198.712C208.247 200.845 208.599 202.381 209.303 203.32C210.028 204.237 211.105 204.696 212.535 204.696C213.964 204.696 214.988 204.141 215.607 203.032C216.247 201.923 216.567 200.301 216.567 198.168C216.567 196.013 216.204 194.488 215.479 193.592C214.775 192.675 213.793 192.216 212.535 192.216C210.935 192.216 209.815 192.76 209.175 193.848C208.556 194.936 208.247 196.557 208.247 198.712ZM224.95 195.352C224.95 193.432 224.758 191.704 224.374 190.168L227.062 189.816L227.67 191.416C229.483 190.157 231.339 189.528 233.238 189.528C235.158 189.528 236.566 190.147 237.462 191.384C239.19 190.147 241.035 189.528 242.998 189.528C244.982 189.528 246.411 190.051 247.286 191.096C248.182 192.141 248.63 193.709 248.63 195.8V207H245.174V196.44C245.174 194.371 244.683 193.08 243.702 192.568C243.275 192.333 242.731 192.216 242.07 192.216C240.961 192.216 239.723 192.696 238.358 193.656C238.486 194.317 238.55 195.032 238.55 195.8V207H235.094V196.44C235.094 195.117 234.891 194.083 234.486 193.336C234.081 192.589 233.259 192.216 232.022 192.216C230.785 192.216 229.579 192.675 228.406 193.592V207H224.95V195.352ZM265.588 203.352L266.772 205.528C266.409 205.869 265.641 206.264 264.468 206.712C263.294 207.16 262.036 207.384 260.692 207.384C258.302 207.384 256.372 206.659 254.9 205.208C253.449 203.757 252.724 201.581 252.724 198.68C252.724 197.08 252.98 195.672 253.492 194.456C254.004 193.219 254.665 192.259 255.476 191.576C257.14 190.211 258.878 189.528 260.692 189.528C262.526 189.528 263.977 189.997 265.044 190.936C266.132 191.853 266.676 192.984 266.676 194.328C266.676 196.099 265.833 197.549 264.148 198.68C262.462 199.789 259.764 200.344 256.052 200.344C256.052 201.325 256.457 202.296 257.268 203.256C258.1 204.216 259.316 204.696 260.916 204.696C262.537 204.696 264.094 204.248 265.588 203.352ZM263.572 194.616C263.572 193.976 263.326 193.421 262.836 192.952C262.366 192.461 261.694 192.216 260.82 192.216C259.412 192.216 258.249 192.749 257.332 193.816C256.436 194.861 255.977 196.237 255.956 197.944C261.033 197.944 263.572 196.835 263.572 194.616ZM269.692 198.648C269.692 195.96 270.396 193.773 271.804 192.088C273.212 190.381 275.164 189.528 277.66 189.528C279.751 189.528 281.671 189.976 283.42 190.872L282.46 193.208C281.01 192.547 279.644 192.216 278.364 192.216C276.658 192.216 275.388 192.781 274.556 193.912C273.746 195.043 273.34 196.461 273.34 198.168C273.34 202.52 275.026 204.696 278.396 204.696C279.655 204.696 280.967 204.333 282.332 203.608L283.452 205.848C282.151 206.68 280.498 207.181 278.492 207.352L278.172 208.792C279.559 209.027 280.252 209.731 280.252 210.904C280.252 211.608 280.039 212.184 279.612 212.632C278.93 213.357 278.066 213.72 277.02 213.72C275.996 213.72 275.1 213.517 274.332 213.112L274.94 211.576C275.431 211.768 275.922 211.864 276.412 211.864C277.351 211.864 277.82 211.544 277.82 210.904C277.82 210.285 277.468 209.976 276.764 209.976C276.487 209.976 276.242 209.997 276.028 210.04C275.836 210.083 275.708 210.104 275.644 210.104L275.996 207.256C273.906 206.936 272.327 205.976 271.26 204.376C270.215 202.776 269.692 200.867 269.692 198.648ZM300.378 190.968V202.936C300.378 203.683 300.463 204.184 300.634 204.44C300.805 204.675 301.221 204.792 301.882 204.792L302.01 206.808C301.477 207 300.911 207.096 300.314 207.096C298.65 207.096 297.658 206.339 297.338 204.824C296.207 206.531 294.533 207.384 292.314 207.384C290.117 207.384 288.474 206.563 287.386 204.92C286.319 203.277 285.786 201.165 285.786 198.584C285.786 195.981 286.522 193.827 287.994 192.12C289.466 190.392 291.439 189.528 293.914 189.528C294.917 189.528 296.079 189.688 297.402 190.008C298.746 190.307 299.738 190.627 300.378 190.968ZM289.434 198.84C289.434 200.909 289.743 202.403 290.362 203.32C291.002 204.237 291.919 204.696 293.114 204.696C294.309 204.696 295.237 204.28 295.898 203.448C296.581 202.595 296.922 201.549 296.922 200.312V192.632C296.09 192.355 295.141 192.216 294.074 192.216C292.453 192.216 291.269 192.803 290.522 193.976C289.797 195.149 289.434 196.771 289.434 198.84ZM306.638 195.352C306.638 193.432 306.446 191.704 306.062 190.168L308.75 189.816L309.55 191.896C310.894 190.317 312.408 189.528 314.094 189.528C315.224 189.528 316.099 189.795 316.718 190.328C317.358 190.861 317.678 191.619 317.678 192.6C317.678 193.581 317.518 194.445 317.198 195.192L314.446 194.84C314.446 193.88 314.35 193.208 314.158 192.824C313.987 192.419 313.614 192.216 313.038 192.216C312.483 192.216 311.928 192.44 311.374 192.888C310.84 193.336 310.414 193.837 310.094 194.392V207H306.638V195.352Z" fill="white"/>
</g>
</g>
<defs>
<filter id="filter0_d_77_15" x="180.92" y="183.576" width="140.758" height="38.144" filterUnits="userSpaceOnUse" color-interpolation-filters="sRGB">
<feFlood flood-opacity="0" result="BackgroundImageFix"/>
<feColorMatrix in="SourceAlpha" type="matrix" values="0 0 0 0 0 0 0 0 0 0 0 0 0 0 0 0 0 0 127 0" result="hardAlpha"/>
<feOffset dy="4"/>
<feGaussianBlur stdDeviation="2"/>
<feComposite in2="hardAlpha" operator="out"/>
<feColorMatrix type="matrix" values="0 0 0 0 0 0 0 0 0 0 0 0 0 0 0 0 0 0 0.25 0"/>
<feBlend mode="normal" in2="BackgroundImageFix" result="effect1_dropShadow_77_15"/>
<feBlend mode="normal" in="SourceGraphic" in2="effect1_dropShadow_77_15" result="shape"/>
</filter>
<clipPath id="clip0_77_15">
<rect width="317.227" height="315.277" fill="white" transform="matrix(0.766794 0.641893 -0.766794 0.641893 242.748 0)"/>
</clipPath>
</defs>
</svg>
